<svg width="150" height="75" viewBox="0 0 150 75" fill="none" xmlns="http://www.w3.org/2000/svg">
<path fill-rule="evenodd" clip-rule="evenodd" d="M47.4535 52.8885C49.779 56.7887 59.1322 59.7079 69.862 60.6814C74.7024 60.6534 75.1843 59.6257 74.8417 57.2473C75.5271 56.7425 75.7424 56.3768 76.0866 55.7063C75.8923 53.6423 76.2501 52.9927 77.3315 52.3162C79.5926 51.73 79.9892 54.7666 81.6887 59.0848C86.9555 60.5256 91.4687 59.8351 98.993 58.8206C103.667 57.4152 106.332 57.5687 107.085 56.3227C108.229 55.1024 108.727 54.4173 109.201 53.1967C107.927 51.8823 104.94 51.7913 99.3665 51.6998C94.891 51.5527 92.9126 51.3923 90.5276 50.9513C85.1572 49.5005 87.9052 48.8265 90.5276 49.2505L105.812 48.5893L140.774 48.7058C141.859 48.6823 142.446 48.73 143.392 49.1021C145.744 49.1797 147.054 49.3195 149.389 49.5864C149.536 50.071 149.413 50.2913 148.861 50.643L148.809 50.6419C148.221 50.6287 147.876 50.6209 147.658 50.7751C147.42 51.0959 147.237 51.1842 146.834 51.2154C146.34 51.3971 146.074 51.4963 145.673 51.6557H143.92C143.436 51.9413 143.157 52.0945 142.231 52.0079C141.346 52.2979 140.887 52.3892 138.83 52.4482C137.718 52.9212 135.848 53.8858 136.589 55.8383C137.629 57.1609 137.404 57.7387 136.216 58.612C134.915 60.7163 133.684 61.4024 130.738 62.0902C127.936 63.8972 126.021 64.9612 122.397 66.8892C115.868 67.8768 112.55 69.5352 107.085 71.1072C102.326 71.4696 99.6224 71.6006 95.3828 73.0004C87.8659 73.1984 82.126 74.745 73.5967 74.1874C71.3521 74.0407 71.1102 74.2658 67.8701 73.5687C59.3615 70.9531 56.8666 71.8161 54.0516 71.5004C52.0834 70.9548 50.7373 69.8689 48.2005 69.84C43.2067 69.1154 40.5911 67.2054 36.2493 66.1847L26.041 62.0902C21.5204 60.8491 19.8709 60.0875 19.6919 58.524V55.398C18.5436 52.7424 14.5105 52.3796 13.5542 52.0702C11.815 52.0431 11.1122 51.936 10.0842 51.6673C8.13384 51.6301 7.04032 51.6261 5.08997 51.6673C4.30951 51.1402 3.66893 50.9647 2.17125 50.8615C1.67047 50.6942 1.38404 50.609 0.841616 50.5033C0.275698 50.1292 0.344882 49.9718 0.874056 49.7422C3.04157 49.7704 4.19261 49.5174 6.25745 49.1154C8.7237 48.7822 9.97753 48.6828 12.03 48.623C12.7289 48.4174 13.0963 48.3527 13.7164 48.3096L54.674 48.434C58.1228 48.5499 60.5515 48.9137 63.9072 49.2505H71.1572C72.4703 49.7097 70.0574 50.3303 68.9906 50.6431C66.3725 50.775 65.2559 50.8841 63.7619 51.1274L63.5608 51.1278C55.9439 51.1426 51.612 51.151 49.9434 51.6998C48.5616 52.0168 48.0635 52.2935 47.4535 52.8885ZM131.236 53.5929C129.822 52.1036 127.251 51.83 120.281 52.096C117.714 53.1665 116.662 53.8775 115.799 55.442C113.643 57.009 112.015 57.7569 108.703 58.9642C105.803 60.2106 103.919 60.8169 99.3665 61.4738C96.1123 61.6154 94.2929 61.6924 91.15 61.782C89.5757 62.2005 88.4749 62.4669 86.2949 62.9707C83.8747 63.1441 82.9274 63.2888 82.0622 63.6312C81.5419 64.8109 81.5184 65.4894 81.6887 66.7131C82.351 67.8376 83.2137 68.3302 86.2949 68.7824C97.1823 68.4079 103.111 67.3066 113.558 64.6878C117.769 62.7825 120.27 61.7123 125.385 59.8008C129.546 57.2656 131.224 55.8834 131.236 53.5929ZM74.2192 65.9646C74.7775 64.0508 74.2068 63.2831 69.1151 63.323L63.1394 62.7946L54.674 60.6373C49.996 59.513 47.8237 58.8057 45.2127 57.3352C42.5894 54.0278 41.1279 52.2324 38.9881 52.0079C32.6507 51.4922 29.9948 51.4708 28.6553 52.4482C27.8928 53.7168 28.0663 54.5758 29.2778 56.3226C32.2773 59.0239 34.2135 60.4803 38.3656 62.9267C42.4174 64.6674 45.1163 65.5113 50.9393 66.7131C55.5831 67.6988 58.1773 68.1309 62.766 68.4301C65.2826 68.8216 66.8196 68.9191 69.7375 68.9144C72.9736 68.5158 73.5821 67.6813 74.2192 65.9646Z" fill="#2A2A2A"/>
<path d="M63.7619 51.1274C65.2559 50.8841 66.3725 50.775 68.9906 50.6431C70.0574 50.3303 72.4703 49.7097 71.1572 49.2505H63.9072C60.5515 48.9137 58.1228 48.5499 54.674 48.434L13.7164 48.3096C13.0963 48.3527 12.7289 48.4174 12.03 48.623C9.97753 48.6828 8.7237 48.7822 6.25745 49.1154C4.19261 49.5174 3.04156 49.7704 0.874056 49.7422C0.344881 49.9718 0.275695 50.1292 0.841616 50.5033C1.38403 50.609 1.67047 50.6942 2.17125 50.8615C3.66893 50.9647 4.3095 51.1402 5.08997 51.6673C7.04032 51.6261 8.13383 51.6301 10.0842 51.6673C11.1121 51.936 11.815 52.0431 13.5542 52.0702C14.5105 52.3796 18.5436 52.7424 19.6919 55.398V58.524C19.8709 60.0875 21.5204 60.8491 26.041 62.0902L36.2493 66.1847C40.5911 67.2054 43.2067 69.1154 48.2005 69.84C50.7373 69.8689 52.0834 70.9548 54.0516 71.5004C56.8666 71.8161 59.3615 70.9531 67.8701 73.5687C71.1102 74.2658 71.3521 74.0406 73.5967 74.1874C82.126 74.745 87.8659 73.1984 95.3828 73.0004C99.6224 71.6006 102.326 71.4696 107.085 71.1072C112.55 69.5352 115.868 67.8768 122.397 66.8892C126.021 64.9612 127.936 63.8972 130.738 62.0902C133.684 61.4024 134.915 60.7163 136.216 58.612C137.404 57.7387 137.629 57.1609 136.589 55.8383C135.848 53.8858 137.718 52.9212 138.83 52.4482C140.887 52.3892 141.346 52.2979 142.231 52.0079C143.157 52.0945 143.436 51.9413 143.92 51.6557H145.673C146.074 51.4963 146.34 51.3971 146.834 51.2154C147.237 51.1842 147.42 51.0959 147.658 50.7751C147.876 50.6209 148.221 50.6287 148.809 50.6419M63.7619 51.1274L63.5608 51.1278M63.7619 51.1274C63.6946 51.1276 63.6276 51.1277 63.5608 51.1278M148.861 50.643C149.413 50.2913 149.536 50.071 149.389 49.5864C147.054 49.3195 145.744 49.1797 143.392 49.1021C142.446 48.73 141.859 48.6823 140.774 48.7058L105.812 48.5893L90.5276 49.2505C87.9052 48.8265 85.1572 49.5005 90.5276 50.9513C92.9126 51.3923 94.891 51.5527 99.3665 51.6998C104.94 51.7913 107.927 51.8823 109.201 53.1967C108.727 54.4173 108.229 55.1024 107.085 56.3227C106.332 57.5687 103.667 57.4152 98.993 58.8206C91.4687 59.8351 86.9555 60.5256 81.6887 59.0848C79.9892 54.7666 79.5926 51.73 77.3315 52.3162C76.2501 52.9927 75.8923 53.6423 76.0866 55.7063C75.7424 56.3768 75.5271 56.7425 74.8417 57.2473C75.1843 59.6257 74.7024 60.6534 69.862 60.6814C59.1322 59.7079 49.779 56.7887 47.4535 52.8885C48.0635 52.2935 48.5616 52.0168 49.9434 51.6998C51.612 51.151 55.9439 51.1426 63.5608 51.1278M148.861 50.643L148.809 50.6419M148.861 50.643C148.843 50.6426 148.826 50.6422 148.809 50.6419M120.281 52.096C127.251 51.83 129.822 52.1036 131.236 53.5929C131.224 55.8834 129.546 57.2656 125.385 59.8008C120.27 61.7123 117.769 62.7825 113.558 64.6878C103.111 67.3066 97.1823 68.4079 86.2949 68.7824C83.2137 68.3302 82.351 67.8376 81.6887 66.7131C81.5184 65.4894 81.5419 64.8109 82.0622 63.6312C82.9274 63.2888 83.8747 63.1441 86.2949 62.9707C88.4749 62.4669 89.5757 62.2005 91.15 61.782C94.2929 61.6924 96.1123 61.6154 99.3665 61.4738C103.919 60.8169 105.803 60.2106 108.703 58.9642C112.015 57.7569 113.643 57.009 115.799 55.442C116.662 53.8775 117.714 53.1665 120.281 52.096ZM69.1151 63.323C74.2068 63.2831 74.7775 64.0508 74.2192 65.9646C73.5821 67.6813 72.9736 68.5158 69.7375 68.9144C66.8196 68.9191 65.2826 68.8216 62.766 68.4301C58.1773 68.1309 55.5831 67.6988 50.9393 66.7131C45.1163 65.5113 42.4174 64.6674 38.3656 62.9267C34.2135 60.4803 32.2773 59.0239 29.2778 56.3226C28.0663 54.5758 27.8928 53.7168 28.6553 52.4482C29.9948 51.4708 32.6507 51.4922 38.9881 52.0079C41.1279 52.2324 42.5894 54.0278 45.2127 57.3352C47.8237 58.8057 49.996 59.513 54.674 60.6373L63.1394 62.7946L69.1151 63.323Z" stroke="#E6E6E6" stroke-width="0.892917"/>
<mask id="path-3-outside-1_1905_2436" maskUnits="userSpaceOnUse" x="3.50879" y="8.19531" width="144" height="42" fill="black">
<rect fill="white" x="3.50879" y="8.19531" width="144" height="42"/>
<path d="M37.681 10.3667C37.681 10.5572 37.662 10.6715 37.6239 10.7096C37.4715 10.862 37.3191 11.0144 37.1667 11.1668C37.0143 11.2811 36.862 11.4144 36.7096 11.5668C36.5953 11.7192 36.462 11.8525 36.3096 11.9668C36.0429 12.2716 35.8524 12.6335 35.7381 13.0525C35.6619 13.624 35.5286 14.5192 35.3381 15.7383C35.1476 16.9193 34.9381 18.1765 34.7095 19.5098C34.519 20.8432 34.3286 22.1385 34.1381 23.3956C33.9476 24.6147 33.7952 25.5862 33.6809 26.31C33.5666 26.9195 33.7571 27.4719 34.2524 27.9672C34.4048 28.1196 34.5381 28.272 34.6524 28.4243C34.8048 28.5386 34.9381 28.672 35.0524 28.8244C35.2048 28.9386 35.3381 29.072 35.4524 29.2244C35.5286 29.3006 35.5667 29.3577 35.5667 29.3958C35.5667 29.472 35.5286 29.5482 35.4524 29.6244L33.1666 31.9101C32.9 32.1768 32.7285 32.5387 32.6523 32.9959C32.5761 33.5673 32.4428 34.4054 32.2523 35.5102C32.0999 36.615 31.9095 37.796 31.6809 39.0532C31.4904 40.2723 31.2999 41.4723 31.1094 42.6533C30.919 43.7962 30.7666 44.7105 30.6523 45.3962C30.5761 46.0819 30.7666 46.6534 31.2237 47.1105L32.1952 48.082C32.2714 48.1582 32.3095 48.2725 32.3095 48.4248C32.2714 48.5391 32.1761 48.5963 32.0237 48.5963H23.1664C23.0521 48.5963 22.9568 48.5391 22.8807 48.4248C22.8807 48.2725 22.9188 48.1582 22.9949 48.082L23.5664 47.5105C24.0235 47.0534 24.195 46.52 24.0807 45.9105C24.0045 45.301 23.9093 44.4819 23.795 43.4533C23.6807 42.4247 23.5473 41.2628 23.395 39.9675C23.2807 38.6722 23.1283 37.3198 22.9378 35.9102C22.7854 34.4626 22.633 33.0721 22.4806 31.7387C22.3664 30.3672 22.233 29.091 22.0806 27.91C21.9282 26.7291 21.814 25.7386 21.7378 24.9385C21.7378 24.8243 21.6806 24.7671 21.5663 24.7671C21.452 24.7671 21.3949 24.8243 21.3949 24.9385C21.3187 25.7005 21.2044 26.6719 21.052 27.8529C20.9377 29.0339 20.8044 30.2911 20.652 31.6244C20.4996 32.9578 20.3473 34.3483 20.1949 35.796C20.0425 37.2055 19.8901 38.5389 19.7377 39.7961C19.6234 41.0532 19.5091 42.2152 19.3949 43.2819C19.2806 44.3105 19.1853 45.1105 19.1091 45.6819C19.071 46.2915 19.2615 46.8248 19.6806 47.282L20.4806 48.082C20.5568 48.2344 20.5758 48.3487 20.5377 48.4248C20.4996 48.5391 20.4044 48.5963 20.252 48.5963H11.4518C11.3375 48.5963 11.2423 48.5391 11.1661 48.4248C11.128 48.3487 11.147 48.2344 11.2232 48.082C11.2994 48.0058 11.3756 47.9296 11.4518 47.8534C11.528 47.7772 11.6232 47.701 11.7375 47.6248C11.8518 47.5105 11.947 47.4153 12.0232 47.3391C12.4804 46.8058 12.6518 46.2343 12.5375 45.6248C12.4232 44.939 12.2709 44.0057 12.0804 42.8247C11.928 41.6056 11.7375 40.3675 11.5089 39.1103C11.3185 37.8531 11.128 36.6722 10.9375 35.5674C10.7851 34.4245 10.6518 33.5673 10.5375 32.9959C10.4613 32.5387 10.2899 32.1768 10.0232 31.9101L7.73742 29.6244C7.66122 29.5482 7.62313 29.472 7.62313 29.3958C7.62313 29.3577 7.66122 29.3006 7.73742 29.2244C7.85171 29.072 7.98504 28.9386 8.13743 28.8244C8.25172 28.672 8.38505 28.5386 8.53744 28.4243C8.68982 28.272 8.82316 28.1196 8.93745 27.9672C9.4327 27.4719 9.62318 26.9195 9.50889 26.31C9.3946 25.5862 9.24222 24.6147 9.05174 23.3956C8.86125 22.1385 8.65173 20.8432 8.42315 19.5098C8.23267 18.1765 8.04219 16.9193 7.85171 15.7383C7.66122 14.5192 7.52789 13.624 7.4517 13.0525C7.33741 12.6335 7.14693 12.2716 6.88025 11.9668L6.08023 11.1668C5.92785 11.0144 5.77546 10.862 5.62308 10.7096C5.54689 10.6715 5.50879 10.5572 5.50879 10.3667C5.62308 10.2525 5.71832 10.1953 5.79451 10.1953H14.6519C14.7281 10.1953 14.8233 10.2525 14.9376 10.3667C14.9376 10.5572 14.8995 10.6715 14.8233 10.7096C14.709 10.8239 14.5947 10.9382 14.4804 11.0525C14.4043 11.1287 14.309 11.243 14.1947 11.3953C14.0804 11.5096 13.9471 11.6239 13.7947 11.7382C13.3757 12.2335 13.1852 12.7859 13.2233 13.3954C13.2995 13.9668 13.3947 14.7669 13.509 15.7955C13.6614 16.8241 13.8138 17.9669 13.9661 19.2241C14.1185 20.4813 14.2709 21.8147 14.4233 23.2242C14.6138 24.5957 14.7852 25.9481 14.9376 27.2815C15.09 28.5767 15.2233 29.7958 15.3376 30.9387C15.49 32.0435 15.6043 32.9768 15.6805 33.7388C15.6805 33.8531 15.7376 33.9102 15.8519 33.9102C16.0043 33.9102 16.0805 33.8531 16.0805 33.7388C16.1948 32.5959 16.3662 31.072 16.5948 29.1672C16.8234 27.2243 17.0519 25.2243 17.2805 23.1671C17.5472 21.1099 17.7948 19.186 18.0234 17.3955C18.252 15.5669 18.4234 14.2145 18.5377 13.3382C18.5758 12.7287 18.3853 12.1763 17.9662 11.6811L16.9948 10.7096C16.9186 10.6715 16.8805 10.5572 16.8805 10.3667C16.9948 10.2525 17.09 10.1953 17.1662 10.1953H26.0236C26.0998 10.1953 26.195 10.2525 26.3093 10.3667C26.3093 10.5572 26.2903 10.6715 26.2522 10.7096C26.1379 10.8239 26.0236 10.9191 25.9093 10.9953C25.8331 11.1096 25.7188 11.2239 25.5664 11.3382C25.4521 11.4525 25.3379 11.5668 25.2236 11.6811C24.8045 12.1763 24.614 12.7287 24.6521 13.3382C24.7664 14.2145 24.9378 15.5669 25.1664 17.3955C25.395 19.186 25.6236 21.1099 25.8522 23.1671C26.1188 25.2243 26.3665 27.2243 26.595 29.1672C26.8236 31.072 26.995 32.5959 27.1093 33.7388C27.1093 33.8531 27.1855 33.9102 27.3379 33.9102C27.4522 33.9102 27.5093 33.8531 27.5093 33.7388C27.5855 32.9768 27.6808 32.0435 27.7951 30.9387C27.9475 29.7958 28.0998 28.5767 28.2522 27.2815C28.4046 25.9481 28.557 24.5957 28.7094 23.2242C28.8999 21.8147 29.0713 20.4813 29.2237 19.2241C29.3761 17.9669 29.5094 16.8241 29.6237 15.7955C29.7761 14.7669 29.8904 13.9668 29.9665 13.3954C30.0046 12.7859 29.8142 12.2335 29.3951 11.7382L28.7094 11.0525C28.5951 10.9382 28.4808 10.8239 28.3665 10.7096C28.2522 10.6334 28.2332 10.5191 28.3094 10.3667C28.3094 10.2525 28.3856 10.1953 28.5379 10.1953H37.3953C37.4715 10.1953 37.5667 10.2525 37.681 10.3667Z"/>
<path d="M59.9829 48.082C60.0591 48.1582 60.0972 48.2725 60.0972 48.4248C60.0591 48.5391 59.9639 48.5963 59.8115 48.5963H50.9541C50.8398 48.5963 50.7446 48.5391 50.6684 48.4248C50.6684 48.2725 50.7065 48.1582 50.7827 48.082L51.4684 47.3962C51.9637 46.901 52.1542 46.3296 52.0399 45.6819C51.9637 45.2248 51.8684 44.6724 51.7542 44.0247C51.678 43.3771 51.5827 42.7295 51.4684 42.0818C51.3541 41.3961 51.2398 40.7675 51.1256 40.1961C51.0494 39.6246 50.9922 39.1865 50.9541 38.8817C50.8779 38.577 50.7065 38.4246 50.4398 38.4246H44.6683C44.4016 38.4246 44.2301 38.577 44.154 38.8817C44.1159 39.1865 44.0397 39.6246 43.9254 40.1961C43.8492 40.7675 43.7539 41.3961 43.6397 42.0818C43.5254 42.7295 43.4111 43.3771 43.2968 44.0247C43.2206 44.6724 43.1444 45.2248 43.0682 45.6819C42.9539 46.3296 43.1444 46.901 43.6397 47.3962C43.8682 47.6248 44.0397 47.7772 44.154 47.8534C44.2301 47.9296 44.3063 48.0058 44.3825 48.082C44.4206 48.1582 44.4397 48.2725 44.4397 48.4248C44.4016 48.5391 44.3063 48.5963 44.154 48.5963H35.2966C35.1823 48.5963 35.0871 48.5391 35.0109 48.4248C35.0109 48.2725 35.049 48.1582 35.1252 48.082L36.7252 46.4819C36.9919 46.2153 37.1824 45.8724 37.2966 45.4533C37.4109 44.8819 37.5633 44.0247 37.7538 42.8818C37.9824 41.7009 38.2109 40.4627 38.4395 39.1675C38.6681 37.8341 38.8967 36.5579 39.1253 35.3388C39.3538 34.0816 39.5253 33.0911 39.6396 32.3673C39.7538 31.7197 39.5634 31.1482 39.0681 30.653L38.0395 29.6244C37.9633 29.5482 37.9252 29.472 37.9252 29.3958C37.9252 29.3577 37.9633 29.3006 38.0395 29.2244C38.3062 28.9577 38.5729 28.672 38.8395 28.3672L40.211 26.9957C40.5539 26.6529 40.7443 26.31 40.7824 25.9671C40.8967 25.3957 41.0491 24.5576 41.2396 23.4528C41.4301 22.3099 41.6396 21.1099 41.8682 19.8527C42.0968 18.5955 42.3253 17.3764 42.5539 16.1955C42.7825 14.9764 42.9539 14.024 43.0682 13.3382C43.1825 12.6906 42.992 12.1192 42.4968 11.6239C42.3063 11.3953 42.0968 11.1858 41.8682 10.9953C41.792 10.881 41.6968 10.7858 41.5825 10.7096C41.4682 10.5953 41.4491 10.481 41.5253 10.3667C41.6015 10.2525 41.6968 10.1953 41.811 10.1953H53.4685C53.6209 10.1953 53.7161 10.2525 53.7542 10.3667C53.8304 10.481 53.8113 10.5953 53.6971 10.7096L52.6113 11.7954C52.1542 12.2525 51.9827 12.8239 52.097 13.5097C52.2113 14.1954 52.3637 15.1288 52.5542 16.3098C52.7827 17.4907 53.0113 18.7098 53.2399 19.967C53.4685 21.2242 53.678 22.4051 53.8685 23.5099C54.059 24.6147 54.2114 25.4338 54.3256 25.9671C54.3637 26.31 54.5542 26.6529 54.8971 26.9957C55.0876 27.1862 55.2971 27.4148 55.5257 27.6815C55.7923 27.91 56.04 28.1386 56.2685 28.3672C56.5352 28.672 56.8019 28.9577 57.0686 29.2244C57.1448 29.3006 57.1829 29.3577 57.1829 29.3958C57.1829 29.472 57.1448 29.5482 57.0686 29.6244L56.04 30.653C55.5447 31.1482 55.3542 31.7197 55.4685 32.3673C55.5828 33.0911 55.7542 34.0816 55.9828 35.3388C56.2114 36.5579 56.44 37.8341 56.6686 39.1675C56.9352 40.4627 57.1638 41.7009 57.3543 42.8818C57.5829 44.0247 57.7543 44.8819 57.8686 45.4533C57.9448 45.8343 58.1162 46.1772 58.3829 46.4819L59.9829 48.082ZM49.7541 32.7102C49.8684 32.5959 49.9065 32.4625 49.8684 32.3102C49.7922 31.7768 49.6589 30.9387 49.4684 29.7958C49.2779 28.6148 49.0684 27.3576 48.8398 26.0243C48.6493 24.6909 48.4398 23.3956 48.2112 22.1385C48.0207 20.8432 47.8683 19.8146 47.754 19.0527C47.754 18.9384 47.6969 18.8812 47.5826 18.8812C47.4302 18.8812 47.354 18.9384 47.354 19.0527C47.2397 19.8146 47.0683 20.8432 46.8397 22.1385C46.6493 23.3956 46.4397 24.6909 46.2112 26.0243C46.0207 27.3576 45.8302 28.6148 45.6397 29.7958C45.4492 30.9387 45.3159 31.7768 45.2397 32.3102C45.2016 32.4625 45.2397 32.5959 45.354 32.7102C45.4302 32.8245 45.5445 32.8816 45.6969 32.8816H49.4112C49.6017 32.8816 49.716 32.8245 49.7541 32.7102Z"/>
<path d="M83.3849 48.082C83.4611 48.2344 83.4801 48.3487 83.442 48.4248C83.4039 48.5391 83.3087 48.5963 83.1563 48.5963H74.2989C74.2227 48.5963 74.1465 48.5391 74.0703 48.4248C73.9941 48.3106 74.0132 48.1963 74.1275 48.082L74.8132 47.3962C75.3847 46.8248 75.537 46.1581 75.2704 45.3962C75.0418 44.7486 74.737 43.9104 74.3561 42.8818C74.0132 41.8533 73.6322 40.7104 73.2132 39.4532C72.7941 38.196 72.337 36.9007 71.8417 35.5674C71.3846 34.234 70.9464 32.9578 70.5274 31.7387C70.1083 30.5196 69.7274 29.3958 69.3845 28.3672C69.0416 27.3386 68.7559 26.5195 68.5273 25.91C68.4892 25.7957 68.413 25.7386 68.2988 25.7386C68.1845 25.7767 68.1273 25.8528 68.1273 25.9671V45.5676C68.1273 46.0248 68.3178 46.4819 68.6988 46.9391L69.8417 48.082C69.9179 48.1582 69.9559 48.2725 69.9559 48.4248C69.9179 48.5391 69.8226 48.5963 69.6702 48.5963H60.8129C60.6986 48.5963 60.6033 48.5391 60.5271 48.4248C60.5271 48.2725 60.5652 48.1582 60.6414 48.082C60.7557 47.9677 60.889 47.8344 61.0414 47.682C61.1557 47.5677 61.27 47.4343 61.3843 47.282C61.5367 47.1296 61.67 46.9962 61.7843 46.882C62.1653 46.5391 62.3558 46.0819 62.3558 45.5105V32.1959C62.3558 31.6244 62.1653 31.1482 61.7843 30.7673L60.6414 29.6244C60.5652 29.5482 60.5271 29.472 60.5271 29.3958C60.5271 29.3196 60.5652 29.2434 60.6414 29.1672L61.7843 28.0243C62.1653 27.6434 62.3558 27.1672 62.3558 26.5957V13.2811C62.3558 12.7097 62.1653 12.2525 61.7843 11.9096C61.67 11.7573 61.5367 11.6239 61.3843 11.5096C61.27 11.3572 61.1557 11.2239 61.0414 11.1096C60.889 10.9572 60.7557 10.8239 60.6414 10.7096C60.5652 10.6334 60.5271 10.5191 60.5271 10.3667C60.6033 10.2525 60.6986 10.1953 60.8129 10.1953H69.6702C69.8226 10.1953 69.9179 10.2525 69.9559 10.3667C69.9559 10.5191 69.9179 10.6334 69.8417 10.7096L69.7274 10.8239C69.1559 11.3953 69.0035 12.062 69.2702 12.824C69.4607 13.4335 69.7274 14.2526 70.0702 15.2812C70.4131 16.3098 70.775 17.4336 71.156 18.6527C71.5369 19.8717 71.9369 21.148 72.356 22.4813C72.8132 23.8147 73.2322 25.0909 73.6132 26.31C73.9941 27.5291 74.3561 28.672 74.6989 29.7387C75.0418 30.7673 75.3085 31.5863 75.4989 32.1959C75.5751 32.3102 75.6513 32.3673 75.7275 32.3673C75.8418 32.253 75.8989 32.1768 75.8989 32.1387V13.2811C75.8989 12.7478 75.7085 12.2906 75.3275 11.9096L74.1275 10.7096C74.0132 10.5953 73.9941 10.481 74.0703 10.3667C74.1465 10.2525 74.2227 10.1953 74.2989 10.1953H83.1563C83.3087 10.1953 83.4039 10.2525 83.442 10.3667C83.4801 10.4429 83.4611 10.5572 83.3849 10.7096C83.2706 10.8239 83.1372 10.9572 82.9848 11.1096C82.8706 11.1858 82.7372 11.3001 82.5848 11.4525C82.4706 11.5668 82.3372 11.7001 82.1848 11.8525C81.8039 12.3096 81.6134 12.7668 81.6134 13.224V26.6529C81.6134 27.1862 81.8039 27.6434 82.1848 28.0243C82.3372 28.1386 82.4706 28.272 82.5848 28.4243C82.7372 28.5386 82.8706 28.6529 82.9848 28.7672C83.1372 28.9196 83.2706 29.0529 83.3849 29.1672C83.423 29.2053 83.442 29.2815 83.442 29.3958C83.442 29.5101 83.423 29.5863 83.3849 29.6244C83.2706 29.7387 83.1372 29.872 82.9848 30.0244C82.8706 30.1006 82.7372 30.2149 82.5848 30.3672C82.4706 30.4815 82.3372 30.6149 82.1848 30.7673C81.8039 31.1482 81.6134 31.6054 81.6134 32.1387V45.5676C81.6134 46.0248 81.8039 46.4819 82.1848 46.9391L83.3849 48.082Z"/>
<path d="M102.493 10.3667C102.569 10.4429 102.607 10.5572 102.607 10.7096V17.3955C102.607 17.5098 102.55 17.605 102.436 17.6812C102.36 17.7193 102.245 17.7003 102.093 17.6241C101.941 17.4717 101.807 17.3193 101.693 17.1669C101.579 17.0526 101.445 16.9193 101.293 16.7669C101.141 16.6145 100.988 16.4812 100.836 16.3669C100.493 15.9859 100.036 15.7955 99.4643 15.7955H96.7785C96.4356 15.7955 96.2642 15.9478 96.2642 16.2526V26.6529C96.2642 27.1862 96.4547 27.6434 96.8356 28.0243L98.0357 29.2244C98.1119 29.3006 98.15 29.3577 98.15 29.3958C98.15 29.472 98.1119 29.5482 98.0357 29.6244C97.9214 29.7387 97.788 29.872 97.6357 30.0244C97.5214 30.1387 97.388 30.272 97.2356 30.4244C97.1214 30.5387 96.988 30.653 96.8356 30.7673C96.4547 31.2244 96.2642 31.7006 96.2642 32.1959V45.5676C96.2642 46.0248 96.4547 46.4819 96.8356 46.9391C96.988 47.0534 97.1214 47.1867 97.2356 47.3391C97.388 47.4534 97.5214 47.5677 97.6357 47.682C97.788 47.8344 97.9214 47.9677 98.0357 48.082C98.15 48.1963 98.169 48.3106 98.0928 48.4248C98.0547 48.5391 97.9595 48.5963 97.8071 48.5963H89.0069C88.8926 48.5963 88.7973 48.5391 88.7211 48.4248C88.6831 48.3487 88.7021 48.2344 88.7783 48.082C88.8926 47.9677 89.0259 47.8344 89.1783 47.682C89.2926 47.5677 89.4259 47.4534 89.5783 47.3391C89.7307 47.1867 89.864 47.0534 89.9783 46.9391C90.3593 46.4819 90.5498 46.0248 90.5498 45.5676V32.1959C90.5498 31.7006 90.3593 31.2244 89.9783 30.7673C89.864 30.653 89.7307 30.5387 89.5783 30.4244C89.4259 30.272 89.2926 30.1387 89.1783 30.0244C89.0259 29.872 88.8926 29.7387 88.7783 29.6244C88.7402 29.5863 88.7211 29.5101 88.7211 29.3958C88.7211 29.3196 88.7402 29.2625 88.7783 29.2244L89.9783 28.0243C90.3593 27.6434 90.5498 27.1862 90.5498 26.6529V16.2526C90.5498 15.9478 90.3783 15.7955 90.0355 15.7955H87.3497C86.7782 15.7955 86.3211 15.9859 85.9782 16.3669C85.8258 16.4812 85.6734 16.6145 85.5211 16.7669C85.4068 16.9193 85.2734 17.0526 85.1211 17.1669C85.0068 17.3193 84.8734 17.4717 84.721 17.6241C84.5687 17.7003 84.4544 17.7193 84.3782 17.6812C84.2639 17.605 84.2067 17.5098 84.2067 17.3955V10.7096C84.2067 10.3667 84.3782 10.1953 84.721 10.1953H102.15C102.264 10.1953 102.379 10.2525 102.493 10.3667Z"/>
<path d="M111.47 15.7955C111.128 15.7955 110.956 15.9478 110.956 16.2526V26.1386C110.956 26.4433 111.128 26.5957 111.47 26.5957H116.385C116.918 26.5957 117.375 26.4052 117.756 26.0243C117.909 25.8719 118.061 25.7386 118.213 25.6243C118.366 25.4719 118.499 25.3385 118.613 25.2243C118.728 25.0719 118.861 24.9195 119.013 24.7671C119.166 24.6909 119.28 24.6719 119.356 24.71C119.471 24.7481 119.528 24.8433 119.528 24.9957V33.8531C119.528 33.9292 119.471 34.0054 119.356 34.0816C119.242 34.1578 119.128 34.1388 119.013 34.0245L117.699 32.7102C117.318 32.3292 116.861 32.1387 116.328 32.1387H111.47C111.318 32.1387 111.204 32.1959 111.128 32.3102C111.013 32.3482 110.956 32.4625 110.956 32.653V42.539C110.956 42.6914 111.013 42.8057 111.128 42.8818C111.204 42.9961 111.318 43.0533 111.47 43.0533H118.442C118.937 43.0533 119.413 42.8628 119.871 42.4818C120.023 42.3295 120.156 42.1771 120.271 42.0247C120.423 41.8723 120.575 41.739 120.728 41.6247C120.88 41.4723 121.033 41.3199 121.185 41.1675C121.223 41.0532 121.318 41.0342 121.471 41.1104C121.585 41.1485 121.642 41.2437 121.642 41.3961V48.1391C121.642 48.4439 121.49 48.5963 121.185 48.5963H103.642C103.527 48.5963 103.432 48.5391 103.356 48.4248C103.356 48.2725 103.394 48.1582 103.47 48.082L104.67 46.882C105.051 46.501 105.242 46.0438 105.242 45.5105V32.1959C105.242 31.6625 105.051 31.2054 104.67 30.8244L103.47 29.6244C103.394 29.5482 103.356 29.472 103.356 29.3958C103.356 29.3577 103.394 29.3006 103.47 29.2244L104.67 28.0243C105.051 27.5672 105.242 27.091 105.242 26.5957V13.2811C105.242 12.7478 105.051 12.2906 104.67 11.9096L103.47 10.7096C103.394 10.6715 103.356 10.5572 103.356 10.3667C103.432 10.2525 103.527 10.1953 103.642 10.1953H121.185C121.49 10.1953 121.642 10.3667 121.642 10.7096V17.3955C121.642 17.5098 121.585 17.605 121.471 17.6812C121.356 17.7193 121.261 17.7003 121.185 17.6241C121.033 17.4717 120.88 17.3193 120.728 17.1669C120.613 17.0526 120.48 16.9193 120.328 16.7669C120.175 16.6145 120.023 16.4812 119.871 16.3669C119.528 15.9859 119.071 15.7955 118.499 15.7955H111.47Z"/>
<path d="M145.543 29.2244C145.619 29.3006 145.657 29.3577 145.657 29.3958C145.657 29.472 145.619 29.5482 145.543 29.6244L144.4 30.7673C144.019 31.1482 143.829 31.6244 143.829 32.1959V40.4818C143.829 42.0056 143.543 43.3581 142.972 44.539C142.743 45.0343 142.438 45.5295 142.057 46.0248C141.714 46.52 141.257 46.9581 140.686 47.3391C140.153 47.7201 139.505 48.0248 138.743 48.2534C138.019 48.482 137.143 48.5963 136.114 48.5963H123.828C123.714 48.5963 123.619 48.5391 123.543 48.4248C123.543 48.2725 123.581 48.1582 123.657 48.082L124.8 46.9391C125.181 46.5581 125.371 46.101 125.371 45.5676V32.1959C125.371 31.6244 125.181 31.1482 124.8 30.7673L124.057 30.0244C123.904 29.872 123.771 29.7387 123.657 29.6244C123.581 29.5482 123.543 29.472 123.543 29.3958C123.543 29.3577 123.581 29.3006 123.657 29.2244C123.771 29.1101 123.904 28.9767 124.057 28.8244C124.171 28.7101 124.285 28.5767 124.4 28.4243C124.552 28.272 124.685 28.1386 124.8 28.0243C125.181 27.6815 125.371 27.2243 125.371 26.6529V13.2811C125.371 12.7097 125.181 12.2525 124.8 11.9096C124.685 11.7573 124.552 11.6239 124.4 11.5096C124.285 11.3572 124.171 11.2239 124.057 11.1096C123.904 10.9572 123.771 10.8239 123.657 10.7096C123.581 10.6715 123.543 10.5572 123.543 10.3667C123.657 10.2525 123.752 10.1953 123.828 10.1953H136.114C138.133 10.1953 139.657 10.6144 140.686 11.4525C141.753 12.2906 142.514 13.224 142.972 14.2526C143.543 15.4335 143.829 16.786 143.829 18.3098V26.6529C143.829 27.2243 144.019 27.6815 144.4 28.0243C144.515 28.1386 144.629 28.272 144.743 28.4243C144.895 28.5767 145.029 28.7101 145.143 28.8244C145.295 28.9767 145.429 29.1101 145.543 29.2244ZM138.057 17.8526C138.057 17.3955 137.981 17.0336 137.829 16.7669C137.676 16.4621 137.486 16.2526 137.257 16.1383C137.067 15.9859 136.857 15.8907 136.629 15.8526C136.4 15.8145 136.19 15.7955 136 15.7955H131.6C131.448 15.7955 131.333 15.8335 131.257 15.9097C131.181 16.0621 131.143 16.1764 131.143 16.2526V42.539C131.143 42.6914 131.181 42.8057 131.257 42.8818C131.371 42.9961 131.486 43.0533 131.6 43.0533H136C136.381 43.0533 136.819 42.939 137.314 42.7104C137.81 42.4818 138.057 41.8913 138.057 40.9389V17.8526Z"/>
</mask>
<path d="M37.681 10.3667C37.681 10.5572 37.662 10.6715 37.6239 10.7096C37.4715 10.862 37.3191 11.0144 37.1667 11.1668C37.0143 11.2811 36.862 11.4144 36.7096 11.5668C36.5953 11.7192 36.462 11.8525 36.3096 11.9668C36.0429 12.2716 35.8524 12.6335 35.7381 13.0525C35.6619 13.624 35.5286 14.5192 35.3381 15.7383C35.1476 16.9193 34.9381 18.1765 34.7095 19.5098C34.519 20.8432 34.3286 22.1385 34.1381 23.3956C33.9476 24.6147 33.7952 25.5862 33.6809 26.31C33.5666 26.9195 33.7571 27.4719 34.2524 27.9672C34.4048 28.1196 34.5381 28.272 34.6524 28.4243C34.8048 28.5386 34.9381 28.672 35.0524 28.8244C35.2048 28.9386 35.3381 29.072 35.4524 29.2244C35.5286 29.3006 35.5667 29.3577 35.5667 29.3958C35.5667 29.472 35.5286 29.5482 35.4524 29.6244L33.1666 31.9101C32.9 32.1768 32.7285 32.5387 32.6523 32.9959C32.5761 33.5673 32.4428 34.4054 32.2523 35.5102C32.0999 36.615 31.9095 37.796 31.6809 39.0532C31.4904 40.2723 31.2999 41.4723 31.1094 42.6533C30.919 43.7962 30.7666 44.7105 30.6523 45.3962C30.5761 46.0819 30.7666 46.6534 31.2237 47.1105L32.1952 48.082C32.2714 48.1582 32.3095 48.2725 32.3095 48.4248C32.2714 48.5391 32.1761 48.5963 32.0237 48.5963H23.1664C23.0521 48.5963 22.9568 48.5391 22.8807 48.4248C22.8807 48.2725 22.9188 48.1582 22.9949 48.082L23.5664 47.5105C24.0235 47.0534 24.195 46.52 24.0807 45.9105C24.0045 45.301 23.9093 44.4819 23.795 43.4533C23.6807 42.4247 23.5473 41.2628 23.395 39.9675C23.2807 38.6722 23.1283 37.3198 22.9378 35.9102C22.7854 34.4626 22.633 33.0721 22.4806 31.7387C22.3664 30.3672 22.233 29.091 22.0806 27.91C21.9282 26.7291 21.814 25.7386 21.7378 24.9385C21.7378 24.8243 21.6806 24.7671 21.5663 24.7671C21.452 24.7671 21.3949 24.8243 21.3949 24.9385C21.3187 25.7005 21.2044 26.6719 21.052 27.8529C20.9377 29.0339 20.8044 30.2911 20.652 31.6244C20.4996 32.9578 20.3473 34.3483 20.1949 35.796C20.0425 37.2055 19.8901 38.5389 19.7377 39.7961C19.6234 41.0532 19.5091 42.2152 19.3949 43.2819C19.2806 44.3105 19.1853 45.1105 19.1091 45.6819C19.071 46.2915 19.2615 46.8248 19.6806 47.282L20.4806 48.082C20.5568 48.2344 20.5758 48.3487 20.5377 48.4248C20.4996 48.5391 20.4044 48.5963 20.252 48.5963H11.4518C11.3375 48.5963 11.2423 48.5391 11.1661 48.4248C11.128 48.3487 11.147 48.2344 11.2232 48.082C11.2994 48.0058 11.3756 47.9296 11.4518 47.8534C11.528 47.7772 11.6232 47.701 11.7375 47.6248C11.8518 47.5105 11.947 47.4153 12.0232 47.3391C12.4804 46.8058 12.6518 46.2343 12.5375 45.6248C12.4232 44.939 12.2709 44.0057 12.0804 42.8247C11.928 41.6056 11.7375 40.3675 11.5089 39.1103C11.3185 37.8531 11.128 36.6722 10.9375 35.5674C10.7851 34.4245 10.6518 33.5673 10.5375 32.9959C10.4613 32.5387 10.2899 32.1768 10.0232 31.9101L7.73742 29.6244C7.66122 29.5482 7.62313 29.472 7.62313 29.3958C7.62313 29.3577 7.66122 29.3006 7.73742 29.2244C7.85171 29.072 7.98504 28.9386 8.13743 28.8244C8.25172 28.672 8.38505 28.5386 8.53744 28.4243C8.68982 28.272 8.82316 28.1196 8.93745 27.9672C9.4327 27.4719 9.62318 26.9195 9.50889 26.31C9.3946 25.5862 9.24222 24.6147 9.05174 23.3956C8.86125 22.1385 8.65173 20.8432 8.42315 19.5098C8.23267 18.1765 8.04219 16.9193 7.85171 15.7383C7.66122 14.5192 7.52789 13.624 7.4517 13.0525C7.33741 12.6335 7.14693 12.2716 6.88025 11.9668L6.08023 11.1668C5.92785 11.0144 5.77546 10.862 5.62308 10.7096C5.54689 10.6715 5.50879 10.5572 5.50879 10.3667C5.62308 10.2525 5.71832 10.1953 5.79451 10.1953H14.6519C14.7281 10.1953 14.8233 10.2525 14.9376 10.3667C14.9376 10.5572 14.8995 10.6715 14.8233 10.7096C14.709 10.8239 14.5947 10.9382 14.4804 11.0525C14.4043 11.1287 14.309 11.243 14.1947 11.3953C14.0804 11.5096 13.9471 11.6239 13.7947 11.7382C13.3757 12.2335 13.1852 12.7859 13.2233 13.3954C13.2995 13.9668 13.3947 14.7669 13.509 15.7955C13.6614 16.8241 13.8138 17.9669 13.9661 19.2241C14.1185 20.4813 14.2709 21.8147 14.4233 23.2242C14.6138 24.5957 14.7852 25.9481 14.9376 27.2815C15.09 28.5767 15.2233 29.7958 15.3376 30.9387C15.49 32.0435 15.6043 32.9768 15.6805 33.7388C15.6805 33.8531 15.7376 33.9102 15.8519 33.9102C16.0043 33.9102 16.0805 33.8531 16.0805 33.7388C16.1948 32.5959 16.3662 31.072 16.5948 29.1672C16.8234 27.2243 17.0519 25.2243 17.2805 23.1671C17.5472 21.1099 17.7948 19.186 18.0234 17.3955C18.252 15.5669 18.4234 14.2145 18.5377 13.3382C18.5758 12.7287 18.3853 12.1763 17.9662 11.6811L16.9948 10.7096C16.9186 10.6715 16.8805 10.5572 16.8805 10.3667C16.9948 10.2525 17.09 10.1953 17.1662 10.1953H26.0236C26.0998 10.1953 26.195 10.2525 26.3093 10.3667C26.3093 10.5572 26.2903 10.6715 26.2522 10.7096C26.1379 10.8239 26.0236 10.9191 25.9093 10.9953C25.8331 11.1096 25.7188 11.2239 25.5664 11.3382C25.4521 11.4525 25.3379 11.5668 25.2236 11.6811C24.8045 12.1763 24.614 12.7287 24.6521 13.3382C24.7664 14.2145 24.9378 15.5669 25.1664 17.3955C25.395 19.186 25.6236 21.1099 25.8522 23.1671C26.1188 25.2243 26.3665 27.2243 26.595 29.1672C26.8236 31.072 26.995 32.5959 27.1093 33.7388C27.1093 33.8531 27.1855 33.9102 27.3379 33.9102C27.4522 33.9102 27.5093 33.8531 27.5093 33.7388C27.5855 32.9768 27.6808 32.0435 27.7951 30.9387C27.9475 29.7958 28.0998 28.5767 28.2522 27.2815C28.4046 25.9481 28.557 24.5957 28.7094 23.2242C28.8999 21.8147 29.0713 20.4813 29.2237 19.2241C29.3761 17.9669 29.5094 16.8241 29.6237 15.7955C29.7761 14.7669 29.8904 13.9668 29.9665 13.3954C30.0046 12.7859 29.8142 12.2335 29.3951 11.7382L28.7094 11.0525C28.5951 10.9382 28.4808 10.8239 28.3665 10.7096C28.2522 10.6334 28.2332 10.5191 28.3094 10.3667C28.3094 10.2525 28.3856 10.1953 28.5379 10.1953H37.3953C37.4715 10.1953 37.5667 10.2525 37.681 10.3667Z" fill="#E6E6E6"/>
<path d="M59.9829 48.082C60.0591 48.1582 60.0972 48.2725 60.0972 48.4248C60.0591 48.5391 59.9639 48.5963 59.8115 48.5963H50.9541C50.8398 48.5963 50.7446 48.5391 50.6684 48.4248C50.6684 48.2725 50.7065 48.1582 50.7827 48.082L51.4684 47.3962C51.9637 46.901 52.1542 46.3296 52.0399 45.6819C51.9637 45.2248 51.8684 44.6724 51.7542 44.0247C51.678 43.3771 51.5827 42.7295 51.4684 42.0818C51.3541 41.3961 51.2398 40.7675 51.1256 40.1961C51.0494 39.6246 50.9922 39.1865 50.9541 38.8817C50.8779 38.577 50.7065 38.4246 50.4398 38.4246H44.6683C44.4016 38.4246 44.2301 38.577 44.154 38.8817C44.1159 39.1865 44.0397 39.6246 43.9254 40.1961C43.8492 40.7675 43.7539 41.3961 43.6397 42.0818C43.5254 42.7295 43.4111 43.3771 43.2968 44.0247C43.2206 44.6724 43.1444 45.2248 43.0682 45.6819C42.9539 46.3296 43.1444 46.901 43.6397 47.3962C43.8682 47.6248 44.0397 47.7772 44.154 47.8534C44.2301 47.9296 44.3063 48.0058 44.3825 48.082C44.4206 48.1582 44.4397 48.2725 44.4397 48.4248C44.4016 48.5391 44.3063 48.5963 44.154 48.5963H35.2966C35.1823 48.5963 35.0871 48.5391 35.0109 48.4248C35.0109 48.2725 35.049 48.1582 35.1252 48.082L36.7252 46.4819C36.9919 46.2153 37.1824 45.8724 37.2966 45.4533C37.4109 44.8819 37.5633 44.0247 37.7538 42.8818C37.9824 41.7009 38.2109 40.4627 38.4395 39.1675C38.6681 37.8341 38.8967 36.5579 39.1253 35.3388C39.3538 34.0816 39.5253 33.0911 39.6396 32.3673C39.7538 31.7197 39.5634 31.1482 39.0681 30.653L38.0395 29.6244C37.9633 29.5482 37.9252 29.472 37.9252 29.3958C37.9252 29.3577 37.9633 29.3006 38.0395 29.2244C38.3062 28.9577 38.5729 28.672 38.8395 28.3672L40.211 26.9957C40.5539 26.6529 40.7443 26.31 40.7824 25.9671C40.8967 25.3957 41.0491 24.5576 41.2396 23.4528C41.4301 22.3099 41.6396 21.1099 41.8682 19.8527C42.0968 18.5955 42.3253 17.3764 42.5539 16.1955C42.7825 14.9764 42.9539 14.024 43.0682 13.3382C43.1825 12.6906 42.992 12.1192 42.4968 11.6239C42.3063 11.3953 42.0968 11.1858 41.8682 10.9953C41.792 10.881 41.6968 10.7858 41.5825 10.7096C41.4682 10.5953 41.4491 10.481 41.5253 10.3667C41.6015 10.2525 41.6968 10.1953 41.811 10.1953H53.4685C53.6209 10.1953 53.7161 10.2525 53.7542 10.3667C53.8304 10.481 53.8113 10.5953 53.6971 10.7096L52.6113 11.7954C52.1542 12.2525 51.9827 12.8239 52.097 13.5097C52.2113 14.1954 52.3637 15.1288 52.5542 16.3098C52.7827 17.4907 53.0113 18.7098 53.2399 19.967C53.4685 21.2242 53.678 22.4051 53.8685 23.5099C54.059 24.6147 54.2114 25.4338 54.3256 25.9671C54.3637 26.31 54.5542 26.6529 54.8971 26.9957C55.0876 27.1862 55.2971 27.4148 55.5257 27.6815C55.7923 27.91 56.04 28.1386 56.2685 28.3672C56.5352 28.672 56.8019 28.9577 57.0686 29.2244C57.1448 29.3006 57.1829 29.3577 57.1829 29.3958C57.1829 29.472 57.1448 29.5482 57.0686 29.6244L56.04 30.653C55.5447 31.1482 55.3542 31.7197 55.4685 32.3673C55.5828 33.0911 55.7542 34.0816 55.9828 35.3388C56.2114 36.5579 56.44 37.8341 56.6686 39.1675C56.9352 40.4627 57.1638 41.7009 57.3543 42.8818C57.5829 44.0247 57.7543 44.8819 57.8686 45.4533C57.9448 45.8343 58.1162 46.1772 58.3829 46.4819L59.9829 48.082ZM49.7541 32.7102C49.8684 32.5959 49.9065 32.4625 49.8684 32.3102C49.7922 31.7768 49.6589 30.9387 49.4684 29.7958C49.2779 28.6148 49.0684 27.3576 48.8398 26.0243C48.6493 24.6909 48.4398 23.3956 48.2112 22.1385C48.0207 20.8432 47.8683 19.8146 47.754 19.0527C47.754 18.9384 47.6969 18.8812 47.5826 18.8812C47.4302 18.8812 47.354 18.9384 47.354 19.0527C47.2397 19.8146 47.0683 20.8432 46.8397 22.1385C46.6493 23.3956 46.4397 24.6909 46.2112 26.0243C46.0207 27.3576 45.8302 28.6148 45.6397 29.7958C45.4492 30.9387 45.3159 31.7768 45.2397 32.3102C45.2016 32.4625 45.2397 32.5959 45.354 32.7102C45.4302 32.8245 45.5445 32.8816 45.6969 32.8816H49.4112C49.6017 32.8816 49.716 32.8245 49.7541 32.7102Z" fill="#E6E6E6"/>
<path d="M83.3849 48.082C83.4611 48.2344 83.4801 48.3487 83.442 48.4248C83.4039 48.5391 83.3087 48.5963 83.1563 48.5963H74.2989C74.2227 48.5963 74.1465 48.5391 74.0703 48.4248C73.9941 48.3106 74.0132 48.1963 74.1275 48.082L74.8132 47.3962C75.3847 46.8248 75.537 46.1581 75.2704 45.3962C75.0418 44.7486 74.737 43.9104 74.3561 42.8818C74.0132 41.8533 73.6322 40.7104 73.2132 39.4532C72.7941 38.196 72.337 36.9007 71.8417 35.5674C71.3846 34.234 70.9464 32.9578 70.5274 31.7387C70.1083 30.5196 69.7274 29.3958 69.3845 28.3672C69.0416 27.3386 68.7559 26.5195 68.5273 25.91C68.4892 25.7957 68.413 25.7386 68.2988 25.7386C68.1845 25.7767 68.1273 25.8528 68.1273 25.9671V45.5676C68.1273 46.0248 68.3178 46.4819 68.6988 46.9391L69.8417 48.082C69.9179 48.1582 69.9559 48.2725 69.9559 48.4248C69.9179 48.5391 69.8226 48.5963 69.6702 48.5963H60.8129C60.6986 48.5963 60.6033 48.5391 60.5271 48.4248C60.5271 48.2725 60.5652 48.1582 60.6414 48.082C60.7557 47.9677 60.889 47.8344 61.0414 47.682C61.1557 47.5677 61.27 47.4343 61.3843 47.282C61.5367 47.1296 61.67 46.9962 61.7843 46.882C62.1653 46.5391 62.3558 46.0819 62.3558 45.5105V32.1959C62.3558 31.6244 62.1653 31.1482 61.7843 30.7673L60.6414 29.6244C60.5652 29.5482 60.5271 29.472 60.5271 29.3958C60.5271 29.3196 60.5652 29.2434 60.6414 29.1672L61.7843 28.0243C62.1653 27.6434 62.3558 27.1672 62.3558 26.5957V13.2811C62.3558 12.7097 62.1653 12.2525 61.7843 11.9096C61.67 11.7573 61.5367 11.6239 61.3843 11.5096C61.27 11.3572 61.1557 11.2239 61.0414 11.1096C60.889 10.9572 60.7557 10.8239 60.6414 10.7096C60.5652 10.6334 60.5271 10.5191 60.5271 10.3667C60.6033 10.2525 60.6986 10.1953 60.8129 10.1953H69.6702C69.8226 10.1953 69.9179 10.2525 69.9559 10.3667C69.9559 10.5191 69.9179 10.6334 69.8417 10.7096L69.7274 10.8239C69.1559 11.3953 69.0035 12.062 69.2702 12.824C69.4607 13.4335 69.7274 14.2526 70.0702 15.2812C70.4131 16.3098 70.775 17.4336 71.156 18.6527C71.5369 19.8717 71.9369 21.148 72.356 22.4813C72.8132 23.8147 73.2322 25.0909 73.6132 26.31C73.9941 27.5291 74.3561 28.672 74.6989 29.7387C75.0418 30.7673 75.3085 31.5863 75.4989 32.1959C75.5751 32.3102 75.6513 32.3673 75.7275 32.3673C75.8418 32.253 75.8989 32.1768 75.8989 32.1387V13.2811C75.8989 12.7478 75.7085 12.2906 75.3275 11.9096L74.1275 10.7096C74.0132 10.5953 73.9941 10.481 74.0703 10.3667C74.1465 10.2525 74.2227 10.1953 74.2989 10.1953H83.1563C83.3087 10.1953 83.4039 10.2525 83.442 10.3667C83.4801 10.4429 83.4611 10.5572 83.3849 10.7096C83.2706 10.8239 83.1372 10.9572 82.9848 11.1096C82.8706 11.1858 82.7372 11.3001 82.5848 11.4525C82.4706 11.5668 82.3372 11.7001 82.1848 11.8525C81.8039 12.3096 81.6134 12.7668 81.6134 13.224V26.6529C81.6134 27.1862 81.8039 27.6434 82.1848 28.0243C82.3372 28.1386 82.4706 28.272 82.5848 28.4243C82.7372 28.5386 82.8706 28.6529 82.9848 28.7672C83.1372 28.9196 83.2706 29.0529 83.3849 29.1672C83.423 29.2053 83.442 29.2815 83.442 29.3958C83.442 29.5101 83.423 29.5863 83.3849 29.6244C83.2706 29.7387 83.1372 29.872 82.9848 30.0244C82.8706 30.1006 82.7372 30.2149 82.5848 30.3672C82.4706 30.4815 82.3372 30.6149 82.1848 30.7673C81.8039 31.1482 81.6134 31.6054 81.6134 32.1387V45.5676C81.6134 46.0248 81.8039 46.4819 82.1848 46.9391L83.3849 48.082Z" fill="#E6E6E6"/>
<path d="M102.493 10.3667C102.569 10.4429 102.607 10.5572 102.607 10.7096V17.3955C102.607 17.5098 102.55 17.605 102.436 17.6812C102.36 17.7193 102.245 17.7003 102.093 17.6241C101.941 17.4717 101.807 17.3193 101.693 17.1669C101.579 17.0526 101.445 16.9193 101.293 16.7669C101.141 16.6145 100.988 16.4812 100.836 16.3669C100.493 15.9859 100.036 15.7955 99.4643 15.7955H96.7785C96.4356 15.7955 96.2642 15.9478 96.2642 16.2526V26.6529C96.2642 27.1862 96.4547 27.6434 96.8356 28.0243L98.0357 29.2244C98.1119 29.3006 98.15 29.3577 98.15 29.3958C98.15 29.472 98.1119 29.5482 98.0357 29.6244C97.9214 29.7387 97.788 29.872 97.6357 30.0244C97.5214 30.1387 97.388 30.272 97.2356 30.4244C97.1214 30.5387 96.988 30.653 96.8356 30.7673C96.4547 31.2244 96.2642 31.7006 96.2642 32.1959V45.5676C96.2642 46.0248 96.4547 46.4819 96.8356 46.9391C96.988 47.0534 97.1214 47.1867 97.2356 47.3391C97.388 47.4534 97.5214 47.5677 97.6357 47.682C97.788 47.8344 97.9214 47.9677 98.0357 48.082C98.15 48.1963 98.169 48.3106 98.0928 48.4248C98.0547 48.5391 97.9595 48.5963 97.8071 48.5963H89.0069C88.8926 48.5963 88.7973 48.5391 88.7211 48.4248C88.6831 48.3487 88.7021 48.2344 88.7783 48.082C88.8926 47.9677 89.0259 47.8344 89.1783 47.682C89.2926 47.5677 89.4259 47.4534 89.5783 47.3391C89.7307 47.1867 89.864 47.0534 89.9783 46.9391C90.3593 46.4819 90.5498 46.0248 90.5498 45.5676V32.1959C90.5498 31.7006 90.3593 31.2244 89.9783 30.7673C89.864 30.653 89.7307 30.5387 89.5783 30.4244C89.4259 30.272 89.2926 30.1387 89.1783 30.0244C89.0259 29.872 88.8926 29.7387 88.7783 29.6244C88.7402 29.5863 88.7211 29.5101 88.7211 29.3958C88.7211 29.3196 88.7402 29.2625 88.7783 29.2244L89.9783 28.0243C90.3593 27.6434 90.5498 27.1862 90.5498 26.6529V16.2526C90.5498 15.9478 90.3783 15.7955 90.0355 15.7955H87.3497C86.7782 15.7955 86.3211 15.9859 85.9782 16.3669C85.8258 16.4812 85.6734 16.6145 85.5211 16.7669C85.4068 16.9193 85.2734 17.0526 85.1211 17.1669C85.0068 17.3193 84.8734 17.4717 84.721 17.6241C84.5687 17.7003 84.4544 17.7193 84.3782 17.6812C84.2639 17.605 84.2067 17.5098 84.2067 17.3955V10.7096C84.2067 10.3667 84.3782 10.1953 84.721 10.1953H102.15C102.264 10.1953 102.379 10.2525 102.493 10.3667Z" fill="#E6E6E6"/>
<path d="M111.47 15.7955C111.128 15.7955 110.956 15.9478 110.956 16.2526V26.1386C110.956 26.4433 111.128 26.5957 111.47 26.5957H116.385C116.918 26.5957 117.375 26.4052 117.756 26.0243C117.909 25.8719 118.061 25.7386 118.213 25.6243C118.366 25.4719 118.499 25.3385 118.613 25.2243C118.728 25.0719 118.861 24.9195 119.013 24.7671C119.166 24.6909 119.28 24.6719 119.356 24.71C119.471 24.7481 119.528 24.8433 119.528 24.9957V33.8531C119.528 33.9292 119.471 34.0054 119.356 34.0816C119.242 34.1578 119.128 34.1388 119.013 34.0245L117.699 32.7102C117.318 32.3292 116.861 32.1387 116.328 32.1387H111.47C111.318 32.1387 111.204 32.1959 111.128 32.3102C111.013 32.3482 110.956 32.4625 110.956 32.653V42.539C110.956 42.6914 111.013 42.8057 111.128 42.8818C111.204 42.9961 111.318 43.0533 111.47 43.0533H118.442C118.937 43.0533 119.413 42.8628 119.871 42.4818C120.023 42.3295 120.156 42.1771 120.271 42.0247C120.423 41.8723 120.575 41.739 120.728 41.6247C120.88 41.4723 121.033 41.3199 121.185 41.1675C121.223 41.0532 121.318 41.0342 121.471 41.1104C121.585 41.1485 121.642 41.2437 121.642 41.3961V48.1391C121.642 48.4439 121.49 48.5963 121.185 48.5963H103.642C103.527 48.5963 103.432 48.5391 103.356 48.4248C103.356 48.2725 103.394 48.1582 103.47 48.082L104.67 46.882C105.051 46.501 105.242 46.0438 105.242 45.5105V32.1959C105.242 31.6625 105.051 31.2054 104.67 30.8244L103.47 29.6244C103.394 29.5482 103.356 29.472 103.356 29.3958C103.356 29.3577 103.394 29.3006 103.47 29.2244L104.67 28.0243C105.051 27.5672 105.242 27.091 105.242 26.5957V13.2811C105.242 12.7478 105.051 12.2906 104.67 11.9096L103.47 10.7096C103.394 10.6715 103.356 10.5572 103.356 10.3667C103.432 10.2525 103.527 10.1953 103.642 10.1953H121.185C121.49 10.1953 121.642 10.3667 121.642 10.7096V17.3955C121.642 17.5098 121.585 17.605 121.471 17.6812C121.356 17.7193 121.261 17.7003 121.185 17.6241C121.033 17.4717 120.88 17.3193 120.728 17.1669C120.613 17.0526 120.48 16.9193 120.328 16.7669C120.175 16.6145 120.023 16.4812 119.871 16.3669C119.528 15.9859 119.071 15.7955 118.499 15.7955H111.47Z" fill="#E6E6E6"/>
<path d="M145.543 29.2244C145.619 29.3006 145.657 29.3577 145.657 29.3958C145.657 29.472 145.619 29.5482 145.543 29.6244L144.4 30.7673C144.019 31.1482 143.829 31.6244 143.829 32.1959V40.4818C143.829 42.0056 143.543 43.3581 142.972 44.539C142.743 45.0343 142.438 45.5295 142.057 46.0248C141.714 46.52 141.257 46.9581 140.686 47.3391C140.153 47.7201 139.505 48.0248 138.743 48.2534C138.019 48.482 137.143 48.5963 136.114 48.5963H123.828C123.714 48.5963 123.619 48.5391 123.543 48.4248C123.543 48.2725 123.581 48.1582 123.657 48.082L124.8 46.9391C125.181 46.5581 125.371 46.101 125.371 45.5676V32.1959C125.371 31.6244 125.181 31.1482 124.8 30.7673L124.057 30.0244C123.904 29.872 123.771 29.7387 123.657 29.6244C123.581 29.5482 123.543 29.472 123.543 29.3958C123.543 29.3577 123.581 29.3006 123.657 29.2244C123.771 29.1101 123.904 28.9767 124.057 28.8244C124.171 28.7101 124.285 28.5767 124.4 28.4243C124.552 28.272 124.685 28.1386 124.8 28.0243C125.181 27.6815 125.371 27.2243 125.371 26.6529V13.2811C125.371 12.7097 125.181 12.2525 124.8 11.9096C124.685 11.7573 124.552 11.6239 124.4 11.5096C124.285 11.3572 124.171 11.2239 124.057 11.1096C123.904 10.9572 123.771 10.8239 123.657 10.7096C123.581 10.6715 123.543 10.5572 123.543 10.3667C123.657 10.2525 123.752 10.1953 123.828 10.1953H136.114C138.133 10.1953 139.657 10.6144 140.686 11.4525C141.753 12.2906 142.514 13.224 142.972 14.2526C143.543 15.4335 143.829 16.786 143.829 18.3098V26.6529C143.829 27.2243 144.019 27.6815 144.4 28.0243C144.515 28.1386 144.629 28.272 144.743 28.4243C144.895 28.5767 145.029 28.7101 145.143 28.8244C145.295 28.9767 145.429 29.1101 145.543 29.2244ZM138.057 17.8526C138.057 17.3955 137.981 17.0336 137.829 16.7669C137.676 16.4621 137.486 16.2526 137.257 16.1383C137.067 15.9859 136.857 15.8907 136.629 15.8526C136.4 15.8145 136.19 15.7955 136 15.7955H131.6C131.448 15.7955 131.333 15.8335 131.257 15.9097C131.181 16.0621 131.143 16.1764 131.143 16.2526V42.539C131.143 42.6914 131.181 42.8057 131.257 42.8818C131.371 42.9961 131.486 43.0533 131.6 43.0533H136C136.381 43.0533 136.819 42.939 137.314 42.7104C137.81 42.4818 138.057 41.8913 138.057 40.9389V17.8526Z" fill="#E6E6E6"/>
<path d="M37.681 10.3667C37.681 10.5572 37.662 10.6715 37.6239 10.7096C37.4715 10.862 37.3191 11.0144 37.1667 11.1668C37.0143 11.2811 36.862 11.4144 36.7096 11.5668C36.5953 11.7192 36.462 11.8525 36.3096 11.9668C36.0429 12.2716 35.8524 12.6335 35.7381 13.0525C35.6619 13.624 35.5286 14.5192 35.3381 15.7383C35.1476 16.9193 34.9381 18.1765 34.7095 19.5098C34.519 20.8432 34.3286 22.1385 34.1381 23.3956C33.9476 24.6147 33.7952 25.5862 33.6809 26.31C33.5666 26.9195 33.7571 27.4719 34.2524 27.9672C34.4048 28.1196 34.5381 28.272 34.6524 28.4243C34.8048 28.5386 34.9381 28.672 35.0524 28.8244C35.2048 28.9386 35.3381 29.072 35.4524 29.2244C35.5286 29.3006 35.5667 29.3577 35.5667 29.3958C35.5667 29.472 35.5286 29.5482 35.4524 29.6244L33.1666 31.9101C32.9 32.1768 32.7285 32.5387 32.6523 32.9959C32.5761 33.5673 32.4428 34.4054 32.2523 35.5102C32.0999 36.615 31.9095 37.796 31.6809 39.0532C31.4904 40.2723 31.2999 41.4723 31.1094 42.6533C30.919 43.7962 30.7666 44.7105 30.6523 45.3962C30.5761 46.0819 30.7666 46.6534 31.2237 47.1105L32.1952 48.082C32.2714 48.1582 32.3095 48.2725 32.3095 48.4248C32.2714 48.5391 32.1761 48.5963 32.0237 48.5963H23.1664C23.0521 48.5963 22.9568 48.5391 22.8807 48.4248C22.8807 48.2725 22.9188 48.1582 22.9949 48.082L23.5664 47.5105C24.0235 47.0534 24.195 46.52 24.0807 45.9105C24.0045 45.301 23.9093 44.4819 23.795 43.4533C23.6807 42.4247 23.5473 41.2628 23.395 39.9675C23.2807 38.6722 23.1283 37.3198 22.9378 35.9102C22.7854 34.4626 22.633 33.0721 22.4806 31.7387C22.3664 30.3672 22.233 29.091 22.0806 27.91C21.9282 26.7291 21.814 25.7386 21.7378 24.9385C21.7378 24.8243 21.6806 24.7671 21.5663 24.7671C21.452 24.7671 21.3949 24.8243 21.3949 24.9385C21.3187 25.7005 21.2044 26.6719 21.052 27.8529C20.9377 29.0339 20.8044 30.2911 20.652 31.6244C20.4996 32.9578 20.3473 34.3483 20.1949 35.796C20.0425 37.2055 19.8901 38.5389 19.7377 39.7961C19.6234 41.0532 19.5091 42.2152 19.3949 43.2819C19.2806 44.3105 19.1853 45.1105 19.1091 45.6819C19.071 46.2915 19.2615 46.8248 19.6806 47.282L20.4806 48.082C20.5568 48.2344 20.5758 48.3487 20.5377 48.4248C20.4996 48.5391 20.4044 48.5963 20.252 48.5963H11.4518C11.3375 48.5963 11.2423 48.5391 11.1661 48.4248C11.128 48.3487 11.147 48.2344 11.2232 48.082C11.2994 48.0058 11.3756 47.9296 11.4518 47.8534C11.528 47.7772 11.6232 47.701 11.7375 47.6248C11.8518 47.5105 11.947 47.4153 12.0232 47.3391C12.4804 46.8058 12.6518 46.2343 12.5375 45.6248C12.4232 44.939 12.2709 44.0057 12.0804 42.8247C11.928 41.6056 11.7375 40.3675 11.5089 39.1103C11.3185 37.8531 11.128 36.6722 10.9375 35.5674C10.7851 34.4245 10.6518 33.5673 10.5375 32.9959C10.4613 32.5387 10.2899 32.1768 10.0232 31.9101L7.73742 29.6244C7.66122 29.5482 7.62313 29.472 7.62313 29.3958C7.62313 29.3577 7.66122 29.3006 7.73742 29.2244C7.85171 29.072 7.98504 28.9386 8.13743 28.8244C8.25172 28.672 8.38505 28.5386 8.53744 28.4243C8.68982 28.272 8.82316 28.1196 8.93745 27.9672C9.4327 27.4719 9.62318 26.9195 9.50889 26.31C9.3946 25.5862 9.24222 24.6147 9.05174 23.3956C8.86125 22.1385 8.65173 20.8432 8.42315 19.5098C8.23267 18.1765 8.04219 16.9193 7.85171 15.7383C7.66122 14.5192 7.52789 13.624 7.4517 13.0525C7.33741 12.6335 7.14693 12.2716 6.88025 11.9668L6.08023 11.1668C5.92785 11.0144 5.77546 10.862 5.62308 10.7096C5.54689 10.6715 5.50879 10.5572 5.50879 10.3667C5.62308 10.2525 5.71832 10.1953 5.79451 10.1953H14.6519C14.7281 10.1953 14.8233 10.2525 14.9376 10.3667C14.9376 10.5572 14.8995 10.6715 14.8233 10.7096C14.709 10.8239 14.5947 10.9382 14.4804 11.0525C14.4043 11.1287 14.309 11.243 14.1947 11.3953C14.0804 11.5096 13.9471 11.6239 13.7947 11.7382C13.3757 12.2335 13.1852 12.7859 13.2233 13.3954C13.2995 13.9668 13.3947 14.7669 13.509 15.7955C13.6614 16.8241 13.8138 17.9669 13.9661 19.2241C14.1185 20.4813 14.2709 21.8147 14.4233 23.2242C14.6138 24.5957 14.7852 25.9481 14.9376 27.2815C15.09 28.5767 15.2233 29.7958 15.3376 30.9387C15.49 32.0435 15.6043 32.9768 15.6805 33.7388C15.6805 33.8531 15.7376 33.9102 15.8519 33.9102C16.0043 33.9102 16.0805 33.8531 16.0805 33.7388C16.1948 32.5959 16.3662 31.072 16.5948 29.1672C16.8234 27.2243 17.0519 25.2243 17.2805 23.1671C17.5472 21.1099 17.7948 19.186 18.0234 17.3955C18.252 15.5669 18.4234 14.2145 18.5377 13.3382C18.5758 12.7287 18.3853 12.1763 17.9662 11.6811L16.9948 10.7096C16.9186 10.6715 16.8805 10.5572 16.8805 10.3667C16.9948 10.2525 17.09 10.1953 17.1662 10.1953H26.0236C26.0998 10.1953 26.195 10.2525 26.3093 10.3667C26.3093 10.5572 26.2903 10.6715 26.2522 10.7096C26.1379 10.8239 26.0236 10.9191 25.9093 10.9953C25.8331 11.1096 25.7188 11.2239 25.5664 11.3382C25.4521 11.4525 25.3379 11.5668 25.2236 11.6811C24.8045 12.1763 24.614 12.7287 24.6521 13.3382C24.7664 14.2145 24.9378 15.5669 25.1664 17.3955C25.395 19.186 25.6236 21.1099 25.8522 23.1671C26.1188 25.2243 26.3665 27.2243 26.595 29.1672C26.8236 31.072 26.995 32.5959 27.1093 33.7388C27.1093 33.8531 27.1855 33.9102 27.3379 33.9102C27.4522 33.9102 27.5093 33.8531 27.5093 33.7388C27.5855 32.9768 27.6808 32.0435 27.7951 30.9387C27.9475 29.7958 28.0998 28.5767 28.2522 27.2815C28.4046 25.9481 28.557 24.5957 28.7094 23.2242C28.8999 21.8147 29.0713 20.4813 29.2237 19.2241C29.3761 17.9669 29.5094 16.8241 29.6237 15.7955C29.7761 14.7669 29.8904 13.9668 29.9665 13.3954C30.0046 12.7859 29.8142 12.2335 29.3951 11.7382L28.7094 11.0525C28.5951 10.9382 28.4808 10.8239 28.3665 10.7096C28.2522 10.6334 28.2332 10.5191 28.3094 10.3667C28.3094 10.2525 28.3856 10.1953 28.5379 10.1953H37.3953C37.4715 10.1953 37.5667 10.2525 37.681 10.3667Z" stroke="#2A2A2A" stroke-width="2.61911" mask="url(#path-3-outside-1_1905_2436)"/>
<path d="M59.9829 48.082C60.0591 48.1582 60.0972 48.2725 60.0972 48.4248C60.0591 48.5391 59.9639 48.5963 59.8115 48.5963H50.9541C50.8398 48.5963 50.7446 48.5391 50.6684 48.4248C50.6684 48.2725 50.7065 48.1582 50.7827 48.082L51.4684 47.3962C51.9637 46.901 52.1542 46.3296 52.0399 45.6819C51.9637 45.2248 51.8684 44.6724 51.7542 44.0247C51.678 43.3771 51.5827 42.7295 51.4684 42.0818C51.3541 41.3961 51.2398 40.7675 51.1256 40.1961C51.0494 39.6246 50.9922 39.1865 50.9541 38.8817C50.8779 38.577 50.7065 38.4246 50.4398 38.4246H44.6683C44.4016 38.4246 44.2301 38.577 44.154 38.8817C44.1159 39.1865 44.0397 39.6246 43.9254 40.1961C43.8492 40.7675 43.7539 41.3961 43.6397 42.0818C43.5254 42.7295 43.4111 43.3771 43.2968 44.0247C43.2206 44.6724 43.1444 45.2248 43.0682 45.6819C42.9539 46.3296 43.1444 46.901 43.6397 47.3962C43.8682 47.6248 44.0397 47.7772 44.154 47.8534C44.2301 47.9296 44.3063 48.0058 44.3825 48.082C44.4206 48.1582 44.4397 48.2725 44.4397 48.4248C44.4016 48.5391 44.3063 48.5963 44.154 48.5963H35.2966C35.1823 48.5963 35.0871 48.5391 35.0109 48.4248C35.0109 48.2725 35.049 48.1582 35.1252 48.082L36.7252 46.4819C36.9919 46.2153 37.1824 45.8724 37.2966 45.4533C37.4109 44.8819 37.5633 44.0247 37.7538 42.8818C37.9824 41.7009 38.2109 40.4627 38.4395 39.1675C38.6681 37.8341 38.8967 36.5579 39.1253 35.3388C39.3538 34.0816 39.5253 33.0911 39.6396 32.3673C39.7538 31.7197 39.5634 31.1482 39.0681 30.653L38.0395 29.6244C37.9633 29.5482 37.9252 29.472 37.9252 29.3958C37.9252 29.3577 37.9633 29.3006 38.0395 29.2244C38.3062 28.9577 38.5729 28.672 38.8395 28.3672L40.211 26.9957C40.5539 26.6529 40.7443 26.31 40.7824 25.9671C40.8967 25.3957 41.0491 24.5576 41.2396 23.4528C41.4301 22.3099 41.6396 21.1099 41.8682 19.8527C42.0968 18.5955 42.3253 17.3764 42.5539 16.1955C42.7825 14.9764 42.9539 14.024 43.0682 13.3382C43.1825 12.6906 42.992 12.1192 42.4968 11.6239C42.3063 11.3953 42.0968 11.1858 41.8682 10.9953C41.792 10.881 41.6968 10.7858 41.5825 10.7096C41.4682 10.5953 41.4491 10.481 41.5253 10.3667C41.6015 10.2525 41.6968 10.1953 41.811 10.1953H53.4685C53.6209 10.1953 53.7161 10.2525 53.7542 10.3667C53.8304 10.481 53.8113 10.5953 53.6971 10.7096L52.6113 11.7954C52.1542 12.2525 51.9827 12.8239 52.097 13.5097C52.2113 14.1954 52.3637 15.1288 52.5542 16.3098C52.7827 17.4907 53.0113 18.7098 53.2399 19.967C53.4685 21.2242 53.678 22.4051 53.8685 23.5099C54.059 24.6147 54.2114 25.4338 54.3256 25.9671C54.3637 26.31 54.5542 26.6529 54.8971 26.9957C55.0876 27.1862 55.2971 27.4148 55.5257 27.6815C55.7923 27.91 56.04 28.1386 56.2685 28.3672C56.5352 28.672 56.8019 28.9577 57.0686 29.2244C57.1448 29.3006 57.1829 29.3577 57.1829 29.3958C57.1829 29.472 57.1448 29.5482 57.0686 29.6244L56.04 30.653C55.5447 31.1482 55.3542 31.7197 55.4685 32.3673C55.5828 33.0911 55.7542 34.0816 55.9828 35.3388C56.2114 36.5579 56.44 37.8341 56.6686 39.1675C56.9352 40.4627 57.1638 41.7009 57.3543 42.8818C57.5829 44.0247 57.7543 44.8819 57.8686 45.4533C57.9448 45.8343 58.1162 46.1772 58.3829 46.4819L59.9829 48.082ZM49.7541 32.7102C49.8684 32.5959 49.9065 32.4625 49.8684 32.3102C49.7922 31.7768 49.6589 30.9387 49.4684 29.7958C49.2779 28.6148 49.0684 27.3576 48.8398 26.0243C48.6493 24.6909 48.4398 23.3956 48.2112 22.1385C48.0207 20.8432 47.8683 19.8146 47.754 19.0527C47.754 18.9384 47.6969 18.8812 47.5826 18.8812C47.4302 18.8812 47.354 18.9384 47.354 19.0527C47.2397 19.8146 47.0683 20.8432 46.8397 22.1385C46.6493 23.3956 46.4397 24.6909 46.2112 26.0243C46.0207 27.3576 45.8302 28.6148 45.6397 29.7958C45.4492 30.9387 45.3159 31.7768 45.2397 32.3102C45.2016 32.4625 45.2397 32.5959 45.354 32.7102C45.4302 32.8245 45.5445 32.8816 45.6969 32.8816H49.4112C49.6017 32.8816 49.716 32.8245 49.7541 32.7102Z" stroke="#2A2A2A" stroke-width="2.61911" mask="url(#path-3-outside-1_1905_2436)"/>
<path d="M83.3849 48.082C83.4611 48.2344 83.4801 48.3487 83.442 48.4248C83.4039 48.5391 83.3087 48.5963 83.1563 48.5963H74.2989C74.2227 48.5963 74.1465 48.5391 74.0703 48.4248C73.9941 48.3106 74.0132 48.1963 74.1275 48.082L74.8132 47.3962C75.3847 46.8248 75.537 46.1581 75.2704 45.3962C75.0418 44.7486 74.737 43.9104 74.3561 42.8818C74.0132 41.8533 73.6322 40.7104 73.2132 39.4532C72.7941 38.196 72.337 36.9007 71.8417 35.5674C71.3846 34.234 70.9464 32.9578 70.5274 31.7387C70.1083 30.5196 69.7274 29.3958 69.3845 28.3672C69.0416 27.3386 68.7559 26.5195 68.5273 25.91C68.4892 25.7957 68.413 25.7386 68.2988 25.7386C68.1845 25.7767 68.1273 25.8528 68.1273 25.9671V45.5676C68.1273 46.0248 68.3178 46.4819 68.6988 46.9391L69.8417 48.082C69.9179 48.1582 69.9559 48.2725 69.9559 48.4248C69.9179 48.5391 69.8226 48.5963 69.6702 48.5963H60.8129C60.6986 48.5963 60.6033 48.5391 60.5271 48.4248C60.5271 48.2725 60.5652 48.1582 60.6414 48.082C60.7557 47.9677 60.889 47.8344 61.0414 47.682C61.1557 47.5677 61.27 47.4343 61.3843 47.282C61.5367 47.1296 61.67 46.9962 61.7843 46.882C62.1653 46.5391 62.3558 46.0819 62.3558 45.5105V32.1959C62.3558 31.6244 62.1653 31.1482 61.7843 30.7673L60.6414 29.6244C60.5652 29.5482 60.5271 29.472 60.5271 29.3958C60.5271 29.3196 60.5652 29.2434 60.6414 29.1672L61.7843 28.0243C62.1653 27.6434 62.3558 27.1672 62.3558 26.5957V13.2811C62.3558 12.7097 62.1653 12.2525 61.7843 11.9096C61.67 11.7573 61.5367 11.6239 61.3843 11.5096C61.27 11.3572 61.1557 11.2239 61.0414 11.1096C60.889 10.9572 60.7557 10.8239 60.6414 10.7096C60.5652 10.6334 60.5271 10.5191 60.5271 10.3667C60.6033 10.2525 60.6986 10.1953 60.8129 10.1953H69.6702C69.8226 10.1953 69.9179 10.2525 69.9559 10.3667C69.9559 10.5191 69.9179 10.6334 69.8417 10.7096L69.7274 10.8239C69.1559 11.3953 69.0035 12.062 69.2702 12.824C69.4607 13.4335 69.7274 14.2526 70.0702 15.2812C70.4131 16.3098 70.775 17.4336 71.156 18.6527C71.5369 19.8717 71.9369 21.148 72.356 22.4813C72.8132 23.8147 73.2322 25.0909 73.6132 26.31C73.9941 27.5291 74.3561 28.672 74.6989 29.7387C75.0418 30.7673 75.3085 31.5863 75.4989 32.1959C75.5751 32.3102 75.6513 32.3673 75.7275 32.3673C75.8418 32.253 75.8989 32.1768 75.8989 32.1387V13.2811C75.8989 12.7478 75.7085 12.2906 75.3275 11.9096L74.1275 10.7096C74.0132 10.5953 73.9941 10.481 74.0703 10.3667C74.1465 10.2525 74.2227 10.1953 74.2989 10.1953H83.1563C83.3087 10.1953 83.4039 10.2525 83.442 10.3667C83.4801 10.4429 83.4611 10.5572 83.3849 10.7096C83.2706 10.8239 83.1372 10.9572 82.9848 11.1096C82.8706 11.1858 82.7372 11.3001 82.5848 11.4525C82.4706 11.5668 82.3372 11.7001 82.1848 11.8525C81.8039 12.3096 81.6134 12.7668 81.6134 13.224V26.6529C81.6134 27.1862 81.8039 27.6434 82.1848 28.0243C82.3372 28.1386 82.4706 28.272 82.5848 28.4243C82.7372 28.5386 82.8706 28.6529 82.9848 28.7672C83.1372 28.9196 83.2706 29.0529 83.3849 29.1672C83.423 29.2053 83.442 29.2815 83.442 29.3958C83.442 29.5101 83.423 29.5863 83.3849 29.6244C83.2706 29.7387 83.1372 29.872 82.9848 30.0244C82.8706 30.1006 82.7372 30.2149 82.5848 30.3672C82.4706 30.4815 82.3372 30.6149 82.1848 30.7673C81.8039 31.1482 81.6134 31.6054 81.6134 32.1387V45.5676C81.6134 46.0248 81.8039 46.4819 82.1848 46.9391L83.3849 48.082Z" stroke="#2A2A2A" stroke-width="2.61911" mask="url(#path-3-outside-1_1905_2436)"/>
<path d="M102.493 10.3667C102.569 10.4429 102.607 10.5572 102.607 10.7096V17.3955C102.607 17.5098 102.55 17.605 102.436 17.6812C102.36 17.7193 102.245 17.7003 102.093 17.6241C101.941 17.4717 101.807 17.3193 101.693 17.1669C101.579 17.0526 101.445 16.9193 101.293 16.7669C101.141 16.6145 100.988 16.4812 100.836 16.3669C100.493 15.9859 100.036 15.7955 99.4643 15.7955H96.7785C96.4356 15.7955 96.2642 15.9478 96.2642 16.2526V26.6529C96.2642 27.1862 96.4547 27.6434 96.8356 28.0243L98.0357 29.2244C98.1119 29.3006 98.15 29.3577 98.15 29.3958C98.15 29.472 98.1119 29.5482 98.0357 29.6244C97.9214 29.7387 97.788 29.872 97.6357 30.0244C97.5214 30.1387 97.388 30.272 97.2356 30.4244C97.1214 30.5387 96.988 30.653 96.8356 30.7673C96.4547 31.2244 96.2642 31.7006 96.2642 32.1959V45.5676C96.2642 46.0248 96.4547 46.4819 96.8356 46.9391C96.988 47.0534 97.1214 47.1867 97.2356 47.3391C97.388 47.4534 97.5214 47.5677 97.6357 47.682C97.788 47.8344 97.9214 47.9677 98.0357 48.082C98.15 48.1963 98.169 48.3106 98.0928 48.4248C98.0547 48.5391 97.9595 48.5963 97.8071 48.5963H89.0069C88.8926 48.5963 88.7973 48.5391 88.7211 48.4248C88.6831 48.3487 88.7021 48.2344 88.7783 48.082C88.8926 47.9677 89.0259 47.8344 89.1783 47.682C89.2926 47.5677 89.4259 47.4534 89.5783 47.3391C89.7307 47.1867 89.864 47.0534 89.9783 46.9391C90.3593 46.4819 90.5498 46.0248 90.5498 45.5676V32.1959C90.5498 31.7006 90.3593 31.2244 89.9783 30.7673C89.864 30.653 89.7307 30.5387 89.5783 30.4244C89.4259 30.272 89.2926 30.1387 89.1783 30.0244C89.0259 29.872 88.8926 29.7387 88.7783 29.6244C88.7402 29.5863 88.7211 29.5101 88.7211 29.3958C88.7211 29.3196 88.7402 29.2625 88.7783 29.2244L89.9783 28.0243C90.3593 27.6434 90.5498 27.1862 90.5498 26.6529V16.2526C90.5498 15.9478 90.3783 15.7955 90.0355 15.7955H87.3497C86.7782 15.7955 86.3211 15.9859 85.9782 16.3669C85.8258 16.4812 85.6734 16.6145 85.5211 16.7669C85.4068 16.9193 85.2734 17.0526 85.1211 17.1669C85.0068 17.3193 84.8734 17.4717 84.721 17.6241C84.5687 17.7003 84.4544 17.7193 84.3782 17.6812C84.2639 17.605 84.2067 17.5098 84.2067 17.3955V10.7096C84.2067 10.3667 84.3782 10.1953 84.721 10.1953H102.15C102.264 10.1953 102.379 10.2525 102.493 10.3667Z" stroke="#2A2A2A" stroke-width="2.61911" mask="url(#path-3-outside-1_1905_2436)"/>
<path d="M111.47 15.7955C111.128 15.7955 110.956 15.9478 110.956 16.2526V26.1386C110.956 26.4433 111.128 26.5957 111.47 26.5957H116.385C116.918 26.5957 117.375 26.4052 117.756 26.0243C117.909 25.8719 118.061 25.7386 118.213 25.6243C118.366 25.4719 118.499 25.3385 118.613 25.2243C118.728 25.0719 118.861 24.9195 119.013 24.7671C119.166 24.6909 119.28 24.6719 119.356 24.71C119.471 24.7481 119.528 24.8433 119.528 24.9957V33.8531C119.528 33.9292 119.471 34.0054 119.356 34.0816C119.242 34.1578 119.128 34.1388 119.013 34.0245L117.699 32.7102C117.318 32.3292 116.861 32.1387 116.328 32.1387H111.47C111.318 32.1387 111.204 32.1959 111.128 32.3102C111.013 32.3482 110.956 32.4625 110.956 32.653V42.539C110.956 42.6914 111.013 42.8057 111.128 42.8818C111.204 42.9961 111.318 43.0533 111.47 43.0533H118.442C118.937 43.0533 119.413 42.8628 119.871 42.4818C120.023 42.3295 120.156 42.1771 120.271 42.0247C120.423 41.8723 120.575 41.739 120.728 41.6247C120.88 41.4723 121.033 41.3199 121.185 41.1675C121.223 41.0532 121.318 41.0342 121.471 41.1104C121.585 41.1485 121.642 41.2437 121.642 41.3961V48.1391C121.642 48.4439 121.49 48.5963 121.185 48.5963H103.642C103.527 48.5963 103.432 48.5391 103.356 48.4248C103.356 48.2725 103.394 48.1582 103.47 48.082L104.67 46.882C105.051 46.501 105.242 46.0438 105.242 45.5105V32.1959C105.242 31.6625 105.051 31.2054 104.67 30.8244L103.47 29.6244C103.394 29.5482 103.356 29.472 103.356 29.3958C103.356 29.3577 103.394 29.3006 103.47 29.2244L104.67 28.0243C105.051 27.5672 105.242 27.091 105.242 26.5957V13.2811C105.242 12.7478 105.051 12.2906 104.67 11.9096L103.47 10.7096C103.394 10.6715 103.356 10.5572 103.356 10.3667C103.432 10.2525 103.527 10.1953 103.642 10.1953H121.185C121.49 10.1953 121.642 10.3667 121.642 10.7096V17.3955C121.642 17.5098 121.585 17.605 121.471 17.6812C121.356 17.7193 121.261 17.7003 121.185 17.6241C121.033 17.4717 120.88 17.3193 120.728 17.1669C120.613 17.0526 120.48 16.9193 120.328 16.7669C120.175 16.6145 120.023 16.4812 119.871 16.3669C119.528 15.9859 119.071 15.7955 118.499 15.7955H111.47Z" stroke="#2A2A2A" stroke-width="2.61911" mask="url(#path-3-outside-1_1905_2436)"/>
<path d="M145.543 29.2244C145.619 29.3006 145.657 29.3577 145.657 29.3958C145.657 29.472 145.619 29.5482 145.543 29.6244L144.4 30.7673C144.019 31.1482 143.829 31.6244 143.829 32.1959V40.4818C143.829 42.0056 143.543 43.3581 142.972 44.539C142.743 45.0343 142.438 45.5295 142.057 46.0248C141.714 46.52 141.257 46.9581 140.686 47.3391C140.153 47.7201 139.505 48.0248 138.743 48.2534C138.019 48.482 137.143 48.5963 136.114 48.5963H123.828C123.714 48.5963 123.619 48.5391 123.543 48.4248C123.543 48.2725 123.581 48.1582 123.657 48.082L124.8 46.9391C125.181 46.5581 125.371 46.101 125.371 45.5676V32.1959C125.371 31.6244 125.181 31.1482 124.8 30.7673L124.057 30.0244C123.904 29.872 123.771 29.7387 123.657 29.6244C123.581 29.5482 123.543 29.472 123.543 29.3958C123.543 29.3577 123.581 29.3006 123.657 29.2244C123.771 29.1101 123.904 28.9767 124.057 28.8244C124.171 28.7101 124.285 28.5767 124.4 28.4243C124.552 28.272 124.685 28.1386 124.8 28.0243C125.181 27.6815 125.371 27.2243 125.371 26.6529V13.2811C125.371 12.7097 125.181 12.2525 124.8 11.9096C124.685 11.7573 124.552 11.6239 124.4 11.5096C124.285 11.3572 124.171 11.2239 124.057 11.1096C123.904 10.9572 123.771 10.8239 123.657 10.7096C123.581 10.6715 123.543 10.5572 123.543 10.3667C123.657 10.2525 123.752 10.1953 123.828 10.1953H136.114C138.133 10.1953 139.657 10.6144 140.686 11.4525C141.753 12.2906 142.514 13.224 142.972 14.2526C143.543 15.4335 143.829 16.786 143.829 18.3098V26.6529C143.829 27.2243 144.019 27.6815 144.4 28.0243C144.515 28.1386 144.629 28.272 144.743 28.4243C144.895 28.5767 145.029 28.7101 145.143 28.8244C145.295 28.9767 145.429 29.1101 145.543 29.2244ZM138.057 17.8526C138.057 17.3955 137.981 17.0336 137.829 16.7669C137.676 16.4621 137.486 16.2526 137.257 16.1383C137.067 15.9859 136.857 15.8907 136.629 15.8526C136.4 15.8145 136.19 15.7955 136 15.7955H131.6C131.448 15.7955 131.333 15.8335 131.257 15.9097C131.181 16.0621 131.143 16.1764 131.143 16.2526V42.539C131.143 42.6914 131.181 42.8057 131.257 42.8818C131.371 42.9961 131.486 43.0533 131.6 43.0533H136C136.381 43.0533 136.819 42.939 137.314 42.7104C137.81 42.4818 138.057 41.8913 138.057 40.9389V17.8526Z" stroke="#2A2A2A" stroke-width="2.61911" mask="url(#path-3-outside-1_1905_2436)"/>
</svg>
