<svg width="48" height="48" viewBox="0 0 48 48" fill="none" xmlns="http://www.w3.org/2000/svg">
<path d="M37.5111 40L26.3111 28.8C25.4222 29.5111 24.4 30.0741 23.2444 30.4889C22.0889 30.9037 20.8593 31.1111 19.5556 31.1111C16.3259 31.1111 13.5929 29.9923 11.3564 27.7547C9.12 25.517 8.00119 22.784 8 19.5556C7.99882 16.3271 9.11763 13.5941 11.3564 11.3564C13.5953 9.11881 16.3283 8 19.5556 8C22.7828 8 25.5164 9.11881 27.7564 11.3564C29.9964 13.5941 31.1147 16.3271 31.1111 19.5556C31.1111 20.8593 30.9037 22.0889 30.4889 23.2444C30.0741 24.4 29.5111 25.4222 28.8 26.3111L40 37.5111L37.5111 40ZM19.5556 27.5556C21.7778 27.5556 23.667 26.7781 25.2231 25.2231C26.7793 23.6681 27.5567 21.779 27.5556 19.5556C27.5544 17.3321 26.7769 15.4436 25.2231 13.8898C23.6693 12.336 21.7801 11.5579 19.5556 11.5556C17.331 11.5532 15.4424 12.3313 13.8898 13.8898C12.3372 15.4483 11.5591 17.3369 11.5556 19.5556C11.552 21.7742 12.3301 23.6634 13.8898 25.2231C15.4495 26.7828 17.3381 27.5603 19.5556 27.5556Z" fill="#E6E6E6"/>
</svg>
