<svg width="306" height="80" viewBox="0 0 306 80" fill="none" xmlns="http://www.w3.org/2000/svg">
<path d="M55.7139 15.0721C55.7139 15.3581 55.6853 15.5297 55.6281 15.5869C55.3993 15.8157 55.1705 16.0445 54.9417 16.2733C54.7129 16.4449 54.4841 16.6451 54.2553 16.874C54.0837 17.1028 53.8834 17.303 53.6546 17.4746C53.2542 17.9322 52.9682 18.4756 52.7966 19.1048C52.6822 19.9628 52.482 21.3071 52.196 23.1375C51.91 24.9108 51.5954 26.7984 51.2522 28.8005C50.9662 30.8025 50.6802 32.7474 50.3942 34.635C50.1081 36.4655 49.8793 37.9241 49.7077 39.0109C49.5361 39.9261 49.8221 40.7556 50.5658 41.4992C50.7946 41.728 50.9948 41.9568 51.1664 42.1856C51.3952 42.3572 51.5954 42.5574 51.767 42.7862C51.9958 42.9578 52.196 43.158 52.3676 43.3868C52.482 43.5012 52.5392 43.587 52.5392 43.6443C52.5392 43.7587 52.482 43.8731 52.3676 43.9875L48.9355 47.4195C48.5351 47.82 48.2777 48.3634 48.1633 49.0498C48.0489 49.9078 47.8487 51.1662 47.5627 52.8251C47.3339 54.4839 47.0479 56.2572 46.7047 58.1448C46.4186 59.9753 46.1326 61.7771 45.8466 63.5504C45.5606 65.2664 45.3318 66.6393 45.1602 67.6689C45.0458 68.6985 45.3318 69.5565 46.0182 70.2429L47.4769 71.7016C47.5913 71.816 47.6485 71.9876 47.6485 72.2164C47.5913 72.388 47.4483 72.4738 47.2195 72.4738H33.9201C33.7485 72.4738 33.6055 72.388 33.4911 72.2164C33.4911 71.9876 33.5483 71.816 33.6627 71.7016L34.5207 70.8436C35.2072 70.1571 35.4646 69.3563 35.293 68.4411C35.1786 67.5259 35.0356 66.296 34.8639 64.7516C34.6923 63.2072 34.4921 61.4625 34.2633 59.5177C34.0917 57.5728 33.8629 55.5422 33.5769 53.4257C33.3481 51.252 33.1193 49.1642 32.8905 47.1621C32.7189 45.1029 32.5187 43.1866 32.2899 41.4134C32.0611 39.6401 31.8895 38.1529 31.7751 36.9517C31.7751 36.7801 31.6893 36.6943 31.5177 36.6943C31.3461 36.6943 31.2603 36.7801 31.2603 36.9517C31.1459 38.0957 30.9742 39.5543 30.7454 41.3276C30.5738 43.1008 30.3736 44.9885 30.1448 46.9905C29.916 48.9926 29.6872 51.0804 29.4584 53.2541C29.2296 55.3706 29.0008 57.3726 28.772 59.2603C28.6004 61.1479 28.4288 62.8926 28.2572 64.4942C28.0856 66.0386 27.9426 67.2399 27.8282 68.0979C27.771 69.0131 28.057 69.8139 28.6862 70.5004L29.8874 71.7016C30.0018 71.9304 30.0304 72.102 29.9732 72.2164C29.916 72.388 29.773 72.4738 29.5442 72.4738H16.3307C16.1591 72.4738 16.0161 72.388 15.9016 72.2164C15.8444 72.102 15.873 71.9304 15.9875 71.7016C16.1019 71.5872 16.2163 71.4728 16.3307 71.3584C16.4451 71.244 16.5881 71.1296 16.7597 71.0152C16.9313 70.8436 17.0743 70.7006 17.1887 70.5862C17.8751 69.7853 18.1325 68.9273 17.9609 68.0121C17.7893 66.9825 17.5605 65.581 17.2745 63.8078C17.0457 61.9773 16.7597 60.1183 16.4165 58.2306C16.1305 56.343 15.8444 54.5697 15.5584 52.9109C15.3296 51.1948 15.1294 49.9078 14.9578 49.0498C14.8434 48.3634 14.586 47.82 14.1856 47.4195L10.7535 43.9875C10.6391 43.8731 10.5819 43.7587 10.5819 43.6443C10.5819 43.587 10.6391 43.5012 10.7535 43.3868C10.9251 43.158 11.1253 42.9578 11.3541 42.7862C11.5257 42.5574 11.7259 42.3572 11.9547 42.1856C12.1836 41.9568 12.3838 41.728 12.5554 41.4992C13.299 40.7556 13.585 39.9261 13.4134 39.0109C13.2418 37.9241 13.013 36.4655 12.727 34.635C12.441 32.7474 12.1264 30.8025 11.7831 28.8005C11.4971 26.7984 11.2111 24.9108 10.9251 23.1375C10.6391 21.3071 10.4389 19.9628 10.3245 19.1048C10.1529 18.4756 9.86689 17.9322 9.46648 17.4746L8.26525 16.2733C8.03644 16.0445 7.80764 15.8157 7.57883 15.5869C7.46443 15.5297 7.40723 15.3581 7.40723 15.0721C7.57883 14.9005 7.72183 14.8147 7.83624 14.8147H21.1356C21.25 14.8147 21.393 14.9005 21.5646 15.0721C21.5646 15.3581 21.5074 15.5297 21.393 15.5869C21.2214 15.7585 21.0498 15.9301 20.8782 16.1017C20.7638 16.2161 20.6208 16.3877 20.4492 16.6165C20.2776 16.7881 20.0774 16.9598 19.8486 17.1314C19.2193 17.875 18.9333 18.7044 18.9905 19.6196C19.1049 20.4776 19.2479 21.6789 19.4195 23.2233C19.6483 24.7678 19.8772 26.4838 20.106 28.3715C20.3348 30.2591 20.5636 32.2612 20.7924 34.3776C21.0784 36.4369 21.3358 38.4675 21.5646 40.4696C21.7934 42.4144 21.9936 44.2449 22.1652 45.9609C22.394 47.6198 22.5656 49.0212 22.68 50.1652C22.68 50.3368 22.7658 50.4226 22.9374 50.4226C23.1662 50.4226 23.2806 50.3368 23.2806 50.1652C23.4522 48.4492 23.7097 46.1611 24.0529 43.301C24.3961 40.3838 24.7393 37.3807 25.0825 34.2918C25.4829 31.2029 25.8547 28.3142 26.1979 25.6258C26.5411 22.8801 26.7985 20.8495 26.9701 19.5338C27.0273 18.6186 26.7413 17.7892 26.1121 17.0456L24.6535 15.5869C24.5391 15.5297 24.4819 15.3581 24.4819 15.0721C24.6535 14.9005 24.7965 14.8147 24.9109 14.8147H38.2102C38.3246 14.8147 38.4676 14.9005 38.6392 15.0721C38.6392 15.3581 38.6106 15.5297 38.5534 15.5869C38.3818 15.7585 38.2102 15.9015 38.0386 16.0159C37.9242 16.1875 37.7526 16.3591 37.5238 16.5307C37.3522 16.7023 37.1806 16.874 37.009 17.0456C36.3798 17.7892 36.0938 18.6186 36.151 19.5338C36.3226 20.8495 36.58 22.8801 36.9232 25.6258C37.2664 28.3142 37.6096 31.2029 37.9528 34.2918C38.3532 37.3807 38.725 40.3838 39.0683 43.301C39.4115 46.1611 39.6689 48.4492 39.8405 50.1652C39.8405 50.3368 39.9549 50.4226 40.1837 50.4226C40.3553 50.4226 40.4411 50.3368 40.4411 50.1652C40.5555 49.0212 40.6985 47.6198 40.8701 45.9609C41.0989 44.2449 41.3277 42.4144 41.5565 40.4696C41.7853 38.4675 42.0141 36.4369 42.2429 34.3776C42.5289 32.2612 42.7864 30.2591 43.0152 28.3715C43.244 26.4838 43.4442 24.7678 43.6158 23.2233C43.8446 21.6789 44.0162 20.4776 44.1306 19.6196C44.1878 18.7044 43.9018 17.875 43.2726 17.1314L42.2429 16.1017C42.0713 15.9301 41.8997 15.7585 41.7281 15.5869C41.5565 15.4725 41.5279 15.3009 41.6423 15.0721C41.6423 14.9005 41.7567 14.8147 41.9855 14.8147H55.2849C55.3993 14.8147 55.5423 14.9005 55.7139 15.0721Z" fill="black"/>
<path d="M89.2002 71.7016C89.3146 71.816 89.3718 71.9876 89.3718 72.2164C89.3146 72.388 89.1716 72.4738 88.9428 72.4738H75.6435C75.4719 72.4738 75.3289 72.388 75.2145 72.2164C75.2145 71.9876 75.2717 71.816 75.3861 71.7016L76.4157 70.672C77.1593 69.9283 77.4453 69.0703 77.2737 68.0979C77.1593 67.4115 77.0163 66.582 76.8447 65.6096C76.7303 64.6372 76.5873 63.6648 76.4157 62.6923C76.2441 61.6627 76.0725 60.7189 75.9009 59.8609C75.7865 59.0028 75.7007 58.345 75.6435 57.8874C75.5291 57.4298 75.2717 57.201 74.8713 57.201H66.2052C65.8048 57.201 65.5474 57.4298 65.433 57.8874C65.3758 58.345 65.2614 59.0028 65.0898 59.8609C64.9754 60.7189 64.8324 61.6627 64.6608 62.6923C64.4892 63.6648 64.3176 64.6372 64.146 65.6096C64.0316 66.582 63.9172 67.4115 63.8028 68.0979C63.6312 69.0703 63.9172 69.9283 64.6608 70.672C65.004 71.0152 65.2614 71.244 65.433 71.3584C65.5474 71.4728 65.6618 71.5872 65.7762 71.7016C65.8334 71.816 65.862 71.9876 65.862 72.2164C65.8048 72.388 65.6618 72.4738 65.433 72.4738H52.1337C51.9621 72.4738 51.8191 72.388 51.7046 72.2164C51.7046 71.9876 51.7618 71.816 51.8763 71.7016L54.2787 69.2991C54.6791 68.8987 54.9651 68.3839 55.1367 67.7547C55.3083 66.8967 55.5371 65.6096 55.8232 63.8936C56.1664 62.1203 56.5096 60.2613 56.8528 58.3164C57.196 56.3144 57.5392 54.3981 57.8824 52.5677C58.2256 50.68 58.483 49.1928 58.6546 48.106C58.8262 47.1335 58.5402 46.2755 57.7966 45.5319L56.2522 43.9875C56.1378 43.8731 56.0806 43.7587 56.0806 43.6443C56.0806 43.587 56.1378 43.5012 56.2522 43.3868C56.6526 42.9864 57.053 42.5574 57.4534 42.0998L59.5127 40.0406C60.0275 39.5257 60.3135 39.0109 60.3707 38.4961C60.5423 37.6381 60.7711 36.3797 61.0571 34.7208C61.3431 33.0048 61.6577 31.2029 62.0009 29.3153C62.3441 27.4276 62.6873 25.5972 63.0305 23.8239C63.3738 21.9935 63.6312 20.5634 63.8028 19.5338C63.9744 18.5614 63.6884 17.7034 62.9447 16.9598C62.6587 16.6165 62.3441 16.3019 62.0009 16.0159C61.8865 15.8443 61.7435 15.7013 61.5719 15.5869C61.4003 15.4153 61.3717 15.2437 61.4861 15.0721C61.6005 14.9005 61.7435 14.8147 61.9151 14.8147H79.4188C79.6476 14.8147 79.7906 14.9005 79.8478 15.0721C79.9622 15.2437 79.9336 15.4153 79.762 15.5869L78.1317 17.2172C77.4453 17.9036 77.1879 18.7616 77.3595 19.7912C77.5311 20.8209 77.7599 22.2223 78.0459 23.9955C78.3891 25.7688 78.7324 27.5992 79.0756 29.4869C79.4188 31.3745 79.7334 33.1478 80.0194 34.8066C80.3054 36.4655 80.5342 37.6953 80.7058 38.4961C80.763 39.0109 81.049 39.5257 81.5638 40.0406C81.8498 40.3266 82.1644 40.6698 82.5077 41.0702C82.9081 41.4134 83.2799 41.7566 83.6231 42.0998C84.0235 42.5574 84.4239 42.9864 84.8243 43.3868C84.9387 43.5012 84.9959 43.587 84.9959 43.6443C84.9959 43.7587 84.9387 43.8731 84.8243 43.9875L83.2799 45.5319C82.5363 46.2755 82.2502 47.1335 82.4219 48.106C82.5935 49.1928 82.8509 50.68 83.1941 52.5677C83.5373 54.3981 83.8805 56.3144 84.2237 58.3164C84.6241 60.2613 84.9673 62.1203 85.2533 63.8936C85.5965 65.6096 85.8539 66.8967 86.0255 67.7547C86.1399 68.3267 86.3974 68.8415 86.7978 69.2991L89.2002 71.7016ZM73.8416 48.6208C74.0132 48.4492 74.0704 48.249 74.0132 48.0202C73.8988 47.2193 73.6986 45.9609 73.4126 44.2449C73.1266 42.4716 72.812 40.584 72.4688 38.5819C72.1828 36.5799 71.8682 34.635 71.525 32.7474C71.239 30.8025 71.0102 29.2581 70.8385 28.114C70.8385 27.9424 70.7527 27.8566 70.5811 27.8566C70.3523 27.8566 70.2379 27.9424 70.2379 28.114C70.0663 29.2581 69.8089 30.8025 69.4657 32.7474C69.1797 34.635 68.8651 36.5799 68.5219 38.5819C68.2359 40.584 67.9499 42.4716 67.6639 44.2449C67.3779 45.9609 67.1777 47.2193 67.0633 48.0202C67.0061 48.249 67.0633 48.4492 67.2349 48.6208C67.3493 48.7924 67.5209 48.8782 67.7497 48.8782H73.3268C73.6128 48.8782 73.7844 48.7924 73.8416 48.6208Z" fill="black"/>
<path d="M124.338 71.7016C124.453 71.9304 124.481 72.102 124.424 72.2164C124.367 72.388 124.224 72.4738 123.995 72.4738H110.696C110.581 72.4738 110.467 72.388 110.352 72.2164C110.238 72.0448 110.267 71.8732 110.438 71.7016L111.468 70.672C112.326 69.8139 112.555 68.8129 112.154 67.6689C111.811 66.6965 111.354 65.438 110.782 63.8936C110.267 62.3491 109.695 60.6331 109.065 58.7454C108.436 56.8578 107.75 54.9129 107.006 52.9109C106.32 50.9088 105.662 48.9926 105.033 47.1621C104.404 45.3317 103.832 43.6442 103.317 42.0998C102.802 40.5554 102.373 39.3255 102.03 38.4103C101.972 38.2387 101.858 38.1529 101.686 38.1529C101.515 38.2101 101.429 38.3245 101.429 38.4961V67.9263C101.429 68.6127 101.715 69.2991 102.287 69.9855L104.003 71.7016C104.118 71.816 104.175 71.9876 104.175 72.2164C104.118 72.388 103.975 72.4738 103.746 72.4738H90.4464C90.2748 72.4738 90.1318 72.388 90.0174 72.2164C90.0174 71.9876 90.0746 71.816 90.189 71.7016C90.3606 71.53 90.5608 71.3298 90.7896 71.101C90.9612 70.9294 91.1328 70.7292 91.3044 70.5004C91.5332 70.2715 91.7334 70.0713 91.905 69.8997C92.477 69.3849 92.763 68.6985 92.763 67.8405V47.8486C92.763 46.9905 92.477 46.2755 91.905 45.7035L90.189 43.9875C90.0746 43.8731 90.0174 43.7587 90.0174 43.6443C90.0174 43.5298 90.0746 43.4154 90.189 43.301L91.905 41.585C92.477 41.013 92.763 40.298 92.763 39.4399V19.448C92.763 18.59 92.477 17.9036 91.905 17.3888C91.7334 17.16 91.5332 16.9598 91.3044 16.7881C91.1328 16.5593 90.9612 16.3591 90.7896 16.1875C90.5608 15.9587 90.3606 15.7585 90.189 15.5869C90.0746 15.4725 90.0174 15.3009 90.0174 15.0721C90.1318 14.9005 90.2748 14.8147 90.4464 14.8147H103.746C103.975 14.8147 104.118 14.9005 104.175 15.0721C104.175 15.3009 104.118 15.4725 104.003 15.5869L103.832 15.7585C102.974 16.6165 102.745 17.6176 103.145 18.7616C103.431 19.6768 103.832 20.9067 104.346 22.4511C104.861 23.9955 105.405 25.683 105.977 27.5134C106.549 29.3439 107.149 31.2601 107.778 33.2622C108.465 35.2642 109.094 37.1805 109.666 39.0109C110.238 40.8414 110.782 42.5574 111.296 44.1591C111.811 45.7035 112.212 46.9333 112.498 47.8486C112.612 48.0202 112.726 48.106 112.841 48.106C113.012 47.9344 113.098 47.82 113.098 47.7628V19.448C113.098 18.6472 112.812 17.9608 112.24 17.3888L110.438 15.5869C110.267 15.4153 110.238 15.2437 110.352 15.0721C110.467 14.9005 110.581 14.8147 110.696 14.8147H123.995C124.224 14.8147 124.367 14.9005 124.424 15.0721C124.481 15.1865 124.453 15.3581 124.338 15.5869C124.167 15.7585 123.966 15.9587 123.738 16.1875C123.566 16.3019 123.366 16.4735 123.137 16.7023C122.965 16.8739 122.765 17.0742 122.536 17.303C121.964 17.9894 121.678 18.6758 121.678 19.3622V39.5257C121.678 40.3266 121.964 41.013 122.536 41.585C122.765 41.7566 122.965 41.9568 123.137 42.1856C123.366 42.3572 123.566 42.5288 123.738 42.7004C123.966 42.9292 124.167 43.1294 124.338 43.301C124.395 43.3582 124.424 43.4726 124.424 43.6443C124.424 43.8159 124.395 43.9303 124.338 43.9875C124.167 44.1591 123.966 44.3593 123.738 44.5881C123.566 44.7025 123.366 44.8741 123.137 45.1029C122.965 45.2745 122.765 45.4747 122.536 45.7035C121.964 46.2755 121.678 46.9619 121.678 47.7628V67.9263C121.678 68.6127 121.964 69.2991 122.536 69.9855L124.338 71.7016Z" fill="black"/>
<path d="M153.029 15.0721C153.143 15.1865 153.201 15.3581 153.201 15.5869V25.6258C153.201 25.7974 153.115 25.9404 152.943 26.0548C152.829 26.112 152.657 26.0834 152.428 25.969C152.2 25.7402 151.999 25.5114 151.828 25.2826C151.656 25.111 151.456 24.9108 151.227 24.682C150.998 24.4531 150.77 24.2529 150.541 24.0813C150.026 23.5093 149.34 23.2233 148.482 23.2233H144.449C143.934 23.2233 143.677 23.4521 143.677 23.9097V39.5257C143.677 40.3266 143.963 41.013 144.535 41.585L146.336 43.3868C146.451 43.5012 146.508 43.587 146.508 43.6443C146.508 43.7587 146.451 43.8731 146.336 43.9875C146.165 44.1591 145.965 44.3593 145.736 44.5881C145.564 44.7597 145.364 44.9599 145.135 45.1887C144.964 45.3603 144.763 45.5319 144.535 45.7035C143.963 46.3899 143.677 47.1049 143.677 47.8486V67.9263C143.677 68.6127 143.963 69.2991 144.535 69.9855C144.763 70.1571 144.964 70.3573 145.135 70.5862C145.364 70.7578 145.564 70.9294 145.736 71.101C145.965 71.3298 146.165 71.53 146.336 71.7016C146.508 71.8732 146.537 72.0448 146.422 72.2164C146.365 72.388 146.222 72.4738 145.993 72.4738H132.78C132.608 72.4738 132.465 72.388 132.351 72.2164C132.294 72.102 132.322 71.9304 132.437 71.7016C132.608 71.53 132.808 71.3298 133.037 71.101C133.209 70.9294 133.409 70.7578 133.638 70.5862C133.867 70.3573 134.067 70.1571 134.238 69.9855C134.81 69.2991 135.096 68.6127 135.096 67.9263V47.8486C135.096 47.1049 134.81 46.3899 134.238 45.7035C134.067 45.5319 133.867 45.3603 133.638 45.1887C133.409 44.9599 133.209 44.7597 133.037 44.5881C132.808 44.3593 132.608 44.1591 132.437 43.9875C132.379 43.9303 132.351 43.8159 132.351 43.6443C132.351 43.5298 132.379 43.444 132.437 43.3868L134.238 41.585C134.81 41.013 135.096 40.3266 135.096 39.5257V23.9097C135.096 23.4521 134.839 23.2233 134.324 23.2233H130.291C129.433 23.2233 128.747 23.5093 128.232 24.0813C128.003 24.2529 127.775 24.4531 127.546 24.682C127.374 24.9108 127.174 25.111 126.945 25.2826C126.774 25.5114 126.573 25.7402 126.345 25.969C126.116 26.0834 125.944 26.112 125.83 26.0548C125.658 25.9404 125.572 25.7974 125.572 25.6258V15.5869C125.572 15.0721 125.83 14.8147 126.345 14.8147H152.514C152.686 14.8147 152.857 14.9005 153.029 15.0721Z" fill="black"/>
<path d="M166.509 23.2233C165.994 23.2233 165.737 23.4521 165.737 23.9097V38.7535C165.737 39.2111 165.994 39.4399 166.509 39.4399H173.888C174.689 39.4399 175.375 39.1539 175.947 38.5819C176.176 38.3531 176.405 38.1529 176.633 37.9813C176.862 37.7525 177.062 37.5523 177.234 37.3807C177.406 37.1519 177.606 36.9231 177.835 36.6943C178.063 36.5799 178.235 36.5513 178.349 36.6085C178.521 36.6657 178.607 36.8087 178.607 37.0375V50.3368C178.607 50.4512 178.521 50.5656 178.349 50.68C178.178 50.7944 178.006 50.7658 177.835 50.5942L175.861 48.6208C175.289 48.0488 174.603 47.7628 173.802 47.7628H166.509C166.28 47.7628 166.108 47.8486 165.994 48.0202C165.822 48.0774 165.737 48.249 165.737 48.535V63.3788C165.737 63.6076 165.822 63.7792 165.994 63.8936C166.108 64.0652 166.28 64.151 166.509 64.151H176.977C177.72 64.151 178.435 63.865 179.122 63.293C179.35 63.0642 179.551 62.8354 179.722 62.6065C179.951 62.3777 180.18 62.1775 180.409 62.0059C180.637 61.7771 180.866 61.5483 181.095 61.3195C181.152 61.1479 181.295 61.1193 181.524 61.2337C181.696 61.2909 181.782 61.4339 181.782 61.6627V71.7874C181.782 72.245 181.553 72.4738 181.095 72.4738H154.754C154.582 72.4738 154.439 72.388 154.325 72.2164C154.325 71.9876 154.382 71.816 154.496 71.7016L156.298 69.8997C156.87 69.3277 157.156 68.6413 157.156 67.8405V47.8486C157.156 47.0477 156.87 46.3613 156.298 45.7893L154.496 43.9875C154.382 43.8731 154.325 43.7587 154.325 43.6443C154.325 43.587 154.382 43.5012 154.496 43.3868L156.298 41.585C156.87 40.8986 157.156 40.1836 157.156 39.4399V19.448C157.156 18.6472 156.87 17.9608 156.298 17.3888L154.496 15.5869C154.382 15.5297 154.325 15.3581 154.325 15.0721C154.439 14.9005 154.582 14.8147 154.754 14.8147H181.095C181.553 14.8147 181.782 15.0721 181.782 15.5869V25.6258C181.782 25.7974 181.696 25.9404 181.524 26.0548C181.353 26.112 181.21 26.0834 181.095 25.969C180.866 25.7402 180.637 25.5114 180.409 25.2826C180.237 25.111 180.037 24.9108 179.808 24.682C179.579 24.4531 179.35 24.2529 179.122 24.0813C178.607 23.5093 177.92 23.2233 177.062 23.2233H166.509Z" fill="black"/>
<path d="M217.669 43.3868C217.783 43.5012 217.841 43.587 217.841 43.6443C217.841 43.7587 217.783 43.8731 217.669 43.9875L215.953 45.7035C215.381 46.2755 215.095 46.9905 215.095 47.8486V60.2899C215.095 62.5779 214.666 64.6086 213.808 66.3818C213.465 67.1255 213.007 67.8691 212.435 68.6127C211.92 69.3563 211.234 70.0141 210.376 70.5862C209.575 71.1582 208.603 71.6158 207.459 71.959C206.372 72.3022 205.056 72.4738 203.512 72.4738H185.064C184.893 72.4738 184.75 72.388 184.635 72.2164C184.635 71.9876 184.692 71.816 184.807 71.7016L186.523 69.9855C187.095 69.4135 187.381 68.7271 187.381 67.9263V47.8486C187.381 46.9905 187.095 46.2755 186.523 45.7035L185.407 44.5881C185.179 44.3593 184.978 44.1591 184.807 43.9875C184.692 43.8731 184.635 43.7587 184.635 43.6443C184.635 43.587 184.692 43.5012 184.807 43.3868C184.978 43.2152 185.179 43.015 185.407 42.7862C185.579 42.6146 185.751 42.4144 185.922 42.1856C186.151 41.9568 186.351 41.7566 186.523 41.585C187.095 41.0702 187.381 40.3838 187.381 39.5257V19.448C187.381 18.59 187.095 17.9036 186.523 17.3888C186.351 17.16 186.151 16.9598 185.922 16.7881C185.751 16.5593 185.579 16.3591 185.407 16.1875C185.179 15.9587 184.978 15.7585 184.807 15.5869C184.692 15.5297 184.635 15.3581 184.635 15.0721C184.807 14.9005 184.95 14.8147 185.064 14.8147H203.512C206.543 14.8147 208.831 15.4439 210.376 16.7023C211.977 17.9608 213.121 19.3622 213.808 20.9067C214.666 22.6799 215.095 24.7106 215.095 26.9986V39.5257C215.095 40.3838 215.381 41.0702 215.953 41.585C216.125 41.7566 216.296 41.9568 216.468 42.1856C216.697 42.4144 216.897 42.6146 217.068 42.7862C217.297 43.015 217.497 43.2152 217.669 43.3868ZM206.429 26.3122C206.429 25.6258 206.314 25.0824 206.086 24.682C205.857 24.2243 205.571 23.9097 205.228 23.7381C204.942 23.5093 204.627 23.3663 204.284 23.3091C203.941 23.2519 203.626 23.2233 203.34 23.2233H196.733C196.504 23.2233 196.333 23.2805 196.218 23.3949C196.104 23.6237 196.047 23.7953 196.047 23.9097V63.3788C196.047 63.6076 196.104 63.7792 196.218 63.8936C196.39 64.0652 196.562 64.151 196.733 64.151H203.34C203.912 64.151 204.57 63.9794 205.313 63.6362C206.057 63.293 206.429 62.4063 206.429 60.9763V26.3122Z" fill="black"/>
<path fill-rule="evenodd" clip-rule="evenodd" d="M220.741 43.2895C220.822 43.187 221.407 43.1476 222.616 43.0827C223.119 42.3111 223.666 42.164 224.97 42.2557C226.009 42.3797 227.072 42.3362 228.116 42.1179L230.701 42.0145C232.119 41.8245 233.819 39.8958 233.419 37.5738C234.216 36.4949 234.559 35.8174 234.892 34.4145C235.229 32.9692 235.572 32.236 236.365 31.0211C236.445 29.3166 236.818 28.4929 237.955 27.2181C238.653 25.1317 239.241 24.1326 240.842 22.8301C242.733 21.4969 243.679 20.5377 245.202 18.5006C247.893 17.0995 249.715 16.3643 254.039 15.2242C254.935 15.0087 255.438 15.0292 256.337 15.5168C259.175 15.8504 260.234 14.8147 260.756 14.8147C260.724 14.8147 260.788 14.8147 261.286 14.8147C261.39 14.8147 261.577 14.8147 261.934 14.8147C262.582 14.8147 262.877 14.8147 263.348 14.8147H263.346C263.329 14.8147 263.318 14.8147 263.525 14.8147C263.954 14.8147 264.072 14.8147 264.114 14.8147C264.357 14.8147 264.49 14.8147 264.703 14.8147C265.085 14.8147 265.29 14.8147 265.174 14.8147C265.562 14.8147 265.684 14.8147 265.763 14.8147C266.396 14.8147 267.687 16.2163 270.3 15.8678C272.07 15.3794 272.843 15.4848 274.011 16.0433C276.827 16.6549 277.745 17.2332 278.666 18.6176C281.084 19.9345 282.508 20.8348 285.088 22.5376C286.409 25.6061 287.403 27.1657 289.506 29.7339C289.991 31.9703 290.166 33.2411 292.04 35.2336C292.304 38.7662 294.145 41.8914 294.934 42.0936C297.15 42.4811 298.407 42.4066 300.645 42.3573C301.069 42.4852 301.372 42.5509 302.062 42.654C302.439 42.8018 302.659 42.7754 303.058 42.654C303.908 42.5505 304.398 42.5846 305.272 42.654C305.556 42.9479 305.547 43.0845 305.272 43.2804L303.523 43.61C303.095 44.0354 302.816 44.2257 302.261 44.5001C301.426 44.4283 300.971 44.4174 300.202 44.5001C299.412 44.6721 297.36 44.9075 294.934 44.8872C294.195 45.1626 293.62 46.6409 292.688 48.1636C289.187 52.1623 288.456 53.3349 288.033 54.6579C287.303 55.5828 287.188 56.2154 287.15 57.4077C286.18 59.7546 285.511 60.9838 284.145 63.0243L278.666 67.8219C277.005 69.9464 275.986 70.7216 273.894 70.8057H269.711C266.157 71.1491 268.506 72.5925 266.087 72.4657C266.051 72.4657 264.998 72.5925 264.644 72.5925C264.595 72.5925 264.644 72.5925 264.194 72.5925C263.501 72.5925 263.692 72.5925 263.556 72.5925C263.336 72.5925 263.224 72.5925 263.085 72.5925C262.593 72.5925 262.385 72.5925 262.083 72.5925C261.994 72.5925 262.227 72.5925 261.286 72.5925C260.847 72.5925 260.716 72.5925 260.638 72.5925C260.367 72.5925 260.282 72.5925 260.225 72.5925C259.738 72.5925 258.503 71.3911 255.983 71.1035C253.704 70.4626 252.376 69.8097 249.856 69.3431C248.139 68.796 247.253 68.3494 245.791 67.3538C245.153 66.5525 244.735 66.215 243.965 65.6571C242.497 64.6704 241.798 64.1043 240.666 63.0828C239.459 61.814 239.267 60.9026 239.487 59.0459C239.251 56.81 238.655 55.9804 237.484 54.5993C237.162 53.344 236.257 52.1593 234.362 49.8603C233.699 46.6468 232.02 44.5453 231.062 44.4955C228.706 44.5851 226.72 44.625 225.03 44.3921C224.385 44.0748 224.028 43.9103 223.514 43.9441C222.805 44.0073 222.407 44.0572 221.698 43.9441C220.995 43.6816 220.753 43.5377 220.741 43.2895ZM276.781 47.2274C275.478 52.2701 271.572 56.6658 266.353 57.7587C265.556 57.472 265.186 57.238 264.762 56.5886C264.028 55.8044 264.016 53.7685 263.997 50.1888L263.996 50.0943C263.67 49.3922 263.524 48.8674 263.348 47.637C262.929 47.1356 262.666 47.0199 262.052 47.637V50.0943C261.601 51.6714 261.441 52.569 261.286 54.1898C260.35 56.8408 258.994 57.2396 255.866 56.9981C251.919 54.633 250.342 52.6783 248.442 48.2806C247.895 45.1387 248.638 44.0258 253.804 44.4191C255.431 44.802 256.143 44.6125 257.398 44.2436C260.449 43.9188 260.693 43.6295 257.398 42.8394L254.923 41.7278L254.909 41.72C254.36 41.4071 254.048 41.2292 248.442 40.7917C247.284 39.5653 247.529 38.2082 249.739 34.473C251.037 34.3566 251.638 34.0942 251.86 32.3082C254.098 29.9649 255.625 28.986 259.577 28.7393C260.51 28.6148 260.99 28.7259 261.522 30.319L262.052 37.7493C262.664 40.9668 263.036 41.0748 263.76 37.5153C264.35 36.3944 264.565 35.4647 264.762 33.3613C264.884 30.7421 265.006 29.3384 266.765 28.7393C268.398 28.962 269.315 29.1961 270.948 29.7339C272.615 30.0877 273.722 31.1648 275.602 33.3613C276.96 36.8975 277.884 39.0186 275.956 41.4938C270.178 42.2925 264.802 42.6544 265.587 43.717C266.492 44.2253 267.361 44.3934 270.123 44.3021C271.02 44.4639 271.51 44.5651 272.185 44.8872C275.368 44.7262 276.743 44.9526 276.781 47.2274ZM250.033 31.0796C246.759 34.7956 245.361 37.0286 243.081 41.0842C241.256 41.5337 240.401 41.4213 239.428 40.0311C238.959 38.0815 239.067 37.1082 239.193 35.3506C239.992 34.1234 240.389 33.5399 241.078 32.5423C241.041 31.3375 241.1 30.7012 241.549 29.7339C243.091 27.5426 244.076 26.3275 245.968 24.1758C247.883 21.8008 249.129 20.7414 251.741 19.4367C253.962 18.9814 255.075 18.5536 256.808 17.506C258.044 17.8528 258.74 18.0535 260.166 18.7932C261.693 20.7817 261.611 22.0283 260.756 24.3513C256.803 25.9552 253.723 26.9681 253.391 28.0957C252.543 29.5449 251.843 30.2215 250.033 31.0796ZM267.295 18.3836C265.302 19.048 264.936 20.2567 265.292 23.5322C266.725 24.7385 267.676 25.2331 269.77 25.6385C271.866 26.6519 272.867 27.4172 274.483 28.9733C276.151 30.3364 276.962 31.222 277.841 33.3613C278.03 34.8907 278.133 35.7457 278.253 37.2228C278.813 37.9627 279.17 38.48 279.844 39.5046C280.076 40.642 280.27 41.0872 280.728 41.4938C282.306 41.7383 283.214 41.7494 284.852 41.6693C286.357 41.3581 287.016 40.9526 287.621 39.5046C287.12 34.3878 285.646 31.6013 282.142 26.6916C279.592 24.7127 278.16 23.5372 275.602 21.1334C272.21 19.1778 270.36 18.3894 267.295 18.3836ZM283.85 45.1797C281.289 44.9173 280.262 45.1855 280.315 47.5785L279.608 50.3869L276.722 54.3653C275.217 56.5638 274.271 57.5848 272.303 58.8118C267.877 60.0447 265.475 60.7316 265.174 61.7372C264.484 64.7155 264.456 65.9637 265.763 66.5932C267.461 66.9516 268.61 66.8701 270.948 66.3007C274.563 64.891 276.512 63.9811 279.785 62.0297C282.115 60.1255 283.244 58.8571 284.852 56.1205C286.171 53.9381 286.749 52.7189 287.15 50.5624C287.673 49.3796 287.804 48.6573 287.798 47.286C287.264 45.7651 286.147 45.4791 283.85 45.1797ZM260.873 64.487C260.381 65.9131 260.03 66.6608 258.811 67.5879C253.763 67.0174 251.362 66.0599 247.5 63.7264C245.345 61.6079 244.154 60.4099 242.61 57.9342C241.208 56.0978 240.605 54.9671 239.723 52.8441C239.543 50.6357 239.36 49.4026 238.662 47.2275C238.775 45.0253 239.694 44.4933 242.669 44.6532C243.884 44.8813 244.478 45.1129 244.554 46.7009C244.929 47.6629 245.25 48.3608 246.616 50.7379C247.919 52.7096 248.8 53.7624 250.504 55.594C252.697 57.2457 253.966 58.0622 256.337 59.2214C258.673 59.1749 259.711 59.4587 260.579 61.0936C261.028 62.4042 261.042 63.1495 260.873 64.487Z" fill="black"/>
</svg>
