<svg width="76" height="4" viewBox="0 0 76 4" fill="none" xmlns="http://www.w3.org/2000/svg">
<path d="M75.2761 3.97965C74.8502 4.03176 74.2919 3.97605 73.8677 3.89958C73.7347 3.87586 73.802 3.76984 73.7103 3.7487C73.5307 3.70748 73.3635 3.75947 73.1861 3.71037C73.1273 3.69358 73.2005 3.52565 73.1388 3.51188C72.801 3.43767 72.4814 3.48044 72.1392 3.44474C70.4535 3.26862 68.7966 3.20558 67.0903 3.12907C66.5277 3.10399 65.8437 2.95158 65.2626 3.01823C65.1948 3.02616 65.2352 3.17356 65.2223 3.18571C65.0199 3.37169 65.0872 3.07413 64.955 3.03459C64.4304 2.87849 63.8471 2.86491 63.3422 2.9218C63.1274 2.94643 63.3428 3.2392 63.1265 3.07487C63.1115 3.06377 63.166 2.90724 63.1071 2.89055C62.9735 2.853 62.7201 2.88098 62.6166 2.86857C62.417 2.84388 62.384 2.84546 62.1953 2.84367C61.9373 2.83987 61.6305 2.76206 61.3537 2.79753C61.2946 2.80557 61.3728 2.96602 61.2786 2.99333C61.1843 3.02059 60.9348 3.00699 60.8507 2.96916C60.7665 2.93132 60.8024 2.8052 60.7875 2.77629C60.665 2.5323 60.3764 2.87023 60.3393 2.87858C59.6622 3.02098 59.0816 2.82848 58.4461 2.82902C57.9636 2.82985 57.4477 2.8934 56.9887 2.88469C56.4418 2.87368 55.9782 2.78673 55.4469 2.80168C55.3908 2.80307 55.4565 2.99174 55.388 2.99382C54.6604 3.01577 53.9379 2.99521 53.2134 2.86784C53.1407 2.8549 53.2343 2.68926 53.1618 2.66643C52.7173 2.5303 52.0141 2.20328 51.7502 2.92448C51.4491 2.89632 51.0836 2.86722 50.8143 2.72185C50.6407 2.62828 50.8093 2.44783 50.596 2.52483C50.5479 2.54198 50.6104 2.70001 50.5383 2.71379C50.2345 2.77164 49.9027 2.72027 49.6022 2.80193C49.541 2.81891 49.5577 2.96051 49.5404 2.98601C49.3949 3.19251 49.1525 2.85114 49.0997 2.82634C48.6975 2.64137 48.4038 2.71416 48.0291 2.70964C47.9421 2.70851 48.0449 2.89872 47.9612 2.90446C47.5273 2.93172 47.0777 2.91538 46.6528 2.83098C46.5583 2.81175 46.6452 2.64973 46.6001 2.63225C46.4009 2.55715 46.3568 2.86316 46.1658 2.79704C46.1255 2.7835 46.1482 2.6448 46.1408 2.62956C46.0259 2.39044 45.926 2.72926 45.8964 2.73674C45.5224 2.83895 45.2833 2.48524 44.922 2.53533C44.8788 2.54167 44.9763 2.71717 44.8548 2.72429C44.0453 2.77274 43.1891 2.72453 42.3878 2.58415C42.2633 2.56256 42.3522 2.43073 42.3444 2.41448C42.2166 2.16054 42.1339 2.50078 42.0933 2.5136C41.7728 2.60583 41.4735 2.3205 41.2557 2.72575C39.8985 2.58512 38.5475 2.81269 37.2015 2.44963C37.1844 2.44543 37.2151 2.27786 37.1809 2.27019C36.7698 2.1761 36.8488 2.43653 36.5767 2.75505C36.5082 2.83503 36.2998 2.45048 36.2813 2.42229C36.2141 2.31841 36.2838 2.06912 36.2613 2.049C36.0751 1.89103 36.1054 2.71548 35.8543 2.71575C35.8464 2.71437 35.8794 2.56262 35.8583 2.54753C35.7928 2.50016 35.7279 2.56046 35.6638 2.50823C35.5171 2.38735 35.4648 1.98675 35.2408 2.2199C35.2124 2.25016 35.2557 2.71782 35.0315 2.69573C34.9421 2.68652 34.5463 2.69454 34.4354 2.66423C34.3246 2.63396 34.4007 2.48326 34.3928 2.47673C34.0943 2.27745 34.2075 2.19486 34.0579 1.89983C33.9084 1.60591 33.9499 2.30694 33.8889 2.38518C33.8279 2.4632 33.609 2.29878 33.5552 2.24163C33.5015 2.18444 33.5685 2.08868 33.5207 2.05632C33.2038 1.84491 33.3816 2.40429 33.2772 2.51555C33.031 2.779 32.8392 2.25912 32.6139 2.20818C32.5529 2.19442 32.6026 2.31283 32.5483 2.3239C32.3332 2.36619 32.2039 2.20397 31.9592 2.35271C31.9192 2.37695 31.7214 2.68951 31.5933 2.46013C31.5752 2.42705 31.6267 2.2975 31.5351 2.26848C31.3981 2.22493 31.1514 2.19661 31.0042 2.23992C30.8956 2.27196 31.0201 2.48543 30.8833 2.41912C30.8225 2.3895 30.9352 2.26462 30.821 2.21941C30.7074 2.17421 30.4169 2.1797 30.3064 2.18401C30.1961 2.18842 30.2565 2.35035 30.2475 2.36125C30.1936 2.42375 29.9818 2.50183 29.9631 2.50164C29.0193 2.5214 28.149 2.24845 27.2301 2.33879C27.158 2.34565 27.206 2.51641 27.195 2.51921C26.9481 2.59076 27.1428 2.13675 26.9703 1.98479C26.9952 2.33131 26.8934 2.26857 26.7195 2.30657C26.6357 2.32516 26.6814 2.45934 26.6737 2.47307C26.5495 2.67687 26.4629 2.41364 26.4406 2.35979C26.3583 2.16171 26.2688 2.39576 26.2128 2.26335C26.1568 2.13194 26.2856 1.93713 26.1188 1.93963C26.0721 2.06367 26.1959 2.38782 26.0693 2.44036C25.5915 2.63908 24.6997 2.38474 24.3155 2.35833C23.9322 2.33193 23.8083 2.35481 23.585 2.30999C23.1814 2.22893 23.3293 2.46943 23.0788 2.57952C22.8275 2.68959 22.9496 2.09784 22.9135 1.97063C22.878 1.84348 22.8393 1.97437 22.7952 1.90447C22.7513 1.83459 22.8464 1.74809 22.743 1.72185C22.6396 1.69564 22.3567 1.92185 22.32 2.05486C22.2425 2.33665 22.37 2.63241 22.0962 2.52849C22.0805 2.52232 22.1316 2.36673 22.0713 2.351C21.5925 2.23122 21.095 2.22379 20.6168 2.11785C20.551 2.10304 20.6098 1.92994 20.5715 1.91936C20.1729 1.80865 20.3154 2.10051 20.097 2.42473C20.146 1.99326 20.0252 1.72928 19.7227 1.72674C19.5408 1.72505 19.5721 1.9135 19.4545 2.04632C19.4192 2.08635 19.2905 1.95696 19.2672 2.04558C19.1903 2.33528 19.3115 2.65958 18.9996 2.53044C18.9859 2.52431 19.0295 2.36573 18.9822 2.35613C18.6766 2.29327 18.64 2.59629 18.3096 2.63298C18.0506 2.66178 17.5901 2.477 17.2952 2.44695C17.3014 1.96185 17.0229 2.07293 16.9099 2.4074C16.7185 2.39371 16.5118 2.41261 16.3269 2.36638C16.2632 2.35062 16.305 2.21017 16.297 2.195C16.1739 1.95694 16.0907 2.28234 16.0494 2.29509C15.6017 2.4191 15.237 2.17248 14.8097 2.4135C14.7946 2.42218 14.77 2.75915 14.6558 2.51311C14.6484 2.49615 14.7895 2.34284 14.5885 2.33098C14.3875 2.3191 14.0086 2.13846 13.7295 2.29461C13.662 2.3322 13.4911 2.60574 13.354 2.39202C13.3358 2.363 13.3558 2.26635 13.3294 2.21257C13.2442 2.04122 13.1976 2.3818 13.0975 2.09246C12.9973 1.80312 12.7889 1.58643 12.5075 1.78606C12.4985 1.79187 12.4319 2.06181 12.3434 2.05755C12.2021 2.0505 12.0015 1.99426 11.854 1.99602C11.7834 1.99696 11.8286 2.16459 11.8163 2.16765C11.3414 2.26158 11.0034 2.11215 10.4946 2.04729C10.4013 2.03507 10.1333 2.26365 9.95274 2.08294C9.75446 1.88511 9.95819 1.06217 9.5025 1.25823C9.31868 1.33665 9.08599 2.38069 8.75567 1.83977C8.11504 1.97381 7.52259 1.69697 6.88019 1.88836C6.8513 1.89684 6.75996 2.18822 6.69203 2.18426C6.59121 2.1778 6.53585 2.04162 6.46387 2.03264C6.16219 1.99162 5.88613 2.10814 5.59528 2.09002C5.48485 2.08343 5.52345 1.94262 5.39175 1.93474C5.26013 1.92701 5.17235 2.11244 4.99399 2.02288C4.85927 1.95462 4.72458 1.5756 4.54577 1.53143C4.53897 1.90528 4.41614 1.89758 4.19787 1.99627C4.15592 2.01542 4.20091 2.14554 4.18105 2.16131C4.1003 2.22837 4.02552 2.12053 3.94883 2.19353C3.93017 2.21107 3.9293 2.33874 3.91404 2.36028C3.78436 2.5483 3.57066 2.26111 3.53396 2.21111C3.39331 2.02121 3.32757 2.18726 3.21969 2.11248C3.11199 2.03771 3.27302 1.94423 3.14721 1.89886C2.88641 1.805 2.55132 1.82562 2.28644 1.81975C2.18076 1.8182 2.25287 1.98863 2.23774 1.99236C2.0192 2.03559 1.7982 1.8543 1.67704 2.19378C1.52552 1.31602 1.54525 2.27891 1.23289 2.1032C1.20827 2.08899 1.17699 1.67391 1.27144 1.61297C1.36591 1.55209 1.50915 1.68184 1.64022 1.58685C1.67126 1.56455 1.84906 1.17559 1.87331 1.15203C2.06334 0.967892 2.09025 1.58818 2.10032 1.62225C2.21434 1.98991 2.43158 1.57088 2.48881 1.54192C2.75056 1.40925 2.97293 1.49649 3.19185 1.40179C3.33505 1.34058 3.34904 0.934273 3.46148 0.946711C3.83523 0.987817 3.96571 1.55462 4.31789 1.06317C4.39342 0.958347 4.31838 0.514263 4.58896 0.863459C4.60598 0.885473 4.80686 1.20492 4.92296 1.00286C4.93753 0.977386 4.93706 0.847964 4.9563 0.837092C5.08515 0.766766 5.17106 0.869872 5.31145 0.82049C5.45179 0.771109 5.62057 0.697492 5.78082 0.741389C5.87739 0.767638 6.00131 1.00877 6.04755 1.0678C6.17809 1.23787 6.31805 0.959034 6.39893 1.16497C6.48048 1.37195 6.32104 1.68627 6.5349 1.82C6.54283 1.48375 6.56101 1.13863 6.57375 0.800471C7.0424 0.812309 7.50353 0.921038 7.97375 0.906183C8.03206 0.904005 7.97243 0.723237 8.03493 0.716242C8.29861 0.687524 8.5289 0.816388 8.80235 0.76507C9.01401 0.724656 9.24608 0.533261 9.46742 0.485042C9.60259 0.869804 9.93102 0.739186 10.1696 0.774347C10.2532 0.786497 10.2476 0.889259 10.307 0.922784C10.5312 1.04677 10.4262 0.706763 10.4876 0.653254C10.7514 0.424887 10.7739 1.19448 11.0849 1.17547C11.1013 1.17472 11.3027 0.764493 11.3304 0.738947C11.5066 0.572365 11.3596 0.881732 11.4699 0.912042C11.6712 0.967433 11.8111 1.0654 12.0474 0.945245C12.1163 0.909655 12.2815 0.653964 12.4153 0.85174C12.4329 0.877637 12.4232 1.01323 12.4373 1.02117C12.6937 1.15354 12.7005 0.727481 12.847 0.583186C12.9935 0.438922 13.2198 0.733036 13.2659 0.817804C13.3864 1.03709 13.1736 0.91152 13.1671 0.933038C13.0904 1.18913 13.2555 1.14504 13.3816 1.16668C13.3999 1.58444 13.5762 1.55936 13.5123 1.18743C13.5051 1.14681 13.4069 1.18577 13.3816 1.16668C13.4923 0.756805 13.6861 0.704312 13.9003 1.08733C14.0005 1.26685 13.9057 1.47616 14.2102 1.39959C14.3483 1.36502 14.295 1.07738 14.4169 0.998956C14.6955 0.820027 15.0574 1.08835 15.3446 1.04607C15.4489 1.03073 15.3473 0.87327 15.4186 0.857354C15.6076 0.814625 15.7743 0.932766 15.9642 0.872247C15.9814 0.866564 15.9393 0.701741 15.9984 0.69964C16.446 0.680498 16.8357 0.786069 17.303 0.788995C17.5288 0.790334 17.9325 0.69943 18.1664 0.717706C18.5718 0.748409 19.0705 0.988088 19.4168 0.929864C19.6427 0.892593 19.5931 0.727736 19.6899 0.615411C19.8767 0.397681 20.2073 0.787686 20.2518 0.848077C20.2531 0.850075 20.0588 0.888939 20.1625 0.973565C20.2228 1.1499 20.2496 0.848841 20.2518 0.848077C20.281 0.887089 20.6693 0.924513 20.7464 0.892998C20.7883 0.875777 20.7648 0.719583 20.7867 0.713556C21.3058 0.573778 21.8259 0.534079 22.3525 0.607111C22.3618 0.610266 22.3478 0.784978 22.3696 0.790215C22.6745 0.867896 22.8697 0.65417 23.1211 0.527277C23.3725 0.40044 23.5718 0.442922 23.7206 0.742852C23.9103 0.705088 24.1824 0.837687 24.339 0.918144C24.4956 0.9986 24.5175 0.658511 24.5312 0.651788C24.961 0.436596 25.2094 0.631258 25.6552 0.661553C25.8672 0.67654 26.2877 0.62721 26.5172 0.59002C26.6986 0.560061 26.8078 0.639762 26.975 0.5888C26.9976 0.581994 26.9747 0.430568 26.9816 0.424738C27.1682 0.243566 27.0785 0.61375 27.117 0.679864C27.2566 0.920288 27.3429 1.04834 27.5818 0.935234C27.6368 0.909332 27.7973 0.376319 27.8978 0.345148C28.0283 0.305598 27.9791 0.496651 28.1158 0.450372C28.1275 0.446587 28.125 0.32872 28.2094 0.333918C28.6011 0.356491 29.0282 0.425075 29.4352 0.413263C29.4908 0.412101 29.4195 0.225148 29.4998 0.220392C29.8768 0.198231 30.29 0.20515 30.6572 0.292658C30.7476 0.314785 30.6909 0.445685 30.7105 0.484552C30.831 0.719721 31.0018 0.378026 31.03 0.371515C31.7024 0.207312 32.217 0.516543 32.9023 0.369317C32.9396 0.360674 33.2268 -0.00563054 33.3549 0.308527C33.3637 0.329428 33.4904 0.650843 33.6025 0.431085C33.6094 0.417337 33.5305 0.251867 33.6683 0.268732C33.8061 0.28556 34.0279 0.17506 34.2174 0.356866C34.2774 0.414138 34.4191 0.73476 34.598 0.47918C34.6097 0.461338 34.8859 -0.116564 34.9845 0.282159C35.0005 0.347793 34.9838 0.769733 35.1973 0.553399C35.2381 0.511458 35.164 0.417343 35.2715 0.358575C35.4362 0.268 35.6544 0.38101 35.8569 0.193048C35.8922 0.159772 36.0425 -0.126615 36.163 0.0907535C36.1819 0.124797 36.146 0.265662 36.2097 0.281427C36.5125 0.357046 36.8295 0.262821 37.1369 0.360284C37.2457 0.394531 37.1901 0.622255 37.3036 0.683281C37.4171 0.744286 37.6458 0.80297 37.7645 0.698906C37.8833 0.594796 37.7536 0.231857 37.9315 0.202814C38.7052 0.0766783 39.4716 0.289588 40.2442 0.320733C40.3588 0.325384 40.2638 0.195513 40.4326 0.193048C41.0552 0.183386 42.13 0.0616179 42.6702 0.337578C43.1031 0.558607 42.5584 0.72688 42.8891 0.816825C43.0487 0.859731 43.2214 0.437776 43.2599 0.424492C43.6363 0.289552 43.8979 0.476469 44.2367 0.419121C44.3066 0.407221 44.238 0.236198 44.2975 0.227959C44.5009 0.198301 44.7146 0.274637 44.909 0.260674C44.9962 0.254017 44.9801 0.123396 45.0603 0.133477C45.2523 0.156095 45.422 0.211002 45.6091 0.333428C45.6262 0.344584 45.5112 0.507071 45.6532 0.513115C45.883 0.522434 46.1683 0.643206 46.4328 0.518486C46.5112 0.480967 46.5143 0.182436 46.683 0.388603C46.7184 0.431663 46.6732 0.790134 46.8697 0.4804C46.9027 0.428929 47.2328 0.0111547 47.3947 0.280449C47.4375 0.351324 47.5465 0.644663 47.6409 0.598563C47.6537 0.591208 47.6024 0.430855 47.6806 0.415214C47.9561 0.362881 48.2449 0.37999 48.528 0.329765C48.6036 0.316037 48.491 0.150104 48.6037 0.134942C48.9135 0.0930009 49.3003 0.13525 49.6033 0.187188C49.715 0.206651 49.6378 0.344104 49.6459 0.359062C49.7766 0.602362 49.8539 0.273963 49.8973 0.254814C50.1671 0.140154 50.3725 0.294416 50.6212 0.253594C50.6898 0.242744 50.6412 0.0861599 50.6548 0.0721977C50.7965 -0.0642234 50.691 0.216981 50.7807 0.247978C51.0319 0.335748 51.312 0.323163 51.5661 0.303154C51.6594 0.295574 51.5545 0.114011 51.6382 0.109307C52.134 0.0780204 52.6493 0.0953938 53.1331 0.195488C53.2242 0.214664 53.1668 0.354473 53.1858 0.386405C53.3167 0.609815 53.5084 0.305082 53.5526 0.276054C53.7532 0.143513 53.8311 0.267149 54.0083 0.244072C54.8739 0.129175 55.9426 0.211061 56.7596 0.26165C57.8243 0.326757 58.6505 0.45976 59.6658 0.425223C59.7303 0.423203 59.6652 0.237214 59.7209 0.233085C60.439 0.188249 61.1461 0.260926 61.8657 0.207206C61.9247 0.203127 61.8396 0.0268086 61.9344 0.0143356C62.1288 -0.0124847 62.3751 -0.00290152 62.5716 0.0533978C62.6675 0.0805241 62.5389 0.231821 62.6354 0.256034C62.8601 0.312758 63.101 0.325316 63.3318 0.297049C63.43 0.284636 63.2818 0.104307 63.4095 0.102226C64.2791 0.0843355 65.1332 0.0532781 66.0121 0.286795C66.0723 0.302833 66.1252 0.669334 66.2533 0.59905C66.2629 0.497336 66.2624 0.377689 66.2666 0.268973C67.5326 0.210409 68.7857 0.337463 70.0553 0.357107C70.1088 0.357894 70.0163 0.163703 70.1199 0.164237C70.7197 0.167108 71.3021 0.113311 71.9157 0.306326C71.9765 0.325202 71.9453 0.666831 72.1247 0.615163C72.1563 0.605735 72.4265 0.560174 72.4964 0.486013C72.5059 0.474826 72.4566 0.315368 72.5436 0.31072C73.0496 0.286506 73.5798 0.32291 74.0848 0.420339C74.1663 0.436368 74.0795 0.606179 74.1376 0.619069C74.5494 0.709211 74.9974 0.580125 75.3909 0.734303C75.6543 0.838115 75.5568 1.13165 75.6968 1.42058C75.7166 1.46134 75.8797 1.4678 75.8881 1.63591C75.9098 2.05863 75.8308 2.52151 75.8632 2.97209C75.87 3.06914 76.0885 2.96461 75.9591 3.19914C75.9501 3.21483 75.7917 3.29267 75.7527 3.37223C75.7256 3.42724 75.7745 3.59821 75.7191 3.66862C75.6637 3.73897 75.6028 3.59566 75.5109 3.67839C75.4191 3.76214 75.4595 3.95663 75.2761 3.97965ZM25.0441 1.27776C25.1891 1.44109 25.2105 0.842897 25.0537 0.986015C25.0461 0.993643 25.0366 1.26975 25.0441 1.27776ZM7.5009 1.37225C7.69047 1.63609 7.82018 1.24813 7.68645 1.04437C7.55274 0.840817 7.44315 1.29227 7.5009 1.37225ZM5.53526 1.56487C5.75682 1.7729 5.79167 0.924645 5.5544 1.09612C5.54059 1.10581 5.52231 1.55279 5.53526 1.56487ZM75.0476 1.50286C75.0496 1.5108 75.1669 1.51854 75.1697 1.51067C75.2321 1.32068 74.9977 1.30533 75.0476 1.50286ZM3.58469 1.77459C3.65385 1.88933 3.85299 1.75687 3.76705 1.61419C3.69788 1.4994 3.49857 1.63185 3.58469 1.77459ZM32.6078 1.91619C32.6101 1.9251 32.6941 1.93313 32.6924 1.88274C32.6867 1.72045 32.5697 1.76625 32.6078 1.91619ZM0.269487 1.78435C0.759302 1.81628 1.05627 2.51698 0.522874 2.43792C0.42628 2.42361 0.731063 2.21447 0.60811 2.1513C0.383159 2.03621 0.233787 2.47616 0.00421288 2.24041C-0.0373419 2.19726 0.241558 1.78098 0.270357 1.78338C0.270075 1.7837 0.269785 1.78403 0.269487 1.78435ZM25.1276 1.99627C25.1305 2.00418 25.2469 2.01168 25.2497 2.00383C25.3127 1.81393 25.0782 1.79871 25.1276 1.99627ZM37.5129 2.28606C37.5193 2.30291 37.7893 2.31868 37.7982 2.30315C37.939 1.9926 37.3931 1.95981 37.5129 2.28606ZM17.2906 2.43401C17.1636 2.62506 17.0117 2.64755 16.9105 2.40764C17.0366 2.42038 17.1637 2.42225 17.2906 2.43401Z" fill="#C46A2D"/>
</svg>
