<svg width="437" height="623" viewBox="0 0 437 623" fill="none" xmlns="http://www.w3.org/2000/svg">
<path d="M21.8156 0.0610189C33.5273 -0.0952978 48.8796 0.0718422 60.5471 0.301252C64.2037 0.372404 62.3521 0.690453 64.8763 0.753888C69.8131 0.87755 74.4124 0.721565 79.291 0.868877C80.9078 0.919254 78.8952 1.42304 80.5906 1.46433C89.8807 1.68698 98.6695 1.55866 108.081 1.66575C154.436 2.19411 200.003 2.38323 246.926 2.61277C262.397 2.68802 281.205 3.14523 297.186 2.94529C299.051 2.92149 297.939 2.47929 298.294 2.44285C303.861 1.8849 302.01 2.77761 305.645 2.89621C320.071 3.36452 336.114 3.40525 349.997 3.23459C355.904 3.16069 349.982 2.28237 355.929 2.77537C356.342 2.80867 354.843 3.27826 356.463 3.32834C360.137 3.44099 367.106 3.35706 369.953 3.39426C375.44 3.46834 376.348 3.46362 381.537 3.46897C388.632 3.48037 397.07 3.7138 404.682 3.60739C406.307 3.58329 404.156 3.10191 406.747 3.01999C409.341 2.93821 416.202 2.97903 418.515 3.0925C420.829 3.20604 419.843 3.58439 420.253 3.67111C423.621 4.4031 431.558 3.3893 432.579 3.36423C432.689 3.36171 432.798 3.35922 432.908 3.35677L435.536 3.34168L435.551 6C435.964 24.4778 435.394 40.3587 435.395 57.7325C435.398 71.0003 435.588 85.187 435.562 97.8114C435.529 112.852 435.268 125.599 435.313 140.21C435.317 141.752 435.883 139.945 435.89 141.829C435.956 161.839 435.894 181.709 435.512 201.632C435.473 203.63 434.976 201.055 434.908 203.052C434.499 215.273 433.518 234.612 435.682 241.871C435.597 250.15 435.51 260.2 435.074 267.607C434.793 272.382 434.252 267.744 434.483 273.61C434.534 274.933 435.008 273.213 435.05 275.197C435.223 283.55 435.069 292.677 435.314 300.941C435.365 302.622 435.79 302.163 435.866 302.639C436.486 306.642 435.462 313.305 435.387 314.757C434.832 325.819 435.051 333.897 435.037 344.201C435.034 346.592 435.604 343.766 435.622 346.066C435.703 358 435.654 370.362 435.401 382.047C435.343 384.646 434.857 382.256 434.805 383.498C434.58 388.975 435.498 390.189 435.299 395.442C435.259 396.549 434.843 395.925 434.797 396.127C434.08 399.288 435.096 402.035 435.118 402.848C435.425 413.134 434.364 419.708 434.514 429.645C434.533 430.833 435.06 428.153 435.081 431.494C435.226 453.755 435.082 477.299 434.661 499.334C434.596 502.76 434.2 500.315 434.152 500.53C433.39 504.044 434.411 506.317 434.449 507.435C434.726 516.248 433.87 524.48 435.085 530.468C434.747 560.416 435.12 590.254 434.717 620L434.728 621.799L432.908 621.809C425.583 621.71 418.264 621.564 410.95 621.349C410.479 621.336 411.322 620.834 410.384 620.811C399.078 620.528 401.249 621.31 393.768 622.265C391.884 622.505 386.151 621.351 385.644 621.267C383.796 620.955 385.713 620.207 385.094 620.147C379.974 619.673 380.808 622.146 373.9 622.147C373.684 622.143 374.592 621.688 374.012 621.643C372.211 621.5 370.425 621.681 368.662 621.525C364.628 621.162 363.191 619.96 357.03 620.66C356.25 620.75 357.441 622.153 351.274 622.087C348.815 622.06 337.932 622.084 334.882 621.993C331.835 621.902 333.927 621.45 333.71 621.43C325.501 620.832 328.614 620.585 324.501 619.7C320.389 618.818 321.53 620.921 319.853 621.156C318.174 621.39 312.156 620.896 310.677 620.725C309.199 620.553 311.042 620.266 309.728 620.169C301.013 619.535 305.902 621.213 303.031 621.547C296.26 622.337 290.987 620.777 284.789 620.625C283.112 620.583 284.481 620.938 282.987 620.972C277.073 621.099 273.516 620.612 266.787 621.058C265.686 621.131 260.246 622.069 256.725 621.38C256.226 621.281 257.643 620.893 255.123 620.805C251.357 620.675 244.572 620.59 240.525 620.72C237.536 620.816 240.962 621.456 237.2 621.257C235.528 621.169 238.626 620.794 235.486 620.658C232.362 620.523 224.374 620.539 221.334 620.552C218.3 620.565 219.961 621.051 219.716 621.084C218.232 621.271 212.409 621.505 211.894 621.505C185.94 621.564 162.006 620.745 136.735 621.016C134.752 621.037 136.073 621.549 135.771 621.558C128.982 621.772 134.334 620.41 129.592 619.954C130.277 620.994 127.478 620.806 122.695 620.92C120.391 620.975 121.646 621.378 121.436 621.419C118.018 622.031 115.639 621.241 115.026 621.079C112.762 620.485 110.299 621.187 108.759 620.79C107.22 620.396 110.762 619.811 106.176 619.819C104.89 620.191 108.295 621.163 104.813 621.321C91.6743 621.917 67.1495 621.154 56.5856 621.075C46.0429 620.996 42.6377 621.064 36.4943 620.93C25.3975 620.687 29.4642 621.408 22.5739 621.739C15.6634 622.069 19.0228 620.294 18.0295 619.912C17.0544 619.53 15.9896 619.923 14.7766 619.713C13.5676 619.504 16.185 619.244 13.3415 619.166C10.6376 619.091 3.47823 619.7 1.9082 620.103L1.80561 620.104L1.80502 620C1.78395 619.918 1.76344 619.851 1.74362 619.801C0.898233 617.669 0.0109663 621.174 0.322724 613.646C0.341225 613.213 0.808017 614.618 0.855193 612.96C1.21455 599.793 1.23682 586.113 1.55465 572.961C1.59909 571.153 2.11838 572.77 2.15011 571.718C2.48226 560.756 1.60667 564.674 0.634002 558.666C1.92842 560.015 2.72035 556.693 2.72799 548.373C2.73304 543.372 2.1677 544.233 1.76925 540.999C1.64914 540.028 2.03732 536.489 1.77145 535.848C0.90236 533.734 -0.0705303 537.067 0.316864 528.489C0.335275 528.113 0.811001 529.311 0.839812 528.011C1.02839 519.606 0.119337 518.6 0.00924826 509.514C-0.0771339 502.393 0.477196 489.727 0.567352 481.618C2.02265 481.788 1.68941 474.129 0.686004 471.022C0.727083 465.759 0.670359 460.075 0.80905 454.989C0.856334 453.238 1.27768 454.388 1.32321 454.168C2.03739 450.783 1.06119 448.495 1.02292 447.359C0.650893 435.047 1.39077 425.017 0.667693 413.267C0.64165 412.85 -0.369244 412.175 0.368866 409.034C0.419745 408.831 0.879684 412.711 0.915251 407.184C0.950898 401.656 1.49281 391.235 1.02438 383.561C0.91161 381.704 0.0909688 377.006 0.732146 373.236C0.819213 372.734 1.10914 373.284 1.27047 372.559C1.78455 370.215 0.762785 368.935 1.63083 366.18C2.49883 363.426 3.1489 357.695 2.55001 349.956C2.5326 349.709 1.72276 347.877 1.73556 345.443C1.7567 341.558 1.92541 336.042 1.92013 331.985C1.91731 330.043 1.41444 331.286 1.40524 330.949C1.12345 317.888 1.57176 308.593 1.76632 294.601C1.80298 292.036 1.11724 284.666 1.65939 279.7C2.25288 274.248 4.72168 279.851 4.1335 267.319C3.89825 262.264 0.766121 255.864 2.38888 246.781C1.98677 229.164 2.81729 212.871 2.24313 195.205C2.21769 194.411 1.34354 191.899 1.35544 190.031C1.37479 187.258 1.78335 185.736 1.81027 183.756C1.93333 175.46 1.58378 167.869 1.63815 159.87C1.6579 156.833 2.08036 157.895 2.10397 154.273C2.12719 150.653 1.5709 148.24 1.83956 143.335C2.04435 139.63 3.18139 135.926 3.31393 131.009C2.19236 130.821 2.21546 127.444 1.9194 121.441C1.86196 120.288 1.47159 121.525 1.42428 120.979C1.22309 118.758 1.54661 116.702 1.3276 114.593C1.275 114.08 0.891983 114.056 0.827361 113.636C0.263292 110.069 1.12486 104.193 1.27487 103.184C1.84458 99.3159 1.34642 97.5083 1.57077 94.5415C1.79509 91.5794 2.07551 96.0084 2.21163 92.5483C2.49319 85.3762 2.43134 76.1613 2.44894 68.8772C2.4536 65.9708 1.94232 67.9538 1.93112 67.5378C1.80144 61.5281 2.34529 55.4507 1.32687 52.1185C3.96013 47.9518 1.07146 48.4946 1.5986 39.9043C1.64123 39.2276 2.88648 38.3668 3.0693 40.9646C3.25194 43.5624 2.86269 47.5017 3.14767 51.106C3.21454 51.9595 4.38142 56.849 4.45211 57.516C5.00453 62.7417 3.14367 63.4821 3.04147 63.7587C1.93848 66.8939 3.19557 72.8687 3.28243 74.4422C3.68044 81.6402 3.41874 87.7556 3.70284 93.7761C3.88645 97.7136 5.10538 98.0989 5.06807 101.191C4.94475 111.469 3.24434 115.057 4.71871 124.742C5.03316 126.819 6.36541 124.755 5.31783 132.197C5.25178 132.664 4.29343 138.189 4.89961 141.381C4.97604 141.782 5.36431 141.769 5.39693 142.298C5.6079 145.842 5.29859 148.205 5.44673 152.065C5.59488 155.924 5.81573 160.566 5.68403 164.973C5.60529 167.628 4.88189 171.036 4.70479 172.307C4.1946 175.897 5.0311 179.746 4.41329 181.97C3.79237 184.213 2.8494 179.829 2.44821 185.71C3.45695 185.927 4.49232 186.428 5.50679 186.778C5.47127 199.666 5.14509 212.347 5.18965 225.278C5.19619 226.881 5.73849 225.242 5.75947 226.961C5.84563 234.212 5.45904 240.545 5.61299 248.064C5.73423 253.885 6.30842 260.268 6.45308 266.354C5.29879 270.072 5.69064 279.103 5.58516 285.664C5.54871 287.962 5.24042 287.809 5.13985 289.443C4.76788 295.609 5.78791 292.72 5.94844 294.41C6.63354 301.662 4.32475 302.283 4.38179 310.834C4.38403 311.287 5.61472 316.824 5.69136 317.587C6.19111 322.433 5.263 318.389 5.17207 321.422C5.0059 326.959 4.71199 330.807 5.07246 337.303C5.17923 339.198 5.94631 343.742 5.35298 347.421C5.27529 347.905 4.8685 347.637 4.84468 348.027C4.44758 355.077 5.72576 355.263 6.15864 359.292C6.59143 363.322 5.70909 369.546 5.45479 370.813C4.79692 374.126 5.17364 368.273 5.10909 368.094C4.34081 365.986 4.47308 370.525 4.40816 373.994C3.15489 374.496 3.23012 379.346 4.3459 377.589C4.46778 377.389 4.3509 374.69 4.40816 373.994C5.63779 377.038 5.79526 382.369 4.6462 388.257C4.10765 391.013 3.47972 388.408 3.70943 396.78C3.81313 400.579 4.67607 399.111 4.91133 402.464C5.44812 410.125 4.64314 420.079 4.76998 427.977C4.81602 430.843 5.28839 428.051 5.33614 430.01C5.46432 435.209 5.1099 439.794 5.29146 445.015C5.30851 445.488 5.80298 444.332 5.80928 445.956C5.8667 458.264 5.54999 468.982 5.54121 481.833C5.5372 488.042 5.80991 499.143 5.75508 505.576C5.66297 516.724 4.94393 530.438 5.11861 539.962C5.23042 546.174 5.72499 544.811 6.06196 547.472C6.71515 552.608 5.54514 561.699 5.36397 562.924C5.35797 562.961 5.24138 557.616 4.9875 560.468C4.45851 562.126 5.36167 562.863 5.36397 562.924C5.24693 563.727 5.13466 574.405 5.2292 576.525C5.28087 577.677 5.74945 577.033 5.76753 577.633C6.18016 591.683 6.30208 605.756 6.09711 620L1.9082 615.811C2.13952 615.814 2.3708 615.818 2.60221 615.821C2.85715 615.831 2.47308 616.355 3.07261 616.371C11.456 616.604 16.8238 615.963 23.7379 615.582C30.6509 615.201 36.1333 615.329 40.2256 616.229C45.4415 616.115 52.925 616.513 57.2314 616.754C61.5375 616.996 62.1385 615.976 62.5173 615.955C74.3353 615.31 81.1669 615.894 93.4276 615.985C99.2567 616.03 110.819 615.882 117.131 615.77C122.118 615.68 125.123 615.919 129.719 615.766C130.341 615.746 129.713 615.292 129.903 615.274C135.032 614.731 132.567 615.841 133.626 616.04C137.466 616.761 139.838 617.145 146.406 616.806C147.921 616.728 152.335 615.129 155.097 615.035C158.688 614.917 157.332 615.49 161.092 615.351C161.414 615.34 161.347 614.986 163.667 615.002C174.439 615.069 186.182 615.275 197.376 615.24C198.905 615.236 196.945 614.675 199.154 614.661C209.52 614.595 220.882 614.615 230.981 614.878C233.467 614.944 231.909 615.337 232.448 615.454C235.761 616.159 240.459 615.134 241.234 615.115C259.725 614.622 273.876 615.55 292.722 615.108C293.748 615.082 301.645 613.983 305.167 614.926C305.409 614.988 308.894 615.953 311.976 615.293C312.168 615.252 309.996 614.756 313.786 614.806C317.576 614.857 323.676 614.525 328.886 615.071C330.536 615.242 334.434 616.204 339.355 615.438C339.675 615.384 347.271 613.65 349.982 614.846C350.422 615.043 349.962 616.309 355.834 615.66C356.956 615.534 354.919 615.252 357.875 615.076C362.404 614.804 368.405 615.143 373.972 614.579C374.943 614.479 379.076 613.62 382.391 614.272C382.911 614.374 381.924 614.797 383.675 614.844C392.001 615.071 400.718 614.788 409.172 615.081C412.166 615.184 410.635 615.867 413.756 616.05C416.878 616.233 423.167 616.409 426.433 616.097C429.7 615.784 426.131 614.696 431.025 614.608C431.653 614.597 432.281 614.587 432.908 614.578L427.486 620C427.175 599.362 427.78 578.903 427.87 558.285C427.884 555.134 427.495 557.746 427.487 553.102C427.458 535.982 427.093 506.424 427.921 491.569C428.584 479.666 429.089 494.645 429.359 485.549C429.487 481.16 428.222 476.412 428.182 475.352C427.777 465.002 428.338 457.808 428.166 448.492C428.13 446.568 427.617 448.455 427.592 446.818C427.503 441.225 427.732 435.347 427.69 430.003C427.67 427.606 427.278 428.048 427.309 425.842C427.376 420.563 427.541 415.895 427.909 410.749C427.942 410.28 428.429 413.443 428.448 409.537C428.476 403.216 428.838 395.371 428.464 388.099C428.351 385.941 427.456 385.856 428.074 381.218C428.203 380.245 429.279 381.487 428.349 376.084C428.195 375.175 426.942 366.099 427.75 361.645C427.962 360.47 428.842 357.471 428.704 354.876C428.682 354.524 428.201 355.934 428.154 353.784C427.997 346.206 428.048 338.265 427.898 330.48C427.856 328.401 427.359 331.497 427.313 328.399C427.187 319.878 427.314 309.241 427.47 300.909C427.528 297.837 427.941 299.96 427.985 299.737C428.715 296.143 427.73 294.017 427.673 292.824C427.329 285.405 427.791 279.755 427.669 272.917C427.636 271.029 427.167 272.367 427.125 271.992C426.716 268.096 427.559 270.998 427.652 268.532C427.915 261.622 427.878 253.921 427.818 246.933C427.795 244.367 427.25 247.251 427.236 244.948C427.142 231.316 427.194 217.145 427.495 203.841C427.552 201.336 427.972 202.912 428.067 202.39C428.738 198.791 427.823 193.518 427.736 192.304C427.339 186.787 427.71 184.644 427.64 179.771C427.296 155.968 427.541 126.578 427.693 104.11C427.888 74.8311 428.288 52.1117 428.184 24.1912C428.178 22.4167 427.62 24.206 427.607 22.6764C427.569 17.0981 427.56 11.5442 427.561 6L432.908 11.3468C418.824 11.3423 404.802 11.2627 390.602 11.3784C388.978 11.3906 391.319 11.9196 388.713 11.957C383.367 12.0374 376.594 12.0087 371.189 11.8398C368.552 11.7584 372.089 11.3045 369.435 11.2319C363.255 11.0617 356.631 11.024 350.284 11.1088C347.583 11.1461 351.658 11.6871 348.148 11.6933C324.232 11.747 300.744 11.8401 276.576 11.1396C274.919 11.0915 273.466 9.99198 269.943 10.2028C269.678 10.508 269.692 10.8669 269.576 11.1931C234.761 11.3688 200.301 10.9876 165.389 10.9287C163.917 10.9263 166.461 11.5089 163.611 11.5073C147.116 11.4987 131.099 11.66 114.228 11.081C112.554 11.0244 113.412 9.99949 108.479 10.1545C107.609 10.1828 100.179 10.3195 98.2581 10.5419C97.9972 10.5755 99.3528 11.0539 96.9586 11.0678C83.0452 11.1405 68.4648 11.0313 54.5755 10.739C52.3339 10.6909 54.7211 10.1814 53.1245 10.1428C41.7991 9.87235 29.4803 10.2596 18.6584 9.79707C11.4145 9.48563 14.0964 8.60504 10.2471 7.73824C9.70269 7.61595 5.21709 7.59657 4.98513 7.09225C4.3896 5.82408 6.56229 4.43545 5.67078 3.08371C5.48243 2.79256 -0.524946 3.10615 3.03181 2.40256C3.28028 2.35548 7.63566 2.12196 8.70839 1.88328C9.45526 1.71826 8.10938 1.20536 9.63323 0.994121C11.157 0.783077 12.8313 1.21301 15.3577 0.964825C17.8828 0.713563 16.7725 0.130088 21.8156 0.0610189ZM76.6211 617.833C80.6084 618.323 81.1968 616.529 76.8842 616.958C76.6754 616.981 76.4154 617.809 76.6211 617.833ZM3.79146 212.275C2.99993 217.488 4.1638 221.055 4.7751 217.377C5.38575 213.7 4.03141 210.687 3.79146 212.275ZM3.21358 158.22C2.5895 164.312 5.13427 165.271 4.61983 158.746C4.59076 158.367 3.24982 157.863 3.21358 158.22ZM28.0981 7.49142C28.043 7.46758 24.8186 7.44436 24.7416 7.46798C23.0246 8.03793 29.4721 8.08398 28.0981 7.49142ZM2.58444 104.579C2.2402 106.481 2.63758 111.957 3.06564 109.594C3.40999 107.692 3.01264 102.211 2.58444 104.579ZM284.622 619.749C284.685 619.775 286.996 619.799 286.95 619.648C286.793 619.161 283.576 619.299 284.622 619.749ZM2.55514 13.4109C2.45935 26.8806 0.357249 35.0474 0.594452 20.3791C0.637368 17.7228 1.2648 26.104 1.45431 22.7231C1.79958 16.5366 0.479718 12.429 1.18698 6.11583C1.31643 4.97302 2.56527 12.6425 2.55807 13.4348C2.55709 13.4269 2.55612 13.4188 2.55514 13.4109ZM78.9172 619.989C78.997 620.013 82.1969 620.035 82.2738 620.012C84.0067 619.442 77.56 619.396 78.9172 619.989ZM419.512 620.858C419.689 620.909 427.115 620.956 427.358 620.909C431.232 619.978 416.218 619.879 419.512 620.858ZM0.60617 481.49C0.0330234 477.998 -0.0344583 473.821 0.685272 471.038C0.647064 474.508 0.641436 478.001 0.60617 481.49Z" fill="#393939"/>
</svg>
