<svg width="414" height="161" viewBox="0 0 414 161" fill="none" xmlns="http://www.w3.org/2000/svg">
<g filter="url(#filter0_d_585_6928)">
<path d="M15.7148 0.0610189C21.8229 -0.0952978 29.8296 0.0718422 35.9145 0.301252C37.8216 0.372404 36.8559 0.690453 38.1723 0.753888C40.747 0.87755 43.1457 0.721565 45.6901 0.868877C46.5333 0.919254 45.4837 1.42304 46.3678 1.46433C51.2129 1.68698 55.7966 1.55866 60.7047 1.66575C84.8807 2.19411 108.645 2.38323 133.117 2.61277C141.186 2.68802 150.995 3.14523 159.329 2.94529C160.302 2.92149 159.722 2.47929 159.907 2.44285C162.81 1.8849 161.845 2.77761 163.741 2.89621C171.264 3.36452 179.631 3.40525 186.872 3.23459C189.952 3.16069 186.864 2.28237 189.965 2.77537C190.181 2.80867 189.399 3.27826 190.244 3.32834C192.16 3.44099 195.794 3.35706 197.279 3.39426C200.141 3.46834 200.614 3.46362 203.321 3.46897C207.021 3.48037 211.422 3.7138 215.392 3.60739C216.239 3.58329 215.117 3.10191 216.469 3.01999C217.821 2.93821 221.4 2.97903 222.606 3.0925C223.813 3.20604 223.299 3.58439 223.512 3.67111C225.269 4.4031 229.408 3.3893 229.941 3.36423C239.651 2.93704 247.978 3.51456 257.093 3.51291C264.012 3.51044 271.411 3.31978 277.995 3.34592C285.839 3.37893 292.487 3.63978 300.107 3.59494C300.912 3.59076 299.969 3.02478 300.951 3.01853C311.387 2.95267 321.75 3.01436 332.141 3.39646C333.183 3.43528 331.84 3.93221 332.881 4.0007C339.255 4.40909 349.341 5.39014 353.126 3.22654C357.444 3.31102 362.686 3.39831 366.548 3.83444C369.039 4.11515 366.62 4.65651 369.679 4.42551C370.369 4.37404 369.472 3.89994 370.507 3.85861C374.864 3.68505 379.623 3.83916 383.933 3.59421C384.81 3.54327 384.57 3.11846 384.819 3.04197C386.906 2.42245 390.381 3.44655 391.139 3.52097C396.85 4.0703 401.036 3.86184 406.333 3.87073L408.438 3.84754L408.462 6C408.462 6.05393 408.462 6.10797 408.461 6.16213C408.458 7.40925 409.029 5.9351 409.046 7.13511C409.128 13.3589 409.079 19.8062 408.825 25.9003C408.768 27.2559 408.282 26.0093 408.229 26.6571C408.004 29.5133 408.922 30.1465 408.724 32.8858C408.683 33.4633 408.267 33.1379 408.221 33.2434C407.504 34.892 408.52 36.3245 408.543 36.7486C408.849 42.1128 407.788 45.5416 407.939 50.7237C407.958 51.3437 408.484 49.9457 408.505 51.6884C408.651 63.2983 408.506 75.5771 408.085 87.0691C408.02 88.8558 407.625 87.5804 407.576 87.6928C406.814 89.5253 407.835 90.7111 407.873 91.2936C408.15 95.8898 407.294 100.183 408.51 103.306C408.171 118.925 408.544 134.487 408.142 150L408.161 151.789L406.333 151.809C402.512 151.71 398.695 151.564 394.88 151.349C394.635 151.336 395.075 150.834 394.585 150.811C388.689 150.528 389.821 151.31 385.92 152.265C384.937 152.505 381.947 151.351 381.683 151.267C380.719 150.955 381.719 150.207 381.396 150.147C378.725 149.673 379.161 152.146 375.558 152.147C375.445 152.143 375.919 151.688 375.616 151.643C374.677 151.501 373.745 151.681 372.826 151.525C370.722 151.162 369.973 149.96 366.76 150.66C366.353 150.75 366.974 152.153 363.758 152.087C362.475 152.06 356.799 152.084 355.209 151.993C353.62 151.902 354.711 151.45 354.597 151.43C350.317 150.832 351.94 150.585 349.795 149.699C347.65 148.818 348.245 150.921 347.371 151.156C346.495 151.39 343.356 150.896 342.585 150.725C341.814 150.553 342.776 150.266 342.09 150.169C337.545 149.535 340.095 151.213 338.597 151.547C335.066 152.337 332.316 150.777 329.084 150.625C328.209 150.583 328.923 150.938 328.144 150.972C325.059 151.099 323.204 150.612 319.695 151.058C319.121 151.131 316.284 152.069 314.448 151.38C314.188 151.281 314.927 150.893 313.612 150.805C311.648 150.675 308.11 150.59 305.998 150.72C304.44 150.816 306.226 151.456 304.265 151.257C303.393 151.169 305.009 150.794 303.371 150.658C301.741 150.523 297.575 150.539 295.99 150.552C294.408 150.565 295.274 151.051 295.146 151.084C294.372 151.271 291.335 151.505 291.067 151.505C277.531 151.564 265.048 150.745 251.869 151.016C250.835 151.037 251.524 151.549 251.366 151.558C247.825 151.772 250.617 150.41 248.144 149.954C248.501 150.994 247.041 150.806 244.547 150.92C243.345 150.975 244 151.378 243.89 151.419C242.108 152.031 240.867 151.241 240.547 151.079C239.367 150.485 238.082 151.187 237.279 150.79C236.476 150.396 238.323 149.811 235.932 149.819C235.261 150.191 237.037 151.163 235.22 151.321C228.368 151.917 215.578 151.154 210.069 151.075C204.57 150.996 202.794 151.064 199.59 150.93C193.803 150.687 195.924 151.408 192.33 151.739C188.726 152.069 190.478 150.294 189.96 149.912C189.452 149.53 188.897 149.923 188.264 149.713C187.633 149.504 188.998 149.244 187.515 149.166C186.032 149.087 181.975 149.766 181.449 150.165C180.337 151.01 182.165 151.897 178.239 151.585C178.013 151.567 178.746 151.1 177.881 151.053C171.014 150.694 163.879 150.671 157.02 150.354C156.077 150.309 156.921 149.79 156.372 149.758C150.655 149.426 152.698 150.302 149.565 151.274C150.269 149.98 148.536 149.188 144.197 149.18C141.589 149.175 142.038 149.74 140.351 150.139C139.845 150.259 137.999 149.871 137.665 150.137C136.562 151.006 138.3 151.979 133.827 151.591C133.631 151.573 134.256 151.097 133.577 151.068C129.194 150.88 128.669 151.789 123.931 151.899C120.217 151.985 113.611 151.431 109.382 151.341C109.471 149.886 105.476 150.219 103.856 151.222C101.111 151.181 98.1469 151.238 95.4941 151.099C94.5812 151.052 95.1809 150.631 95.0658 150.585C93.3004 149.871 92.1073 150.847 91.5149 150.885C85.0941 151.257 79.8629 150.517 73.7351 151.241C73.5177 151.267 73.1653 152.277 71.5272 151.539C71.4213 151.488 73.445 151.029 70.5626 150.993C67.6796 150.957 62.2448 150.415 58.2423 150.884C57.2738 150.997 54.8239 151.817 52.8577 151.176C52.5957 151.089 52.8824 150.799 52.5042 150.638C51.2819 150.124 50.6145 151.145 49.1778 150.277C47.7411 149.409 44.7526 148.759 40.7162 149.358C40.5877 149.376 39.6322 150.185 38.3628 150.173C36.3365 150.152 33.4598 149.983 31.344 149.988C30.331 149.991 30.9794 150.494 30.8035 150.503C23.9921 150.785 19.144 150.336 11.8471 150.142C10.7131 150.111 7.77774 150.599 5.33252 150.418L4.91923 150.422L4.91458 150C4.94708 149.561 5.00116 149.137 5.08371 148.743C5.67719 145.9 8.146 148.822 7.55782 142.286C7.32256 139.65 4.19044 136.312 5.8132 131.575C5.41109 122.387 6.24161 113.89 5.66744 104.676C5.64201 104.262 4.76785 102.952 4.77975 101.978C4.79911 100.532 5.20767 99.738 5.23458 98.7055C5.35765 94.3788 5.0081 90.4195 5.06247 86.248C5.08222 84.6643 5.50467 85.218 5.52828 83.3291C5.5515 81.4412 4.99521 80.1825 5.26388 77.6243C5.46867 75.6922 6.60571 73.7605 6.73824 71.1959C5.61668 71.0982 5.63978 69.3368 5.34371 66.2063C5.28627 65.6046 4.89591 66.2498 4.8486 65.9651C4.6474 64.8067 4.97093 63.7346 4.75192 62.6346C4.69932 62.3669 4.3163 62.3544 4.25168 62.1356C3.68761 60.2754 4.54917 57.2108 4.69919 56.6844C5.2689 54.6671 4.77073 53.7244 4.99508 52.1771C5.2194 50.6324 5.49982 52.9421 5.63595 51.1376C5.91751 47.3972 5.85565 42.5912 5.87325 38.7924C5.87791 37.2767 5.36664 38.3108 5.35543 38.0939C5.22576 34.9596 5.76961 31.7901 4.75119 30.0522C7.38445 27.8792 4.49578 28.1622 5.02292 23.6821C5.06555 23.3293 6.3108 22.8803 6.49361 24.2352C6.67625 25.59 6.28701 27.6444 6.57198 29.5242C6.63886 29.9693 7.80574 32.5193 7.87642 32.8672C8.42884 35.5926 6.56799 35.9787 6.46578 36.123C5.36279 37.758 6.61988 40.8742 6.70675 41.6947C7.10476 45.4487 6.84306 48.6381 7.12716 51.7779C7.31077 53.8315 8.5297 54.0324 8.49239 55.6449C8.36907 61.0053 6.66865 62.8764 8.14302 67.9277C8.45748 69.0108 9.78973 67.9345 8.74214 71.8155C8.6761 72.0593 7.71775 74.9408 8.32393 76.6055C8.40036 76.8146 8.78863 76.808 8.82124 77.0837C9.03222 78.9317 8.7229 80.1642 8.87105 82.1773C9.01919 84.1902 9.24004 86.6108 9.10835 88.9091C9.0296 90.2942 8.30621 92.0714 8.12911 92.7345C7.61891 94.6067 8.45542 96.6142 7.8376 97.7741C7.21668 98.9437 6.27371 96.657 5.87252 99.7242C6.88127 99.8377 7.91664 100.099 8.93111 100.281C8.89559 107.003 8.5694 113.616 8.61397 120.36C8.6205 121.197 9.16281 120.341 9.18379 121.238C9.26994 125.019 8.88335 128.322 9.03731 132.244C9.15855 135.28 9.73273 138.608 9.87739 141.783C8.92104 143.389 9.02604 146.898 9.03017 150L5.33252 146.302C5.97453 146.301 6.5992 146.305 7.18589 146.323C8.38452 146.359 8.30443 146.668 9.1568 146.768C12.3726 147.14 10.8656 146.12 11.7472 145.96C15.5296 145.275 15.8535 147.583 20.3128 147.526C20.549 147.524 23.4369 146.293 23.8346 146.217C26.362 145.717 24.253 146.645 25.8346 146.736C28.7225 146.902 30.7292 147.196 34.1174 146.836C35.1054 146.729 37.4754 145.962 39.394 146.555C39.6463 146.633 39.507 147.04 39.71 147.064C43.3873 147.461 43.484 146.182 45.5853 145.75C47.687 145.317 50.933 146.199 51.5936 146.453C53.3219 147.111 50.2694 146.735 50.1758 146.799C49.0763 147.567 51.4437 147.435 53.2527 147.5C53.5146 148.753 56.0443 148.678 55.128 147.562C55.0236 147.44 53.616 147.557 53.2527 147.5C54.8406 146.27 57.6207 146.113 60.6914 147.262C62.1288 147.801 60.77 148.428 65.1363 148.199C67.118 148.095 66.3522 147.232 68.101 146.997C72.0962 146.46 77.2878 147.265 81.4067 147.138C82.9015 147.092 81.4454 146.62 82.467 146.572C85.1782 146.444 87.5695 146.798 90.2924 146.617C90.5391 146.6 89.9363 146.105 90.783 146.099C97.2024 146.042 102.792 146.358 109.494 146.367C112.733 146.371 118.522 146.098 121.877 146.153C127.691 146.245 134.843 146.964 139.81 146.79C143.05 146.678 142.339 146.183 143.727 145.846C146.406 145.193 151.147 146.363 151.785 146.544C151.805 146.55 149.017 146.667 150.505 146.921C151.37 147.45 151.754 146.547 151.785 146.544C152.205 146.661 157.773 146.774 158.879 146.679C159.48 146.627 159.144 146.159 159.457 146.141C166.903 145.721 174.362 145.602 181.915 145.821C182.048 145.831 181.847 146.355 182.16 146.371C186.532 146.604 189.332 145.963 192.937 145.582C196.543 145.201 199.402 145.329 201.536 146.229C204.257 146.115 208.159 146.513 210.405 146.754C212.651 146.996 212.965 145.976 213.162 145.955C219.326 145.31 222.888 145.894 229.283 145.985C232.323 146.03 238.353 145.882 241.645 145.77C244.246 145.68 245.813 145.919 248.21 145.766C248.534 145.746 248.207 145.292 248.306 145.274C250.981 144.731 249.695 145.841 250.248 146.04C252.25 146.761 253.487 147.145 256.913 146.806C257.703 146.728 260.005 145.129 261.445 145.035C263.318 144.917 262.611 145.49 264.572 145.351C264.74 145.34 264.705 144.986 265.915 145.002C271.533 145.069 277.657 145.275 283.495 145.24C284.293 145.236 283.27 144.675 284.422 144.661C289.829 144.595 295.754 144.615 301.021 144.878C302.318 144.944 301.505 145.337 301.786 145.454C303.514 146.159 305.964 145.134 306.368 145.115C316.012 144.622 323.392 145.55 333.221 145.108C333.756 145.082 337.874 143.983 339.712 144.926C339.838 144.988 341.655 145.953 343.263 145.293C343.363 145.252 342.23 144.756 344.207 144.806C346.183 144.857 349.365 144.525 352.082 145.071C352.942 145.242 354.975 146.204 357.541 145.438C357.709 145.384 361.67 143.65 363.084 144.846C363.313 145.043 363.073 146.309 366.136 145.66C366.721 145.534 365.659 145.252 367.2 145.076C369.562 144.804 372.692 145.143 375.596 144.579C376.102 144.479 378.257 143.62 379.986 144.272C380.257 144.374 379.743 144.797 380.656 144.844C384.998 145.071 389.545 144.788 393.953 145.081C395.515 145.184 394.716 145.867 396.344 146.05C397.972 146.233 401.252 146.409 402.955 146.097C404.659 145.784 402.798 144.696 405.35 144.608C405.678 144.597 406.005 144.587 406.333 144.578L400.91 150C400.6 139.237 401.204 128.567 401.295 117.814C401.309 116.17 400.919 117.533 400.912 115.111C400.883 106.182 400.517 90.7668 401.345 83.0191C402.008 76.8114 402.513 84.6235 402.783 79.8798C402.912 77.5908 401.646 75.1143 401.606 74.5617C401.201 69.1635 401.762 65.412 401.59 60.5533C401.554 59.55 401.041 60.534 401.016 59.6801C400.927 56.7634 401.156 53.6979 401.115 50.9108C401.095 49.6605 400.703 49.8909 400.733 48.7403C400.801 45.9874 400.966 43.5529 401.333 40.8692C401.366 40.6246 401.854 42.274 401.872 40.2372C401.9 36.9407 402.262 32.8489 401.888 29.0562C401.775 27.9309 400.88 27.8868 401.498 25.4679C401.628 24.9605 402.703 25.6078 401.774 22.7901C401.619 22.3162 400.366 17.5828 401.174 15.2599C401.387 14.6471 402.267 13.083 402.128 11.7297C402.106 11.5462 401.625 12.2814 401.578 11.1601C401.511 9.46775 401.482 7.74062 401.459 6L406.333 10.8737C404.008 10.9044 401.66 10.9245 399.339 11.0107C398.254 11.0519 399.869 11.5497 398.253 11.5952C393.81 11.721 388.262 11.5942 383.917 11.4384C382.315 11.38 383.422 10.9677 383.305 10.9228C381.431 10.1929 380.322 11.1781 379.7 11.2355C375.831 11.5795 372.884 11.1167 369.318 11.2392C368.333 11.2718 369.031 11.7415 368.835 11.7834C366.803 12.1927 368.317 11.349 367.031 11.2561C363.428 10.9927 359.411 11.0305 355.767 11.0905C354.428 11.1133 355.933 11.658 354.731 11.6721C347.622 11.7659 340.231 11.7138 333.293 11.4135C331.986 11.356 332.808 10.9366 332.536 10.8408C330.659 10.1705 327.909 11.0847 327.276 11.1718C324.398 11.5694 323.281 11.1985 320.739 11.2678C308.326 11.6125 292.998 11.3668 281.28 11.215C266.01 11.0197 254.161 10.6207 239.6 10.7243C238.674 10.7304 239.607 11.2883 238.81 11.3007C228.51 11.4352 218.369 11.2172 208.049 11.3784C207.202 11.3906 208.423 11.9196 207.063 11.957C204.275 12.0374 200.743 12.0087 197.924 11.8398C196.549 11.7584 198.393 11.3045 197.009 11.2319C193.786 11.0617 190.332 11.024 187.021 11.1088C185.613 11.1461 187.738 11.6871 185.907 11.6933C173.434 11.747 161.185 11.8401 148.58 11.1396C147.716 11.0915 146.958 9.99198 145.121 10.2028C144.983 10.508 144.99 10.8669 144.93 11.1931C126.773 11.3688 108.801 10.9876 90.5926 10.9287C89.8249 10.9263 91.1517 11.5089 89.6654 11.5073C81.0631 11.4987 72.7097 11.66 63.9105 11.081C63.0375 11.0244 63.4854 9.99949 60.9126 10.1545C60.4588 10.1828 56.5839 10.3195 55.582 10.5419C55.4459 10.5755 56.1529 11.0539 54.9042 11.0678C47.648 11.1405 40.0439 11.0313 32.8002 10.739C31.6311 10.6909 32.8761 10.1814 32.0434 10.1428C26.1369 9.87235 19.7122 10.2596 14.0682 9.79707C10.2904 9.48563 11.689 8.60504 9.68153 7.73824C9.39758 7.61595 7.05821 7.59657 6.93723 7.09225C6.62665 5.82408 7.75977 4.43545 7.29482 3.08371C7.19659 2.79256 4.06356 3.10615 5.91851 2.40256C6.0481 2.35548 8.31957 2.12196 8.87903 1.88328C9.26855 1.71826 8.56662 1.20536 9.36136 0.994121C10.156 0.783077 11.0293 1.21301 12.3468 0.964825C13.6638 0.713563 13.0847 0.130088 15.7148 0.0610189ZM220.518 147.833C222.597 148.323 222.904 146.529 220.655 146.958C220.546 146.981 220.41 147.809 220.518 147.833ZM7.21578 113.579C6.42425 116.297 7.58811 118.158 8.19942 116.24C8.81007 114.322 7.45572 112.75 7.21578 113.579ZM6.6379 85.3873C6.01382 88.5647 8.55858 89.0649 8.04415 85.6617C8.01507 85.4638 6.67414 85.2015 6.6379 85.3873ZM18.9914 7.49142C18.9626 7.46758 17.281 7.44436 17.2408 7.46798C16.3454 8.03793 19.708 8.08398 18.9914 7.49142ZM6.00875 57.4121C5.66452 58.404 6.0619 61.2599 6.48995 60.0275C6.83431 59.0353 6.43696 56.1768 6.00875 57.4121ZM328.996 149.749C329.029 149.775 330.235 149.799 330.211 149.648C330.129 149.161 328.451 149.299 328.996 149.749ZM5.97946 9.86502C5.88367 16.8899 3.78157 21.1491 4.01877 13.4991C4.06168 12.1138 4.68911 16.4849 4.87863 14.7216C5.2239 11.4952 3.90403 9.35288 4.6113 6.06042C4.74075 5.46441 5.98959 9.46427 5.98238 9.87749C5.98141 9.87334 5.98043 9.86916 5.97946 9.86502ZM221.715 149.989C221.757 150.013 223.426 150.035 223.466 150.012C224.37 149.442 221.007 149.396 221.715 149.989ZM399.346 150.858C399.438 150.909 403.311 150.956 403.438 150.909C405.458 149.978 397.628 149.879 399.346 150.858ZM109.315 151.302C107.494 151.875 105.316 151.943 103.864 151.223C105.674 151.261 107.496 151.267 109.315 151.302Z" fill="#C46A2D"/>
</g>
<defs>
<filter id="filter0_d_585_6928" x="0" y="0" width="413.083" height="160.298" filterUnits="userSpaceOnUse" color-interpolation-filters="sRGB">
<feFlood flood-opacity="0" result="BackgroundImageFix"/>
<feColorMatrix in="SourceAlpha" type="matrix" values="0 0 0 0 0 0 0 0 0 0 0 0 0 0 0 0 0 0 127 0" result="hardAlpha"/>
<feOffset dy="4"/>
<feGaussianBlur stdDeviation="2"/>
<feComposite in2="hardAlpha" operator="out"/>
<feColorMatrix type="matrix" values="0 0 0 0 0 0 0 0 0 0 0 0 0 0 0 0 0 0 0.25 0"/>
<feBlend mode="normal" in2="BackgroundImageFix" result="effect1_dropShadow_585_6928"/>
<feBlend mode="normal" in="SourceGraphic" in2="effect1_dropShadow_585_6928" result="shape"/>
</filter>
</defs>
</svg>
