<svg width="150" height="75" viewBox="0 0 150 75" fill="none" xmlns="http://www.w3.org/2000/svg">
<path fill-rule="evenodd" clip-rule="evenodd" d="M47.4535 52.888C49.779 56.7883 59.1322 59.7074 69.862 60.6809C74.7024 60.6529 75.1843 59.6252 74.8417 57.2468C75.5271 56.742 75.7424 56.3763 76.0866 55.7058C75.8923 53.6418 76.2501 52.9923 77.3315 52.3157C79.5926 51.7295 79.9892 54.7661 81.6887 59.0843C86.9555 60.5251 91.4687 59.8346 98.993 58.8201C103.667 57.4147 106.332 57.5682 107.085 56.3222C108.229 55.1019 108.727 54.4169 109.201 53.1962C107.927 51.8818 104.94 51.7909 99.3665 51.6993C94.891 51.5522 92.9126 51.3918 90.5276 50.9508C85.1572 49.5 87.9052 48.826 90.5276 49.25L105.812 48.5888L140.774 48.7053C141.859 48.6819 142.446 48.7296 143.392 49.1016C145.744 49.1792 147.054 49.319 149.389 49.5859C149.536 50.0705 149.413 50.2908 148.861 50.6425L148.809 50.6414C148.221 50.6282 147.876 50.6204 147.658 50.7746C147.42 51.0954 147.237 51.1837 146.834 51.2149C146.34 51.3966 146.074 51.4958 145.673 51.6552H143.92C143.436 51.9408 143.157 52.094 142.231 52.0074C141.346 52.2974 140.887 52.3887 138.83 52.4477C137.718 52.9207 135.848 53.8853 136.589 55.8378C137.629 57.1604 137.404 57.7382 136.216 58.6115C134.915 60.7158 133.684 61.4019 130.738 62.0897C127.936 63.8968 126.021 64.9607 122.397 66.8887C115.868 67.8763 112.55 69.5347 107.085 71.1067C102.326 71.4691 99.6224 71.6002 95.3828 72.9999C87.8659 73.1979 82.126 74.7445 73.5967 74.1869C71.3521 74.0402 71.1102 74.2653 67.8701 73.5682C59.3615 70.9526 56.8666 71.8156 54.0516 71.4999C52.0834 70.9544 50.7373 69.8684 48.2005 69.8395C43.2067 69.1149 40.5911 67.2049 36.2493 66.1843L26.041 62.0897C21.5204 60.8486 19.8709 60.087 19.6919 58.5235V55.3975C18.5436 52.7419 14.5105 52.3792 13.5542 52.0698C11.815 52.0426 11.1122 51.9355 10.0842 51.6668C8.13384 51.6296 7.04032 51.6256 5.08997 51.6668C4.30951 51.1397 3.66893 50.9642 2.17125 50.861C1.67047 50.6937 1.38404 50.6085 0.841616 50.5028C0.275698 50.1288 0.344882 49.9713 0.874056 49.7417C3.04157 49.77 4.19261 49.5169 6.25745 49.1149C8.7237 48.7817 9.97753 48.6823 12.03 48.6225C12.7289 48.417 13.0963 48.3522 13.7164 48.3091L54.674 48.4335C58.1228 48.5495 60.5515 48.9132 63.9072 49.25H71.1572C72.4703 49.7092 70.0574 50.3298 68.9906 50.6426C66.3725 50.7745 65.2559 50.8836 63.7619 51.1269L63.5608 51.1273C55.9439 51.1421 51.612 51.1505 49.9434 51.6993C48.5616 52.0163 48.0635 52.2931 47.4535 52.888ZM131.236 53.5924C129.822 52.1031 127.251 51.8295 120.281 52.0955C117.714 53.166 116.662 53.877 115.799 55.4415C113.643 57.0085 112.015 57.7564 108.703 58.9637C105.803 60.2101 103.919 60.8164 99.3665 61.4733C96.1123 61.6149 94.2929 61.6919 91.15 61.7815C89.5757 62.2 88.4749 62.4664 86.2949 62.9702C83.8747 63.1436 82.9274 63.2883 82.0622 63.6307C81.5419 64.8104 81.5184 65.4889 81.6887 66.7126C82.351 67.8371 83.2137 68.3297 86.2949 68.7819C97.1823 68.4074 103.111 67.3061 113.558 64.6873C117.769 62.782 120.27 61.7118 125.385 59.8003C129.546 57.2651 131.224 55.8829 131.236 53.5924ZM74.2192 65.9641C74.7775 64.0503 74.2068 63.2826 69.1151 63.3225L63.1394 62.7941L54.674 60.6368C49.996 59.5125 47.8237 58.8053 45.2127 57.3347C42.5894 54.0274 41.1279 52.2319 38.9881 52.0074C32.6507 51.4917 29.9948 51.4703 28.6553 52.4477C27.8928 53.7163 28.0663 54.5753 29.2778 56.3221C32.2773 59.0234 34.2135 60.4798 38.3656 62.9262C42.4174 64.667 45.1163 65.5108 50.9393 66.7126C55.5831 67.6983 58.1773 68.1304 62.766 68.4297C65.2826 68.8212 66.8196 68.9186 69.7375 68.914C72.9736 68.5153 73.5821 67.6808 74.2192 65.9641Z" fill="#1F1F1F"/>
<path d="M63.7619 51.1269C65.2559 50.8836 66.3725 50.7745 68.9906 50.6426C70.0574 50.3298 72.4703 49.7092 71.1572 49.25H63.9072C60.5515 48.9132 58.1228 48.5495 54.674 48.4335L13.7164 48.3091C13.0963 48.3522 12.7289 48.417 12.03 48.6225C9.97753 48.6823 8.7237 48.7817 6.25745 49.1149C4.19261 49.5169 3.04156 49.77 0.874056 49.7417C0.344881 49.9713 0.275695 50.1288 0.841616 50.5028C1.38403 50.6085 1.67047 50.6937 2.17125 50.861C3.66893 50.9642 4.3095 51.1397 5.08997 51.6668C7.04032 51.6256 8.13383 51.6296 10.0842 51.6668C11.1121 51.9355 11.815 52.0426 13.5542 52.0698C14.5105 52.3792 18.5436 52.7419 19.6919 55.3975V58.5235C19.8709 60.087 21.5204 60.8486 26.041 62.0897L36.2493 66.1843C40.5911 67.2049 43.2067 69.1149 48.2005 69.8395C50.7373 69.8684 52.0834 70.9544 54.0516 71.4999C56.8666 71.8156 59.3615 70.9526 67.8701 73.5682C71.1102 74.2653 71.3521 74.0402 73.5967 74.1869C82.126 74.7445 87.8659 73.1979 95.3828 72.9999C99.6224 71.6002 102.326 71.4691 107.085 71.1067C112.55 69.5347 115.868 67.8763 122.397 66.8887C126.021 64.9607 127.936 63.8968 130.738 62.0897C133.684 61.4019 134.915 60.7158 136.216 58.6115C137.404 57.7382 137.629 57.1604 136.589 55.8378C135.848 53.8853 137.718 52.9207 138.83 52.4477C140.887 52.3887 141.346 52.2974 142.231 52.0074C143.157 52.094 143.436 51.9408 143.92 51.6552H145.673C146.074 51.4958 146.34 51.3966 146.834 51.2149C147.237 51.1837 147.42 51.0954 147.658 50.7746C147.876 50.6204 148.221 50.6282 148.809 50.6414M63.7619 51.1269L63.5608 51.1273M63.7619 51.1269C63.6946 51.1271 63.6276 51.1272 63.5608 51.1273M148.861 50.6425C149.413 50.2908 149.536 50.0705 149.389 49.5859C147.054 49.319 145.744 49.1792 143.392 49.1016C142.446 48.7296 141.859 48.6819 140.774 48.7053L105.812 48.5888L90.5276 49.25C87.9052 48.826 85.1572 49.5 90.5276 50.9508C92.9126 51.3918 94.891 51.5522 99.3665 51.6993C104.94 51.7909 107.927 51.8818 109.201 53.1962C108.727 54.4169 108.229 55.1019 107.085 56.3222C106.332 57.5682 103.667 57.4147 98.993 58.8201C91.4687 59.8346 86.9555 60.5251 81.6887 59.0843C79.9892 54.7661 79.5926 51.7295 77.3315 52.3157C76.2501 52.9923 75.8923 53.6418 76.0866 55.7058C75.7424 56.3763 75.5271 56.742 74.8417 57.2468C75.1843 59.6252 74.7024 60.6529 69.862 60.6809C59.1322 59.7074 49.779 56.7883 47.4535 52.888C48.0635 52.2931 48.5616 52.0163 49.9434 51.6993C51.612 51.1505 55.9439 51.1421 63.5608 51.1273M148.861 50.6425L148.809 50.6414M148.861 50.6425C148.843 50.6421 148.826 50.6418 148.809 50.6414M120.281 52.0955C127.251 51.8295 129.822 52.1031 131.236 53.5924C131.224 55.8829 129.546 57.2651 125.385 59.8003C120.27 61.7118 117.769 62.782 113.558 64.6873C103.111 67.3061 97.1823 68.4074 86.2949 68.7819C83.2137 68.3297 82.351 67.8371 81.6887 66.7126C81.5184 65.4889 81.5419 64.8104 82.0622 63.6307C82.9274 63.2883 83.8747 63.1436 86.2949 62.9702C88.4749 62.4664 89.5757 62.2 91.15 61.7815C94.2929 61.6919 96.1123 61.6149 99.3665 61.4733C103.919 60.8164 105.803 60.2101 108.703 58.9637C112.015 57.7564 113.643 57.0085 115.799 55.4415C116.662 53.877 117.714 53.166 120.281 52.0955ZM69.1151 63.3225C74.2068 63.2826 74.7775 64.0503 74.2192 65.9641C73.5821 67.6808 72.9736 68.5153 69.7375 68.914C66.8196 68.9186 65.2826 68.8212 62.766 68.4297C58.1773 68.1304 55.5831 67.6983 50.9393 66.7126C45.1163 65.5108 42.4174 64.667 38.3656 62.9262C34.2135 60.4798 32.2773 59.0234 29.2778 56.3221C28.0663 54.5753 27.8928 53.7163 28.6553 52.4477C29.9948 51.4703 32.6507 51.4917 38.9881 52.0074C41.1279 52.2319 42.5894 54.0274 45.2127 57.3347C47.8237 58.8053 49.996 59.5125 54.674 60.6368L63.1394 62.7941L69.1151 63.3225Z" stroke="#E6E6E6" stroke-width="0.892917"/>
<mask id="path-3-outside-1_585_6985" maskUnits="userSpaceOnUse" x="3.50879" y="8.19568" width="144" height="42" fill="black">
<rect fill="white" x="3.50879" y="8.19568" width="144" height="42"/>
<path d="M37.681 10.3671C37.681 10.5576 37.662 10.6719 37.6239 10.71C37.4715 10.8624 37.3191 11.0147 37.1667 11.1671C37.0143 11.2814 36.862 11.4148 36.7096 11.5671C36.5953 11.7195 36.462 11.8529 36.3096 11.9671C36.0429 12.2719 35.8524 12.6338 35.7381 13.0529C35.6619 13.6243 35.5286 14.5196 35.3381 15.7387C35.1476 16.9197 34.9381 18.1768 34.7095 19.5102C34.519 20.8436 34.3286 22.1388 34.1381 23.396C33.9476 24.6151 33.7952 25.5865 33.6809 26.3104C33.5666 26.9199 33.7571 27.4723 34.2524 27.9676C34.4048 28.1199 34.5381 28.2723 34.6524 28.4247C34.8048 28.539 34.9381 28.6723 35.0524 28.8247C35.2048 28.939 35.3381 29.0723 35.4524 29.2247C35.5286 29.3009 35.5667 29.3581 35.5667 29.3962C35.5667 29.4724 35.5286 29.5485 35.4524 29.6247L33.1666 31.9105C32.9 32.1772 32.7285 32.5391 32.6523 32.9963C32.5761 33.5677 32.4428 34.4058 32.2523 35.5106C32.0999 36.6154 31.9095 37.7964 31.6809 39.0535C31.4904 40.2726 31.2999 41.4727 31.1094 42.6536C30.919 43.7965 30.7666 44.7108 30.6523 45.3966C30.5761 46.0823 30.7666 46.6537 31.2237 47.1109L32.1952 48.0823C32.2714 48.1585 32.3095 48.2728 32.3095 48.4252C32.2714 48.5395 32.1761 48.5966 32.0237 48.5966H23.1664C23.0521 48.5966 22.9568 48.5395 22.8807 48.4252C22.8807 48.2728 22.9188 48.1585 22.9949 48.0823L23.5664 47.5109C24.0235 47.0537 24.195 46.5204 24.0807 45.9109C24.0045 45.3013 23.9093 44.4823 23.795 43.4537C23.6807 42.4251 23.5473 41.2631 23.395 39.9679C23.2807 38.6726 23.1283 37.3202 22.9378 35.9106C22.7854 34.463 22.633 33.0724 22.4806 31.7391C22.3664 30.3676 22.233 29.0914 22.0806 27.9104C21.9282 26.7294 21.814 25.7389 21.7378 24.9389C21.7378 24.8246 21.6806 24.7675 21.5663 24.7675C21.452 24.7675 21.3949 24.8246 21.3949 24.9389C21.3187 25.7008 21.2044 26.6723 21.052 27.8533C20.9377 29.0342 20.8044 30.2914 20.652 31.6248C20.4996 32.9582 20.3473 34.3487 20.1949 35.7963C20.0425 37.2059 19.8901 38.5392 19.7377 39.7964C19.6234 41.0536 19.5091 42.2155 19.3949 43.2822C19.2806 44.3108 19.1853 45.1108 19.1091 45.6823C19.071 46.2918 19.2615 46.8252 19.6806 47.2823L20.4806 48.0823C20.5568 48.2347 20.5758 48.349 20.5377 48.4252C20.4996 48.5395 20.4044 48.5966 20.252 48.5966H11.4518C11.3375 48.5966 11.2423 48.5395 11.1661 48.4252C11.128 48.349 11.147 48.2347 11.2232 48.0823C11.2994 48.0062 11.3756 47.93 11.4518 47.8538C11.528 47.7776 11.6232 47.7014 11.7375 47.6252C11.8518 47.5109 11.947 47.4157 12.0232 47.3395C12.4804 46.8061 12.6518 46.2347 12.5375 45.6251C12.4232 44.9394 12.2709 44.0061 12.0804 42.8251C11.928 41.606 11.7375 40.3679 11.5089 39.1107C11.3185 37.8535 11.128 36.6725 10.9375 35.5677C10.7851 34.4249 10.6518 33.5677 10.5375 32.9963C10.4613 32.5391 10.2899 32.1772 10.0232 31.9105L7.73742 29.6247C7.66122 29.5485 7.62313 29.4724 7.62313 29.3962C7.62313 29.3581 7.66122 29.3009 7.73742 29.2247C7.85171 29.0723 7.98504 28.939 8.13743 28.8247C8.25172 28.6723 8.38505 28.539 8.53744 28.4247C8.68982 28.2723 8.82316 28.1199 8.93745 27.9676C9.4327 27.4723 9.62318 26.9199 9.50889 26.3104C9.3946 25.5865 9.24222 24.6151 9.05174 23.396C8.86125 22.1388 8.65173 20.8436 8.42315 19.5102C8.23267 18.1768 8.04219 16.9197 7.85171 15.7387C7.66122 14.5196 7.52789 13.6243 7.4517 13.0529C7.33741 12.6338 7.14693 12.2719 6.88025 11.9671L6.08023 11.1671C5.92785 11.0147 5.77546 10.8624 5.62308 10.71C5.54689 10.6719 5.50879 10.5576 5.50879 10.3671C5.62308 10.2528 5.71832 10.1957 5.79451 10.1957H14.6519C14.7281 10.1957 14.8233 10.2528 14.9376 10.3671C14.9376 10.5576 14.8995 10.6719 14.8233 10.71C14.709 10.8243 14.5947 10.9386 14.4804 11.0528C14.4043 11.129 14.309 11.2433 14.1947 11.3957C14.0804 11.51 13.9471 11.6243 13.7947 11.7386C13.3757 12.2338 13.1852 12.7862 13.2233 13.3958C13.2995 13.9672 13.3947 14.7672 13.509 15.7958C13.6614 16.8244 13.8138 17.9673 13.9661 19.2245C14.1185 20.4817 14.2709 21.815 14.4233 23.2246C14.6138 24.596 14.7852 25.9485 14.9376 27.2818C15.09 28.5771 15.2233 29.7962 15.3376 30.9391C15.49 32.0438 15.6043 32.9772 15.6805 33.7391C15.6805 33.8534 15.7376 33.9106 15.8519 33.9106C16.0043 33.9106 16.0805 33.8534 16.0805 33.7391C16.1948 32.5962 16.3662 31.0724 16.5948 29.1676C16.8234 27.2247 17.0519 25.2246 17.2805 23.1674C17.5472 21.1102 17.7948 19.1864 18.0234 17.3959C18.252 15.5672 18.4234 14.2148 18.5377 13.3386C18.5758 12.7291 18.3853 12.1767 17.9662 11.6814L16.9948 10.71C16.9186 10.6719 16.8805 10.5576 16.8805 10.3671C16.9948 10.2528 17.09 10.1957 17.1662 10.1957H26.0236C26.0998 10.1957 26.195 10.2528 26.3093 10.3671C26.3093 10.5576 26.2903 10.6719 26.2522 10.71C26.1379 10.8243 26.0236 10.9195 25.9093 10.9957C25.8331 11.11 25.7188 11.2243 25.5664 11.3386C25.4521 11.4529 25.3379 11.5671 25.2236 11.6814C24.8045 12.1767 24.614 12.7291 24.6521 13.3386C24.7664 14.2148 24.9378 15.5672 25.1664 17.3959C25.395 19.1864 25.6236 21.1102 25.8522 23.1674C26.1188 25.2246 26.3665 27.2247 26.595 29.1676C26.8236 31.0724 26.995 32.5962 27.1093 33.7391C27.1093 33.8534 27.1855 33.9106 27.3379 33.9106C27.4522 33.9106 27.5093 33.8534 27.5093 33.7391C27.5855 32.9772 27.6808 32.0438 27.7951 30.9391C27.9475 29.7962 28.0998 28.5771 28.2522 27.2818C28.4046 25.9485 28.557 24.596 28.7094 23.2246C28.8999 21.815 29.0713 20.4817 29.2237 19.2245C29.3761 17.9673 29.5094 16.8244 29.6237 15.7958C29.7761 14.7672 29.8904 13.9672 29.9665 13.3958C30.0046 12.7862 29.8142 12.2338 29.3951 11.7386L28.7094 11.0528C28.5951 10.9386 28.4808 10.8243 28.3665 10.71C28.2522 10.6338 28.2332 10.5195 28.3094 10.3671C28.3094 10.2528 28.3856 10.1957 28.5379 10.1957H37.3953C37.4715 10.1957 37.5667 10.2528 37.681 10.3671Z"/>
<path d="M59.9829 48.0823C60.0591 48.1585 60.0972 48.2728 60.0972 48.4252C60.0591 48.5395 59.9639 48.5966 59.8115 48.5966H50.9541C50.8398 48.5966 50.7446 48.5395 50.6684 48.4252C50.6684 48.2728 50.7065 48.1585 50.7827 48.0823L51.4684 47.3966C51.9637 46.9014 52.1542 46.3299 52.0399 45.6823C51.9637 45.2251 51.8684 44.6727 51.7542 44.0251C51.678 43.3775 51.5827 42.7298 51.4684 42.0822C51.3541 41.3965 51.2398 40.7679 51.1256 40.1964C51.0494 39.625 50.9922 39.1869 50.9541 38.8821C50.8779 38.5773 50.7065 38.425 50.4398 38.425H44.6683C44.4016 38.425 44.2301 38.5773 44.154 38.8821C44.1159 39.1869 44.0397 39.625 43.9254 40.1964C43.8492 40.7679 43.7539 41.3965 43.6397 42.0822C43.5254 42.7298 43.4111 43.3775 43.2968 44.0251C43.2206 44.6727 43.1444 45.2251 43.0682 45.6823C42.9539 46.3299 43.1444 46.9014 43.6397 47.3966C43.8682 47.6252 44.0397 47.7776 44.154 47.8538C44.2301 47.93 44.3063 48.0062 44.3825 48.0823C44.4206 48.1585 44.4397 48.2728 44.4397 48.4252C44.4016 48.5395 44.3063 48.5966 44.154 48.5966H35.2966C35.1823 48.5966 35.0871 48.5395 35.0109 48.4252C35.0109 48.2728 35.049 48.1585 35.1252 48.0823L36.7252 46.4823C36.9919 46.2156 37.1824 45.8728 37.2966 45.4537C37.4109 44.8823 37.5633 44.0251 37.7538 42.8822C37.9824 41.7012 38.2109 40.4631 38.4395 39.1678C38.6681 37.8345 38.8967 36.5582 39.1253 35.3392C39.3538 34.082 39.5253 33.0915 39.6396 32.3677C39.7538 31.72 39.5634 31.1486 39.0681 30.6533L38.0395 29.6247C37.9633 29.5485 37.9252 29.4724 37.9252 29.3962C37.9252 29.3581 37.9633 29.3009 38.0395 29.2247C38.3062 28.9581 38.5729 28.6723 38.8395 28.3676L40.211 26.9961C40.5539 26.6532 40.7443 26.3104 40.7824 25.9675C40.8967 25.3961 41.0491 24.5579 41.2396 23.4532C41.4301 22.3103 41.6396 21.1102 41.8682 19.8531C42.0968 18.5959 42.3253 17.3768 42.5539 16.1958C42.7825 14.9767 42.9539 14.0243 43.0682 13.3386C43.1825 12.691 42.992 12.1195 42.4968 11.6243C42.3063 11.3957 42.0968 11.1862 41.8682 10.9957C41.792 10.8814 41.6968 10.7862 41.5825 10.71C41.4682 10.5957 41.4491 10.4814 41.5253 10.3671C41.6015 10.2528 41.6968 10.1957 41.811 10.1957H53.4685C53.6209 10.1957 53.7161 10.2528 53.7542 10.3671C53.8304 10.4814 53.8113 10.5957 53.6971 10.71L52.6113 11.7957C52.1542 12.2529 51.9827 12.8243 52.097 13.51C52.2113 14.1958 52.3637 15.1291 52.5542 16.3101C52.7827 17.4911 53.0113 18.7102 53.2399 19.9674C53.4685 21.2245 53.678 22.4055 53.8685 23.5103C54.059 24.6151 54.2114 25.4342 54.3256 25.9675C54.3637 26.3104 54.5542 26.6532 54.8971 26.9961C55.0876 27.1866 55.2971 27.4152 55.5257 27.6818C55.7923 27.9104 56.04 28.139 56.2685 28.3676C56.5352 28.6723 56.8019 28.9581 57.0686 29.2247C57.1448 29.3009 57.1829 29.3581 57.1829 29.3962C57.1829 29.4724 57.1448 29.5485 57.0686 29.6247L56.04 30.6533C55.5447 31.1486 55.3542 31.72 55.4685 32.3677C55.5828 33.0915 55.7542 34.082 55.9828 35.3392C56.2114 36.5582 56.44 37.8345 56.6686 39.1678C56.9352 40.4631 57.1638 41.7012 57.3543 42.8822C57.5829 44.0251 57.7543 44.8823 57.8686 45.4537C57.9448 45.8347 58.1162 46.1775 58.3829 46.4823L59.9829 48.0823ZM49.7541 32.7105C49.8684 32.5962 49.9065 32.4629 49.8684 32.3105C49.7922 31.7772 49.6589 30.9391 49.4684 29.7962C49.2779 28.6152 49.0684 27.358 48.8398 26.0246C48.6493 24.6913 48.4398 23.396 48.2112 22.1388C48.0207 20.8436 47.8683 19.815 47.754 19.053C47.754 18.9388 47.6969 18.8816 47.5826 18.8816C47.4302 18.8816 47.354 18.9388 47.354 19.053C47.2397 19.815 47.0683 20.8436 46.8397 22.1388C46.6493 23.396 46.4397 24.6913 46.2112 26.0246C46.0207 27.358 45.8302 28.6152 45.6397 29.7962C45.4492 30.9391 45.3159 31.7772 45.2397 32.3105C45.2016 32.4629 45.2397 32.5962 45.354 32.7105C45.4302 32.8248 45.5445 32.882 45.6969 32.882H49.4112C49.6017 32.882 49.716 32.8248 49.7541 32.7105Z"/>
<path d="M83.3849 48.0823C83.4611 48.2347 83.4801 48.349 83.442 48.4252C83.4039 48.5395 83.3087 48.5966 83.1563 48.5966H74.2989C74.2227 48.5966 74.1465 48.5395 74.0703 48.4252C73.9941 48.3109 74.0132 48.1966 74.1275 48.0823L74.8132 47.3966C75.3847 46.8252 75.537 46.1585 75.2704 45.3966C75.0418 44.7489 74.737 43.9108 74.3561 42.8822C74.0132 41.8536 73.6322 40.7107 73.2132 39.4536C72.7941 38.1964 72.337 36.9011 71.8417 35.5677C71.3846 34.2344 70.9464 32.9582 70.5274 31.7391C70.1083 30.52 69.7274 29.3962 69.3845 28.3676C69.0416 27.339 68.7559 26.5199 68.5273 25.9104C68.4892 25.7961 68.413 25.7389 68.2988 25.7389C68.1845 25.777 68.1273 25.8532 68.1273 25.9675V45.568C68.1273 46.0252 68.3178 46.4823 68.6988 46.9395L69.8417 48.0823C69.9179 48.1585 69.9559 48.2728 69.9559 48.4252C69.9179 48.5395 69.8226 48.5966 69.6702 48.5966H60.8129C60.6986 48.5966 60.6033 48.5395 60.5271 48.4252C60.5271 48.2728 60.5652 48.1585 60.6414 48.0823C60.7557 47.9681 60.889 47.8347 61.0414 47.6823C61.1557 47.568 61.27 47.4347 61.3843 47.2823C61.5367 47.1299 61.67 46.9966 61.7843 46.8823C62.1653 46.5395 62.3558 46.0823 62.3558 45.5109V32.1962C62.3558 31.6248 62.1653 31.1486 61.7843 30.7676L60.6414 29.6247C60.5652 29.5485 60.5271 29.4724 60.5271 29.3962C60.5271 29.32 60.5652 29.2438 60.6414 29.1676L61.7843 28.0247C62.1653 27.6437 62.3558 27.1675 62.3558 26.5961V13.2815C62.3558 12.71 62.1653 12.2529 61.7843 11.91C61.67 11.7576 61.5367 11.6243 61.3843 11.51C61.27 11.3576 61.1557 11.2243 61.0414 11.11C60.889 10.9576 60.7557 10.8243 60.6414 10.71C60.5652 10.6338 60.5271 10.5195 60.5271 10.3671C60.6033 10.2528 60.6986 10.1957 60.8129 10.1957H69.6702C69.8226 10.1957 69.9179 10.2528 69.9559 10.3671C69.9559 10.5195 69.9179 10.6338 69.8417 10.71L69.7274 10.8243C69.1559 11.3957 69.0035 12.0624 69.2702 12.8243C69.4607 13.4339 69.7274 14.2529 70.0702 15.2815C70.4131 16.3101 70.775 17.434 71.156 18.653C71.5369 19.8721 71.9369 21.1483 72.356 22.4817C72.8132 23.8151 73.2322 25.0913 73.6132 26.3104C73.9941 27.5294 74.3561 28.6723 74.6989 29.739C75.0418 30.7676 75.3085 31.5867 75.4989 32.1962C75.5751 32.3105 75.6513 32.3677 75.7275 32.3677C75.8418 32.2534 75.8989 32.1772 75.8989 32.1391V13.2815C75.8989 12.7481 75.7085 12.291 75.3275 11.91L74.1275 10.71C74.0132 10.5957 73.9941 10.4814 74.0703 10.3671C74.1465 10.2528 74.2227 10.1957 74.2989 10.1957H83.1563C83.3087 10.1957 83.4039 10.2528 83.442 10.3671C83.4801 10.4433 83.4611 10.5576 83.3849 10.71C83.2706 10.8243 83.1372 10.9576 82.9848 11.11C82.8706 11.1862 82.7372 11.3005 82.5848 11.4529C82.4706 11.5671 82.3372 11.7005 82.1848 11.8529C81.8039 12.31 81.6134 12.7672 81.6134 13.2243V26.6532C81.6134 27.1866 81.8039 27.6437 82.1848 28.0247C82.3372 28.139 82.4706 28.2723 82.5848 28.4247C82.7372 28.539 82.8706 28.6533 82.9848 28.7676C83.1372 28.92 83.2706 29.0533 83.3849 29.1676C83.423 29.2057 83.442 29.2819 83.442 29.3962C83.442 29.5105 83.423 29.5866 83.3849 29.6247C83.2706 29.739 83.1372 29.8724 82.9848 30.0247C82.8706 30.1009 82.7372 30.2152 82.5848 30.3676C82.4706 30.4819 82.3372 30.6152 82.1848 30.7676C81.8039 31.1486 81.6134 31.6057 81.6134 32.1391V45.568C81.6134 46.0252 81.8039 46.4823 82.1848 46.9395L83.3849 48.0823Z"/>
<path d="M102.493 10.3671C102.569 10.4433 102.607 10.5576 102.607 10.71V17.3959C102.607 17.5101 102.55 17.6054 102.436 17.6816C102.36 17.7197 102.245 17.7006 102.093 17.6244C101.941 17.4721 101.807 17.3197 101.693 17.1673C101.579 17.053 101.445 16.9197 101.293 16.7673C101.141 16.6149 100.988 16.4816 100.836 16.3673C100.493 15.9863 100.036 15.7958 99.4643 15.7958H96.7785C96.4356 15.7958 96.2642 15.9482 96.2642 16.253V26.6532C96.2642 27.1866 96.4547 27.6437 96.8356 28.0247L98.0357 29.2247C98.1119 29.3009 98.15 29.3581 98.15 29.3962C98.15 29.4724 98.1119 29.5485 98.0357 29.6247C97.9214 29.739 97.788 29.8724 97.6357 30.0247C97.5214 30.139 97.388 30.2724 97.2356 30.4248C97.1214 30.539 96.988 30.6533 96.8356 30.7676C96.4547 31.2248 96.2642 31.701 96.2642 32.1962V45.568C96.2642 46.0252 96.4547 46.4823 96.8356 46.9395C96.988 47.0537 97.1214 47.1871 97.2356 47.3395C97.388 47.4538 97.5214 47.568 97.6357 47.6823C97.788 47.8347 97.9214 47.9681 98.0357 48.0823C98.15 48.1966 98.169 48.3109 98.0928 48.4252C98.0547 48.5395 97.9595 48.5966 97.8071 48.5966H89.0069C88.8926 48.5966 88.7973 48.5395 88.7211 48.4252C88.6831 48.349 88.7021 48.2347 88.7783 48.0823C88.8926 47.9681 89.0259 47.8347 89.1783 47.6823C89.2926 47.568 89.4259 47.4538 89.5783 47.3395C89.7307 47.1871 89.864 47.0537 89.9783 46.9395C90.3593 46.4823 90.5498 46.0252 90.5498 45.568V32.1962C90.5498 31.701 90.3593 31.2248 89.9783 30.7676C89.864 30.6533 89.7307 30.539 89.5783 30.4248C89.4259 30.2724 89.2926 30.139 89.1783 30.0247C89.0259 29.8724 88.8926 29.739 88.7783 29.6247C88.7402 29.5866 88.7211 29.5105 88.7211 29.3962C88.7211 29.32 88.7402 29.2628 88.7783 29.2247L89.9783 28.0247C90.3593 27.6437 90.5498 27.1866 90.5498 26.6532V16.253C90.5498 15.9482 90.3783 15.7958 90.0355 15.7958H87.3497C86.7782 15.7958 86.3211 15.9863 85.9782 16.3673C85.8258 16.4816 85.6734 16.6149 85.5211 16.7673C85.4068 16.9197 85.2734 17.053 85.1211 17.1673C85.0068 17.3197 84.8734 17.4721 84.721 17.6244C84.5687 17.7006 84.4544 17.7197 84.3782 17.6816C84.2639 17.6054 84.2067 17.5101 84.2067 17.3959V10.71C84.2067 10.3671 84.3782 10.1957 84.721 10.1957H102.15C102.264 10.1957 102.379 10.2528 102.493 10.3671Z"/>
<path d="M111.47 15.7958C111.128 15.7958 110.956 15.9482 110.956 16.253V26.1389C110.956 26.4437 111.128 26.5961 111.47 26.5961H116.385C116.918 26.5961 117.375 26.4056 117.756 26.0246C117.909 25.8723 118.061 25.7389 118.213 25.6246C118.366 25.4723 118.499 25.3389 118.613 25.2246C118.728 25.0722 118.861 24.9199 119.013 24.7675C119.166 24.6913 119.28 24.6722 119.356 24.7103C119.471 24.7484 119.528 24.8437 119.528 24.996V33.8534C119.528 33.9296 119.471 34.0058 119.356 34.082C119.242 34.1582 119.128 34.1391 119.013 34.0248L117.699 32.7105C117.318 32.3296 116.861 32.1391 116.328 32.1391H111.47C111.318 32.1391 111.204 32.1962 111.128 32.3105C111.013 32.3486 110.956 32.4629 110.956 32.6534V42.5393C110.956 42.6917 111.013 42.806 111.128 42.8822C111.204 42.9965 111.318 43.0536 111.47 43.0536H118.442C118.937 43.0536 119.413 42.8632 119.871 42.4822C120.023 42.3298 120.156 42.1774 120.271 42.0251C120.423 41.8727 120.575 41.7393 120.728 41.625C120.88 41.4727 121.033 41.3203 121.185 41.1679C121.223 41.0536 121.318 41.0345 121.471 41.1107C121.585 41.1488 121.642 41.2441 121.642 41.3965V48.1395C121.642 48.4443 121.49 48.5966 121.185 48.5966H103.642C103.527 48.5966 103.432 48.5395 103.356 48.4252C103.356 48.2728 103.394 48.1585 103.47 48.0823L104.67 46.8823C105.051 46.5014 105.242 46.0442 105.242 45.5109V32.1962C105.242 31.6629 105.051 31.2057 104.67 30.8248L103.47 29.6247C103.394 29.5485 103.356 29.4724 103.356 29.3962C103.356 29.3581 103.394 29.3009 103.47 29.2247L104.67 28.0247C105.051 27.5675 105.242 27.0913 105.242 26.5961V13.2815C105.242 12.7481 105.051 12.291 104.67 11.91L103.47 10.71C103.394 10.6719 103.356 10.5576 103.356 10.3671C103.432 10.2528 103.527 10.1957 103.642 10.1957H121.185C121.49 10.1957 121.642 10.3671 121.642 10.71V17.3959C121.642 17.5101 121.585 17.6054 121.471 17.6816C121.356 17.7197 121.261 17.7006 121.185 17.6244C121.033 17.4721 120.88 17.3197 120.728 17.1673C120.613 17.053 120.48 16.9197 120.328 16.7673C120.175 16.6149 120.023 16.4816 119.871 16.3673C119.528 15.9863 119.071 15.7958 118.499 15.7958H111.47Z"/>
<path d="M145.543 29.2247C145.619 29.3009 145.657 29.3581 145.657 29.3962C145.657 29.4724 145.619 29.5485 145.543 29.6247L144.4 30.7676C144.019 31.1486 143.829 31.6248 143.829 32.1962V40.4822C143.829 42.006 143.543 43.3584 142.972 44.5394C142.743 45.0346 142.438 45.5299 142.057 46.0252C141.714 46.5204 141.257 46.9585 140.686 47.3395C140.153 47.7204 139.505 48.0252 138.743 48.2538C138.019 48.4824 137.143 48.5966 136.114 48.5966H123.828C123.714 48.5966 123.619 48.5395 123.543 48.4252C123.543 48.2728 123.581 48.1585 123.657 48.0823L124.8 46.9395C125.181 46.5585 125.371 46.1013 125.371 45.568V32.1962C125.371 31.6248 125.181 31.1486 124.8 30.7676L124.057 30.0247C123.904 29.8724 123.771 29.739 123.657 29.6247C123.581 29.5485 123.543 29.4724 123.543 29.3962C123.543 29.3581 123.581 29.3009 123.657 29.2247C123.771 29.1104 123.904 28.9771 124.057 28.8247C124.171 28.7104 124.285 28.5771 124.4 28.4247C124.552 28.2723 124.685 28.139 124.8 28.0247C125.181 27.6818 125.371 27.2247 125.371 26.6532V13.2815C125.371 12.71 125.181 12.2529 124.8 11.91C124.685 11.7576 124.552 11.6243 124.4 11.51C124.285 11.3576 124.171 11.2243 124.057 11.11C123.904 10.9576 123.771 10.8243 123.657 10.71C123.581 10.6719 123.543 10.5576 123.543 10.3671C123.657 10.2528 123.752 10.1957 123.828 10.1957H136.114C138.133 10.1957 139.657 10.6147 140.686 11.4529C141.753 12.291 142.514 13.2243 142.972 14.2529C143.543 15.4339 143.829 16.7863 143.829 18.3102V26.6532C143.829 27.2247 144.019 27.6818 144.4 28.0247C144.515 28.139 144.629 28.2723 144.743 28.4247C144.895 28.5771 145.029 28.7104 145.143 28.8247C145.295 28.9771 145.429 29.1104 145.543 29.2247ZM138.057 17.853C138.057 17.3959 137.981 17.0339 137.829 16.7673C137.676 16.4625 137.486 16.253 137.257 16.1387C137.067 15.9863 136.857 15.8911 136.629 15.853C136.4 15.8149 136.19 15.7958 136 15.7958H131.6C131.448 15.7958 131.333 15.8339 131.257 15.9101C131.181 16.0625 131.143 16.1768 131.143 16.253V42.5393C131.143 42.6917 131.181 42.806 131.257 42.8822C131.371 42.9965 131.486 43.0536 131.6 43.0536H136C136.381 43.0536 136.819 42.9394 137.314 42.7108C137.81 42.4822 138.057 41.8917 138.057 40.9393V17.853Z"/>
</mask>
<path d="M37.681 10.3671C37.681 10.5576 37.662 10.6719 37.6239 10.71C37.4715 10.8624 37.3191 11.0147 37.1667 11.1671C37.0143 11.2814 36.862 11.4148 36.7096 11.5671C36.5953 11.7195 36.462 11.8529 36.3096 11.9671C36.0429 12.2719 35.8524 12.6338 35.7381 13.0529C35.6619 13.6243 35.5286 14.5196 35.3381 15.7387C35.1476 16.9197 34.9381 18.1768 34.7095 19.5102C34.519 20.8436 34.3286 22.1388 34.1381 23.396C33.9476 24.6151 33.7952 25.5865 33.6809 26.3104C33.5666 26.9199 33.7571 27.4723 34.2524 27.9676C34.4048 28.1199 34.5381 28.2723 34.6524 28.4247C34.8048 28.539 34.9381 28.6723 35.0524 28.8247C35.2048 28.939 35.3381 29.0723 35.4524 29.2247C35.5286 29.3009 35.5667 29.3581 35.5667 29.3962C35.5667 29.4724 35.5286 29.5485 35.4524 29.6247L33.1666 31.9105C32.9 32.1772 32.7285 32.5391 32.6523 32.9963C32.5761 33.5677 32.4428 34.4058 32.2523 35.5106C32.0999 36.6154 31.9095 37.7964 31.6809 39.0535C31.4904 40.2726 31.2999 41.4727 31.1094 42.6536C30.919 43.7965 30.7666 44.7108 30.6523 45.3966C30.5761 46.0823 30.7666 46.6537 31.2237 47.1109L32.1952 48.0823C32.2714 48.1585 32.3095 48.2728 32.3095 48.4252C32.2714 48.5395 32.1761 48.5966 32.0237 48.5966H23.1664C23.0521 48.5966 22.9568 48.5395 22.8807 48.4252C22.8807 48.2728 22.9188 48.1585 22.9949 48.0823L23.5664 47.5109C24.0235 47.0537 24.195 46.5204 24.0807 45.9109C24.0045 45.3013 23.9093 44.4823 23.795 43.4537C23.6807 42.4251 23.5473 41.2631 23.395 39.9679C23.2807 38.6726 23.1283 37.3202 22.9378 35.9106C22.7854 34.463 22.633 33.0724 22.4806 31.7391C22.3664 30.3676 22.233 29.0914 22.0806 27.9104C21.9282 26.7294 21.814 25.7389 21.7378 24.9389C21.7378 24.8246 21.6806 24.7675 21.5663 24.7675C21.452 24.7675 21.3949 24.8246 21.3949 24.9389C21.3187 25.7008 21.2044 26.6723 21.052 27.8533C20.9377 29.0342 20.8044 30.2914 20.652 31.6248C20.4996 32.9582 20.3473 34.3487 20.1949 35.7963C20.0425 37.2059 19.8901 38.5392 19.7377 39.7964C19.6234 41.0536 19.5091 42.2155 19.3949 43.2822C19.2806 44.3108 19.1853 45.1108 19.1091 45.6823C19.071 46.2918 19.2615 46.8252 19.6806 47.2823L20.4806 48.0823C20.5568 48.2347 20.5758 48.349 20.5377 48.4252C20.4996 48.5395 20.4044 48.5966 20.252 48.5966H11.4518C11.3375 48.5966 11.2423 48.5395 11.1661 48.4252C11.128 48.349 11.147 48.2347 11.2232 48.0823C11.2994 48.0062 11.3756 47.93 11.4518 47.8538C11.528 47.7776 11.6232 47.7014 11.7375 47.6252C11.8518 47.5109 11.947 47.4157 12.0232 47.3395C12.4804 46.8061 12.6518 46.2347 12.5375 45.6251C12.4232 44.9394 12.2709 44.0061 12.0804 42.8251C11.928 41.606 11.7375 40.3679 11.5089 39.1107C11.3185 37.8535 11.128 36.6725 10.9375 35.5677C10.7851 34.4249 10.6518 33.5677 10.5375 32.9963C10.4613 32.5391 10.2899 32.1772 10.0232 31.9105L7.73742 29.6247C7.66122 29.5485 7.62313 29.4724 7.62313 29.3962C7.62313 29.3581 7.66122 29.3009 7.73742 29.2247C7.85171 29.0723 7.98504 28.939 8.13743 28.8247C8.25172 28.6723 8.38505 28.539 8.53744 28.4247C8.68982 28.2723 8.82316 28.1199 8.93745 27.9676C9.4327 27.4723 9.62318 26.9199 9.50889 26.3104C9.3946 25.5865 9.24222 24.6151 9.05174 23.396C8.86125 22.1388 8.65173 20.8436 8.42315 19.5102C8.23267 18.1768 8.04219 16.9197 7.85171 15.7387C7.66122 14.5196 7.52789 13.6243 7.4517 13.0529C7.33741 12.6338 7.14693 12.2719 6.88025 11.9671L6.08023 11.1671C5.92785 11.0147 5.77546 10.8624 5.62308 10.71C5.54689 10.6719 5.50879 10.5576 5.50879 10.3671C5.62308 10.2528 5.71832 10.1957 5.79451 10.1957H14.6519C14.7281 10.1957 14.8233 10.2528 14.9376 10.3671C14.9376 10.5576 14.8995 10.6719 14.8233 10.71C14.709 10.8243 14.5947 10.9386 14.4804 11.0528C14.4043 11.129 14.309 11.2433 14.1947 11.3957C14.0804 11.51 13.9471 11.6243 13.7947 11.7386C13.3757 12.2338 13.1852 12.7862 13.2233 13.3958C13.2995 13.9672 13.3947 14.7672 13.509 15.7958C13.6614 16.8244 13.8138 17.9673 13.9661 19.2245C14.1185 20.4817 14.2709 21.815 14.4233 23.2246C14.6138 24.596 14.7852 25.9485 14.9376 27.2818C15.09 28.5771 15.2233 29.7962 15.3376 30.9391C15.49 32.0438 15.6043 32.9772 15.6805 33.7391C15.6805 33.8534 15.7376 33.9106 15.8519 33.9106C16.0043 33.9106 16.0805 33.8534 16.0805 33.7391C16.1948 32.5962 16.3662 31.0724 16.5948 29.1676C16.8234 27.2247 17.0519 25.2246 17.2805 23.1674C17.5472 21.1102 17.7948 19.1864 18.0234 17.3959C18.252 15.5672 18.4234 14.2148 18.5377 13.3386C18.5758 12.7291 18.3853 12.1767 17.9662 11.6814L16.9948 10.71C16.9186 10.6719 16.8805 10.5576 16.8805 10.3671C16.9948 10.2528 17.09 10.1957 17.1662 10.1957H26.0236C26.0998 10.1957 26.195 10.2528 26.3093 10.3671C26.3093 10.5576 26.2903 10.6719 26.2522 10.71C26.1379 10.8243 26.0236 10.9195 25.9093 10.9957C25.8331 11.11 25.7188 11.2243 25.5664 11.3386C25.4521 11.4529 25.3379 11.5671 25.2236 11.6814C24.8045 12.1767 24.614 12.7291 24.6521 13.3386C24.7664 14.2148 24.9378 15.5672 25.1664 17.3959C25.395 19.1864 25.6236 21.1102 25.8522 23.1674C26.1188 25.2246 26.3665 27.2247 26.595 29.1676C26.8236 31.0724 26.995 32.5962 27.1093 33.7391C27.1093 33.8534 27.1855 33.9106 27.3379 33.9106C27.4522 33.9106 27.5093 33.8534 27.5093 33.7391C27.5855 32.9772 27.6808 32.0438 27.7951 30.9391C27.9475 29.7962 28.0998 28.5771 28.2522 27.2818C28.4046 25.9485 28.557 24.596 28.7094 23.2246C28.8999 21.815 29.0713 20.4817 29.2237 19.2245C29.3761 17.9673 29.5094 16.8244 29.6237 15.7958C29.7761 14.7672 29.8904 13.9672 29.9665 13.3958C30.0046 12.7862 29.8142 12.2338 29.3951 11.7386L28.7094 11.0528C28.5951 10.9386 28.4808 10.8243 28.3665 10.71C28.2522 10.6338 28.2332 10.5195 28.3094 10.3671C28.3094 10.2528 28.3856 10.1957 28.5379 10.1957H37.3953C37.4715 10.1957 37.5667 10.2528 37.681 10.3671Z" fill="#E6E6E6"/>
<path d="M59.9829 48.0823C60.0591 48.1585 60.0972 48.2728 60.0972 48.4252C60.0591 48.5395 59.9639 48.5966 59.8115 48.5966H50.9541C50.8398 48.5966 50.7446 48.5395 50.6684 48.4252C50.6684 48.2728 50.7065 48.1585 50.7827 48.0823L51.4684 47.3966C51.9637 46.9014 52.1542 46.3299 52.0399 45.6823C51.9637 45.2251 51.8684 44.6727 51.7542 44.0251C51.678 43.3775 51.5827 42.7298 51.4684 42.0822C51.3541 41.3965 51.2398 40.7679 51.1256 40.1964C51.0494 39.625 50.9922 39.1869 50.9541 38.8821C50.8779 38.5773 50.7065 38.425 50.4398 38.425H44.6683C44.4016 38.425 44.2301 38.5773 44.154 38.8821C44.1159 39.1869 44.0397 39.625 43.9254 40.1964C43.8492 40.7679 43.7539 41.3965 43.6397 42.0822C43.5254 42.7298 43.4111 43.3775 43.2968 44.0251C43.2206 44.6727 43.1444 45.2251 43.0682 45.6823C42.9539 46.3299 43.1444 46.9014 43.6397 47.3966C43.8682 47.6252 44.0397 47.7776 44.154 47.8538C44.2301 47.93 44.3063 48.0062 44.3825 48.0823C44.4206 48.1585 44.4397 48.2728 44.4397 48.4252C44.4016 48.5395 44.3063 48.5966 44.154 48.5966H35.2966C35.1823 48.5966 35.0871 48.5395 35.0109 48.4252C35.0109 48.2728 35.049 48.1585 35.1252 48.0823L36.7252 46.4823C36.9919 46.2156 37.1824 45.8728 37.2966 45.4537C37.4109 44.8823 37.5633 44.0251 37.7538 42.8822C37.9824 41.7012 38.2109 40.4631 38.4395 39.1678C38.6681 37.8345 38.8967 36.5582 39.1253 35.3392C39.3538 34.082 39.5253 33.0915 39.6396 32.3677C39.7538 31.72 39.5634 31.1486 39.0681 30.6533L38.0395 29.6247C37.9633 29.5485 37.9252 29.4724 37.9252 29.3962C37.9252 29.3581 37.9633 29.3009 38.0395 29.2247C38.3062 28.9581 38.5729 28.6723 38.8395 28.3676L40.211 26.9961C40.5539 26.6532 40.7443 26.3104 40.7824 25.9675C40.8967 25.3961 41.0491 24.5579 41.2396 23.4532C41.4301 22.3103 41.6396 21.1102 41.8682 19.8531C42.0968 18.5959 42.3253 17.3768 42.5539 16.1958C42.7825 14.9767 42.9539 14.0243 43.0682 13.3386C43.1825 12.691 42.992 12.1195 42.4968 11.6243C42.3063 11.3957 42.0968 11.1862 41.8682 10.9957C41.792 10.8814 41.6968 10.7862 41.5825 10.71C41.4682 10.5957 41.4491 10.4814 41.5253 10.3671C41.6015 10.2528 41.6968 10.1957 41.811 10.1957H53.4685C53.6209 10.1957 53.7161 10.2528 53.7542 10.3671C53.8304 10.4814 53.8113 10.5957 53.6971 10.71L52.6113 11.7957C52.1542 12.2529 51.9827 12.8243 52.097 13.51C52.2113 14.1958 52.3637 15.1291 52.5542 16.3101C52.7827 17.4911 53.0113 18.7102 53.2399 19.9674C53.4685 21.2245 53.678 22.4055 53.8685 23.5103C54.059 24.6151 54.2114 25.4342 54.3256 25.9675C54.3637 26.3104 54.5542 26.6532 54.8971 26.9961C55.0876 27.1866 55.2971 27.4152 55.5257 27.6818C55.7923 27.9104 56.04 28.139 56.2685 28.3676C56.5352 28.6723 56.8019 28.9581 57.0686 29.2247C57.1448 29.3009 57.1829 29.3581 57.1829 29.3962C57.1829 29.4724 57.1448 29.5485 57.0686 29.6247L56.04 30.6533C55.5447 31.1486 55.3542 31.72 55.4685 32.3677C55.5828 33.0915 55.7542 34.082 55.9828 35.3392C56.2114 36.5582 56.44 37.8345 56.6686 39.1678C56.9352 40.4631 57.1638 41.7012 57.3543 42.8822C57.5829 44.0251 57.7543 44.8823 57.8686 45.4537C57.9448 45.8347 58.1162 46.1775 58.3829 46.4823L59.9829 48.0823ZM49.7541 32.7105C49.8684 32.5962 49.9065 32.4629 49.8684 32.3105C49.7922 31.7772 49.6589 30.9391 49.4684 29.7962C49.2779 28.6152 49.0684 27.358 48.8398 26.0246C48.6493 24.6913 48.4398 23.396 48.2112 22.1388C48.0207 20.8436 47.8683 19.815 47.754 19.053C47.754 18.9388 47.6969 18.8816 47.5826 18.8816C47.4302 18.8816 47.354 18.9388 47.354 19.053C47.2397 19.815 47.0683 20.8436 46.8397 22.1388C46.6493 23.396 46.4397 24.6913 46.2112 26.0246C46.0207 27.358 45.8302 28.6152 45.6397 29.7962C45.4492 30.9391 45.3159 31.7772 45.2397 32.3105C45.2016 32.4629 45.2397 32.5962 45.354 32.7105C45.4302 32.8248 45.5445 32.882 45.6969 32.882H49.4112C49.6017 32.882 49.716 32.8248 49.7541 32.7105Z" fill="#E6E6E6"/>
<path d="M83.3849 48.0823C83.4611 48.2347 83.4801 48.349 83.442 48.4252C83.4039 48.5395 83.3087 48.5966 83.1563 48.5966H74.2989C74.2227 48.5966 74.1465 48.5395 74.0703 48.4252C73.9941 48.3109 74.0132 48.1966 74.1275 48.0823L74.8132 47.3966C75.3847 46.8252 75.537 46.1585 75.2704 45.3966C75.0418 44.7489 74.737 43.9108 74.3561 42.8822C74.0132 41.8536 73.6322 40.7107 73.2132 39.4536C72.7941 38.1964 72.337 36.9011 71.8417 35.5677C71.3846 34.2344 70.9464 32.9582 70.5274 31.7391C70.1083 30.52 69.7274 29.3962 69.3845 28.3676C69.0416 27.339 68.7559 26.5199 68.5273 25.9104C68.4892 25.7961 68.413 25.7389 68.2988 25.7389C68.1845 25.777 68.1273 25.8532 68.1273 25.9675V45.568C68.1273 46.0252 68.3178 46.4823 68.6988 46.9395L69.8417 48.0823C69.9179 48.1585 69.9559 48.2728 69.9559 48.4252C69.9179 48.5395 69.8226 48.5966 69.6702 48.5966H60.8129C60.6986 48.5966 60.6033 48.5395 60.5271 48.4252C60.5271 48.2728 60.5652 48.1585 60.6414 48.0823C60.7557 47.9681 60.889 47.8347 61.0414 47.6823C61.1557 47.568 61.27 47.4347 61.3843 47.2823C61.5367 47.1299 61.67 46.9966 61.7843 46.8823C62.1653 46.5395 62.3558 46.0823 62.3558 45.5109V32.1962C62.3558 31.6248 62.1653 31.1486 61.7843 30.7676L60.6414 29.6247C60.5652 29.5485 60.5271 29.4724 60.5271 29.3962C60.5271 29.32 60.5652 29.2438 60.6414 29.1676L61.7843 28.0247C62.1653 27.6437 62.3558 27.1675 62.3558 26.5961V13.2815C62.3558 12.71 62.1653 12.2529 61.7843 11.91C61.67 11.7576 61.5367 11.6243 61.3843 11.51C61.27 11.3576 61.1557 11.2243 61.0414 11.11C60.889 10.9576 60.7557 10.8243 60.6414 10.71C60.5652 10.6338 60.5271 10.5195 60.5271 10.3671C60.6033 10.2528 60.6986 10.1957 60.8129 10.1957H69.6702C69.8226 10.1957 69.9179 10.2528 69.9559 10.3671C69.9559 10.5195 69.9179 10.6338 69.8417 10.71L69.7274 10.8243C69.1559 11.3957 69.0035 12.0624 69.2702 12.8243C69.4607 13.4339 69.7274 14.2529 70.0702 15.2815C70.4131 16.3101 70.775 17.434 71.156 18.653C71.5369 19.8721 71.9369 21.1483 72.356 22.4817C72.8132 23.8151 73.2322 25.0913 73.6132 26.3104C73.9941 27.5294 74.3561 28.6723 74.6989 29.739C75.0418 30.7676 75.3085 31.5867 75.4989 32.1962C75.5751 32.3105 75.6513 32.3677 75.7275 32.3677C75.8418 32.2534 75.8989 32.1772 75.8989 32.1391V13.2815C75.8989 12.7481 75.7085 12.291 75.3275 11.91L74.1275 10.71C74.0132 10.5957 73.9941 10.4814 74.0703 10.3671C74.1465 10.2528 74.2227 10.1957 74.2989 10.1957H83.1563C83.3087 10.1957 83.4039 10.2528 83.442 10.3671C83.4801 10.4433 83.4611 10.5576 83.3849 10.71C83.2706 10.8243 83.1372 10.9576 82.9848 11.11C82.8706 11.1862 82.7372 11.3005 82.5848 11.4529C82.4706 11.5671 82.3372 11.7005 82.1848 11.8529C81.8039 12.31 81.6134 12.7672 81.6134 13.2243V26.6532C81.6134 27.1866 81.8039 27.6437 82.1848 28.0247C82.3372 28.139 82.4706 28.2723 82.5848 28.4247C82.7372 28.539 82.8706 28.6533 82.9848 28.7676C83.1372 28.92 83.2706 29.0533 83.3849 29.1676C83.423 29.2057 83.442 29.2819 83.442 29.3962C83.442 29.5105 83.423 29.5866 83.3849 29.6247C83.2706 29.739 83.1372 29.8724 82.9848 30.0247C82.8706 30.1009 82.7372 30.2152 82.5848 30.3676C82.4706 30.4819 82.3372 30.6152 82.1848 30.7676C81.8039 31.1486 81.6134 31.6057 81.6134 32.1391V45.568C81.6134 46.0252 81.8039 46.4823 82.1848 46.9395L83.3849 48.0823Z" fill="#E6E6E6"/>
<path d="M102.493 10.3671C102.569 10.4433 102.607 10.5576 102.607 10.71V17.3959C102.607 17.5101 102.55 17.6054 102.436 17.6816C102.36 17.7197 102.245 17.7006 102.093 17.6244C101.941 17.4721 101.807 17.3197 101.693 17.1673C101.579 17.053 101.445 16.9197 101.293 16.7673C101.141 16.6149 100.988 16.4816 100.836 16.3673C100.493 15.9863 100.036 15.7958 99.4643 15.7958H96.7785C96.4356 15.7958 96.2642 15.9482 96.2642 16.253V26.6532C96.2642 27.1866 96.4547 27.6437 96.8356 28.0247L98.0357 29.2247C98.1119 29.3009 98.15 29.3581 98.15 29.3962C98.15 29.4724 98.1119 29.5485 98.0357 29.6247C97.9214 29.739 97.788 29.8724 97.6357 30.0247C97.5214 30.139 97.388 30.2724 97.2356 30.4248C97.1214 30.539 96.988 30.6533 96.8356 30.7676C96.4547 31.2248 96.2642 31.701 96.2642 32.1962V45.568C96.2642 46.0252 96.4547 46.4823 96.8356 46.9395C96.988 47.0537 97.1214 47.1871 97.2356 47.3395C97.388 47.4538 97.5214 47.568 97.6357 47.6823C97.788 47.8347 97.9214 47.9681 98.0357 48.0823C98.15 48.1966 98.169 48.3109 98.0928 48.4252C98.0547 48.5395 97.9595 48.5966 97.8071 48.5966H89.0069C88.8926 48.5966 88.7973 48.5395 88.7211 48.4252C88.6831 48.349 88.7021 48.2347 88.7783 48.0823C88.8926 47.9681 89.0259 47.8347 89.1783 47.6823C89.2926 47.568 89.4259 47.4538 89.5783 47.3395C89.7307 47.1871 89.864 47.0537 89.9783 46.9395C90.3593 46.4823 90.5498 46.0252 90.5498 45.568V32.1962C90.5498 31.701 90.3593 31.2248 89.9783 30.7676C89.864 30.6533 89.7307 30.539 89.5783 30.4248C89.4259 30.2724 89.2926 30.139 89.1783 30.0247C89.0259 29.8724 88.8926 29.739 88.7783 29.6247C88.7402 29.5866 88.7211 29.5105 88.7211 29.3962C88.7211 29.32 88.7402 29.2628 88.7783 29.2247L89.9783 28.0247C90.3593 27.6437 90.5498 27.1866 90.5498 26.6532V16.253C90.5498 15.9482 90.3783 15.7958 90.0355 15.7958H87.3497C86.7782 15.7958 86.3211 15.9863 85.9782 16.3673C85.8258 16.4816 85.6734 16.6149 85.5211 16.7673C85.4068 16.9197 85.2734 17.053 85.1211 17.1673C85.0068 17.3197 84.8734 17.4721 84.721 17.6244C84.5687 17.7006 84.4544 17.7197 84.3782 17.6816C84.2639 17.6054 84.2067 17.5101 84.2067 17.3959V10.71C84.2067 10.3671 84.3782 10.1957 84.721 10.1957H102.15C102.264 10.1957 102.379 10.2528 102.493 10.3671Z" fill="#E6E6E6"/>
<path d="M111.47 15.7958C111.128 15.7958 110.956 15.9482 110.956 16.253V26.1389C110.956 26.4437 111.128 26.5961 111.47 26.5961H116.385C116.918 26.5961 117.375 26.4056 117.756 26.0246C117.909 25.8723 118.061 25.7389 118.213 25.6246C118.366 25.4723 118.499 25.3389 118.613 25.2246C118.728 25.0722 118.861 24.9199 119.013 24.7675C119.166 24.6913 119.28 24.6722 119.356 24.7103C119.471 24.7484 119.528 24.8437 119.528 24.996V33.8534C119.528 33.9296 119.471 34.0058 119.356 34.082C119.242 34.1582 119.128 34.1391 119.013 34.0248L117.699 32.7105C117.318 32.3296 116.861 32.1391 116.328 32.1391H111.47C111.318 32.1391 111.204 32.1962 111.128 32.3105C111.013 32.3486 110.956 32.4629 110.956 32.6534V42.5393C110.956 42.6917 111.013 42.806 111.128 42.8822C111.204 42.9965 111.318 43.0536 111.47 43.0536H118.442C118.937 43.0536 119.413 42.8632 119.871 42.4822C120.023 42.3298 120.156 42.1774 120.271 42.0251C120.423 41.8727 120.575 41.7393 120.728 41.625C120.88 41.4727 121.033 41.3203 121.185 41.1679C121.223 41.0536 121.318 41.0345 121.471 41.1107C121.585 41.1488 121.642 41.2441 121.642 41.3965V48.1395C121.642 48.4443 121.49 48.5966 121.185 48.5966H103.642C103.527 48.5966 103.432 48.5395 103.356 48.4252C103.356 48.2728 103.394 48.1585 103.47 48.0823L104.67 46.8823C105.051 46.5014 105.242 46.0442 105.242 45.5109V32.1962C105.242 31.6629 105.051 31.2057 104.67 30.8248L103.47 29.6247C103.394 29.5485 103.356 29.4724 103.356 29.3962C103.356 29.3581 103.394 29.3009 103.47 29.2247L104.67 28.0247C105.051 27.5675 105.242 27.0913 105.242 26.5961V13.2815C105.242 12.7481 105.051 12.291 104.67 11.91L103.47 10.71C103.394 10.6719 103.356 10.5576 103.356 10.3671C103.432 10.2528 103.527 10.1957 103.642 10.1957H121.185C121.49 10.1957 121.642 10.3671 121.642 10.71V17.3959C121.642 17.5101 121.585 17.6054 121.471 17.6816C121.356 17.7197 121.261 17.7006 121.185 17.6244C121.033 17.4721 120.88 17.3197 120.728 17.1673C120.613 17.053 120.48 16.9197 120.328 16.7673C120.175 16.6149 120.023 16.4816 119.871 16.3673C119.528 15.9863 119.071 15.7958 118.499 15.7958H111.47Z" fill="#E6E6E6"/>
<path d="M145.543 29.2247C145.619 29.3009 145.657 29.3581 145.657 29.3962C145.657 29.4724 145.619 29.5485 145.543 29.6247L144.4 30.7676C144.019 31.1486 143.829 31.6248 143.829 32.1962V40.4822C143.829 42.006 143.543 43.3584 142.972 44.5394C142.743 45.0346 142.438 45.5299 142.057 46.0252C141.714 46.5204 141.257 46.9585 140.686 47.3395C140.153 47.7204 139.505 48.0252 138.743 48.2538C138.019 48.4824 137.143 48.5966 136.114 48.5966H123.828C123.714 48.5966 123.619 48.5395 123.543 48.4252C123.543 48.2728 123.581 48.1585 123.657 48.0823L124.8 46.9395C125.181 46.5585 125.371 46.1013 125.371 45.568V32.1962C125.371 31.6248 125.181 31.1486 124.8 30.7676L124.057 30.0247C123.904 29.8724 123.771 29.739 123.657 29.6247C123.581 29.5485 123.543 29.4724 123.543 29.3962C123.543 29.3581 123.581 29.3009 123.657 29.2247C123.771 29.1104 123.904 28.9771 124.057 28.8247C124.171 28.7104 124.285 28.5771 124.4 28.4247C124.552 28.2723 124.685 28.139 124.8 28.0247C125.181 27.6818 125.371 27.2247 125.371 26.6532V13.2815C125.371 12.71 125.181 12.2529 124.8 11.91C124.685 11.7576 124.552 11.6243 124.4 11.51C124.285 11.3576 124.171 11.2243 124.057 11.11C123.904 10.9576 123.771 10.8243 123.657 10.71C123.581 10.6719 123.543 10.5576 123.543 10.3671C123.657 10.2528 123.752 10.1957 123.828 10.1957H136.114C138.133 10.1957 139.657 10.6147 140.686 11.4529C141.753 12.291 142.514 13.2243 142.972 14.2529C143.543 15.4339 143.829 16.7863 143.829 18.3102V26.6532C143.829 27.2247 144.019 27.6818 144.4 28.0247C144.515 28.139 144.629 28.2723 144.743 28.4247C144.895 28.5771 145.029 28.7104 145.143 28.8247C145.295 28.9771 145.429 29.1104 145.543 29.2247ZM138.057 17.853C138.057 17.3959 137.981 17.0339 137.829 16.7673C137.676 16.4625 137.486 16.253 137.257 16.1387C137.067 15.9863 136.857 15.8911 136.629 15.853C136.4 15.8149 136.19 15.7958 136 15.7958H131.6C131.448 15.7958 131.333 15.8339 131.257 15.9101C131.181 16.0625 131.143 16.1768 131.143 16.253V42.5393C131.143 42.6917 131.181 42.806 131.257 42.8822C131.371 42.9965 131.486 43.0536 131.6 43.0536H136C136.381 43.0536 136.819 42.9394 137.314 42.7108C137.81 42.4822 138.057 41.8917 138.057 40.9393V17.853Z" fill="#E6E6E6"/>
<path d="M37.681 10.3671C37.681 10.5576 37.662 10.6719 37.6239 10.71C37.4715 10.8624 37.3191 11.0147 37.1667 11.1671C37.0143 11.2814 36.862 11.4148 36.7096 11.5671C36.5953 11.7195 36.462 11.8529 36.3096 11.9671C36.0429 12.2719 35.8524 12.6338 35.7381 13.0529C35.6619 13.6243 35.5286 14.5196 35.3381 15.7387C35.1476 16.9197 34.9381 18.1768 34.7095 19.5102C34.519 20.8436 34.3286 22.1388 34.1381 23.396C33.9476 24.6151 33.7952 25.5865 33.6809 26.3104C33.5666 26.9199 33.7571 27.4723 34.2524 27.9676C34.4048 28.1199 34.5381 28.2723 34.6524 28.4247C34.8048 28.539 34.9381 28.6723 35.0524 28.8247C35.2048 28.939 35.3381 29.0723 35.4524 29.2247C35.5286 29.3009 35.5667 29.3581 35.5667 29.3962C35.5667 29.4724 35.5286 29.5485 35.4524 29.6247L33.1666 31.9105C32.9 32.1772 32.7285 32.5391 32.6523 32.9963C32.5761 33.5677 32.4428 34.4058 32.2523 35.5106C32.0999 36.6154 31.9095 37.7964 31.6809 39.0535C31.4904 40.2726 31.2999 41.4727 31.1094 42.6536C30.919 43.7965 30.7666 44.7108 30.6523 45.3966C30.5761 46.0823 30.7666 46.6537 31.2237 47.1109L32.1952 48.0823C32.2714 48.1585 32.3095 48.2728 32.3095 48.4252C32.2714 48.5395 32.1761 48.5966 32.0237 48.5966H23.1664C23.0521 48.5966 22.9568 48.5395 22.8807 48.4252C22.8807 48.2728 22.9188 48.1585 22.9949 48.0823L23.5664 47.5109C24.0235 47.0537 24.195 46.5204 24.0807 45.9109C24.0045 45.3013 23.9093 44.4823 23.795 43.4537C23.6807 42.4251 23.5473 41.2631 23.395 39.9679C23.2807 38.6726 23.1283 37.3202 22.9378 35.9106C22.7854 34.463 22.633 33.0724 22.4806 31.7391C22.3664 30.3676 22.233 29.0914 22.0806 27.9104C21.9282 26.7294 21.814 25.7389 21.7378 24.9389C21.7378 24.8246 21.6806 24.7675 21.5663 24.7675C21.452 24.7675 21.3949 24.8246 21.3949 24.9389C21.3187 25.7008 21.2044 26.6723 21.052 27.8533C20.9377 29.0342 20.8044 30.2914 20.652 31.6248C20.4996 32.9582 20.3473 34.3487 20.1949 35.7963C20.0425 37.2059 19.8901 38.5392 19.7377 39.7964C19.6234 41.0536 19.5091 42.2155 19.3949 43.2822C19.2806 44.3108 19.1853 45.1108 19.1091 45.6823C19.071 46.2918 19.2615 46.8252 19.6806 47.2823L20.4806 48.0823C20.5568 48.2347 20.5758 48.349 20.5377 48.4252C20.4996 48.5395 20.4044 48.5966 20.252 48.5966H11.4518C11.3375 48.5966 11.2423 48.5395 11.1661 48.4252C11.128 48.349 11.147 48.2347 11.2232 48.0823C11.2994 48.0062 11.3756 47.93 11.4518 47.8538C11.528 47.7776 11.6232 47.7014 11.7375 47.6252C11.8518 47.5109 11.947 47.4157 12.0232 47.3395C12.4804 46.8061 12.6518 46.2347 12.5375 45.6251C12.4232 44.9394 12.2709 44.0061 12.0804 42.8251C11.928 41.606 11.7375 40.3679 11.5089 39.1107C11.3185 37.8535 11.128 36.6725 10.9375 35.5677C10.7851 34.4249 10.6518 33.5677 10.5375 32.9963C10.4613 32.5391 10.2899 32.1772 10.0232 31.9105L7.73742 29.6247C7.66122 29.5485 7.62313 29.4724 7.62313 29.3962C7.62313 29.3581 7.66122 29.3009 7.73742 29.2247C7.85171 29.0723 7.98504 28.939 8.13743 28.8247C8.25172 28.6723 8.38505 28.539 8.53744 28.4247C8.68982 28.2723 8.82316 28.1199 8.93745 27.9676C9.4327 27.4723 9.62318 26.9199 9.50889 26.3104C9.3946 25.5865 9.24222 24.6151 9.05174 23.396C8.86125 22.1388 8.65173 20.8436 8.42315 19.5102C8.23267 18.1768 8.04219 16.9197 7.85171 15.7387C7.66122 14.5196 7.52789 13.6243 7.4517 13.0529C7.33741 12.6338 7.14693 12.2719 6.88025 11.9671L6.08023 11.1671C5.92785 11.0147 5.77546 10.8624 5.62308 10.71C5.54689 10.6719 5.50879 10.5576 5.50879 10.3671C5.62308 10.2528 5.71832 10.1957 5.79451 10.1957H14.6519C14.7281 10.1957 14.8233 10.2528 14.9376 10.3671C14.9376 10.5576 14.8995 10.6719 14.8233 10.71C14.709 10.8243 14.5947 10.9386 14.4804 11.0528C14.4043 11.129 14.309 11.2433 14.1947 11.3957C14.0804 11.51 13.9471 11.6243 13.7947 11.7386C13.3757 12.2338 13.1852 12.7862 13.2233 13.3958C13.2995 13.9672 13.3947 14.7672 13.509 15.7958C13.6614 16.8244 13.8138 17.9673 13.9661 19.2245C14.1185 20.4817 14.2709 21.815 14.4233 23.2246C14.6138 24.596 14.7852 25.9485 14.9376 27.2818C15.09 28.5771 15.2233 29.7962 15.3376 30.9391C15.49 32.0438 15.6043 32.9772 15.6805 33.7391C15.6805 33.8534 15.7376 33.9106 15.8519 33.9106C16.0043 33.9106 16.0805 33.8534 16.0805 33.7391C16.1948 32.5962 16.3662 31.0724 16.5948 29.1676C16.8234 27.2247 17.0519 25.2246 17.2805 23.1674C17.5472 21.1102 17.7948 19.1864 18.0234 17.3959C18.252 15.5672 18.4234 14.2148 18.5377 13.3386C18.5758 12.7291 18.3853 12.1767 17.9662 11.6814L16.9948 10.71C16.9186 10.6719 16.8805 10.5576 16.8805 10.3671C16.9948 10.2528 17.09 10.1957 17.1662 10.1957H26.0236C26.0998 10.1957 26.195 10.2528 26.3093 10.3671C26.3093 10.5576 26.2903 10.6719 26.2522 10.71C26.1379 10.8243 26.0236 10.9195 25.9093 10.9957C25.8331 11.11 25.7188 11.2243 25.5664 11.3386C25.4521 11.4529 25.3379 11.5671 25.2236 11.6814C24.8045 12.1767 24.614 12.7291 24.6521 13.3386C24.7664 14.2148 24.9378 15.5672 25.1664 17.3959C25.395 19.1864 25.6236 21.1102 25.8522 23.1674C26.1188 25.2246 26.3665 27.2247 26.595 29.1676C26.8236 31.0724 26.995 32.5962 27.1093 33.7391C27.1093 33.8534 27.1855 33.9106 27.3379 33.9106C27.4522 33.9106 27.5093 33.8534 27.5093 33.7391C27.5855 32.9772 27.6808 32.0438 27.7951 30.9391C27.9475 29.7962 28.0998 28.5771 28.2522 27.2818C28.4046 25.9485 28.557 24.596 28.7094 23.2246C28.8999 21.815 29.0713 20.4817 29.2237 19.2245C29.3761 17.9673 29.5094 16.8244 29.6237 15.7958C29.7761 14.7672 29.8904 13.9672 29.9665 13.3958C30.0046 12.7862 29.8142 12.2338 29.3951 11.7386L28.7094 11.0528C28.5951 10.9386 28.4808 10.8243 28.3665 10.71C28.2522 10.6338 28.2332 10.5195 28.3094 10.3671C28.3094 10.2528 28.3856 10.1957 28.5379 10.1957H37.3953C37.4715 10.1957 37.5667 10.2528 37.681 10.3671Z" stroke="#1F1F1F" stroke-width="2.61911" mask="url(#path-3-outside-1_585_6985)"/>
<path d="M59.9829 48.0823C60.0591 48.1585 60.0972 48.2728 60.0972 48.4252C60.0591 48.5395 59.9639 48.5966 59.8115 48.5966H50.9541C50.8398 48.5966 50.7446 48.5395 50.6684 48.4252C50.6684 48.2728 50.7065 48.1585 50.7827 48.0823L51.4684 47.3966C51.9637 46.9014 52.1542 46.3299 52.0399 45.6823C51.9637 45.2251 51.8684 44.6727 51.7542 44.0251C51.678 43.3775 51.5827 42.7298 51.4684 42.0822C51.3541 41.3965 51.2398 40.7679 51.1256 40.1964C51.0494 39.625 50.9922 39.1869 50.9541 38.8821C50.8779 38.5773 50.7065 38.425 50.4398 38.425H44.6683C44.4016 38.425 44.2301 38.5773 44.154 38.8821C44.1159 39.1869 44.0397 39.625 43.9254 40.1964C43.8492 40.7679 43.7539 41.3965 43.6397 42.0822C43.5254 42.7298 43.4111 43.3775 43.2968 44.0251C43.2206 44.6727 43.1444 45.2251 43.0682 45.6823C42.9539 46.3299 43.1444 46.9014 43.6397 47.3966C43.8682 47.6252 44.0397 47.7776 44.154 47.8538C44.2301 47.93 44.3063 48.0062 44.3825 48.0823C44.4206 48.1585 44.4397 48.2728 44.4397 48.4252C44.4016 48.5395 44.3063 48.5966 44.154 48.5966H35.2966C35.1823 48.5966 35.0871 48.5395 35.0109 48.4252C35.0109 48.2728 35.049 48.1585 35.1252 48.0823L36.7252 46.4823C36.9919 46.2156 37.1824 45.8728 37.2966 45.4537C37.4109 44.8823 37.5633 44.0251 37.7538 42.8822C37.9824 41.7012 38.2109 40.4631 38.4395 39.1678C38.6681 37.8345 38.8967 36.5582 39.1253 35.3392C39.3538 34.082 39.5253 33.0915 39.6396 32.3677C39.7538 31.72 39.5634 31.1486 39.0681 30.6533L38.0395 29.6247C37.9633 29.5485 37.9252 29.4724 37.9252 29.3962C37.9252 29.3581 37.9633 29.3009 38.0395 29.2247C38.3062 28.9581 38.5729 28.6723 38.8395 28.3676L40.211 26.9961C40.5539 26.6532 40.7443 26.3104 40.7824 25.9675C40.8967 25.3961 41.0491 24.5579 41.2396 23.4532C41.4301 22.3103 41.6396 21.1102 41.8682 19.8531C42.0968 18.5959 42.3253 17.3768 42.5539 16.1958C42.7825 14.9767 42.9539 14.0243 43.0682 13.3386C43.1825 12.691 42.992 12.1195 42.4968 11.6243C42.3063 11.3957 42.0968 11.1862 41.8682 10.9957C41.792 10.8814 41.6968 10.7862 41.5825 10.71C41.4682 10.5957 41.4491 10.4814 41.5253 10.3671C41.6015 10.2528 41.6968 10.1957 41.811 10.1957H53.4685C53.6209 10.1957 53.7161 10.2528 53.7542 10.3671C53.8304 10.4814 53.8113 10.5957 53.6971 10.71L52.6113 11.7957C52.1542 12.2529 51.9827 12.8243 52.097 13.51C52.2113 14.1958 52.3637 15.1291 52.5542 16.3101C52.7827 17.4911 53.0113 18.7102 53.2399 19.9674C53.4685 21.2245 53.678 22.4055 53.8685 23.5103C54.059 24.6151 54.2114 25.4342 54.3256 25.9675C54.3637 26.3104 54.5542 26.6532 54.8971 26.9961C55.0876 27.1866 55.2971 27.4152 55.5257 27.6818C55.7923 27.9104 56.04 28.139 56.2685 28.3676C56.5352 28.6723 56.8019 28.9581 57.0686 29.2247C57.1448 29.3009 57.1829 29.3581 57.1829 29.3962C57.1829 29.4724 57.1448 29.5485 57.0686 29.6247L56.04 30.6533C55.5447 31.1486 55.3542 31.72 55.4685 32.3677C55.5828 33.0915 55.7542 34.082 55.9828 35.3392C56.2114 36.5582 56.44 37.8345 56.6686 39.1678C56.9352 40.4631 57.1638 41.7012 57.3543 42.8822C57.5829 44.0251 57.7543 44.8823 57.8686 45.4537C57.9448 45.8347 58.1162 46.1775 58.3829 46.4823L59.9829 48.0823ZM49.7541 32.7105C49.8684 32.5962 49.9065 32.4629 49.8684 32.3105C49.7922 31.7772 49.6589 30.9391 49.4684 29.7962C49.2779 28.6152 49.0684 27.358 48.8398 26.0246C48.6493 24.6913 48.4398 23.396 48.2112 22.1388C48.0207 20.8436 47.8683 19.815 47.754 19.053C47.754 18.9388 47.6969 18.8816 47.5826 18.8816C47.4302 18.8816 47.354 18.9388 47.354 19.053C47.2397 19.815 47.0683 20.8436 46.8397 22.1388C46.6493 23.396 46.4397 24.6913 46.2112 26.0246C46.0207 27.358 45.8302 28.6152 45.6397 29.7962C45.4492 30.9391 45.3159 31.7772 45.2397 32.3105C45.2016 32.4629 45.2397 32.5962 45.354 32.7105C45.4302 32.8248 45.5445 32.882 45.6969 32.882H49.4112C49.6017 32.882 49.716 32.8248 49.7541 32.7105Z" stroke="#1F1F1F" stroke-width="2.61911" mask="url(#path-3-outside-1_585_6985)"/>
<path d="M83.3849 48.0823C83.4611 48.2347 83.4801 48.349 83.442 48.4252C83.4039 48.5395 83.3087 48.5966 83.1563 48.5966H74.2989C74.2227 48.5966 74.1465 48.5395 74.0703 48.4252C73.9941 48.3109 74.0132 48.1966 74.1275 48.0823L74.8132 47.3966C75.3847 46.8252 75.537 46.1585 75.2704 45.3966C75.0418 44.7489 74.737 43.9108 74.3561 42.8822C74.0132 41.8536 73.6322 40.7107 73.2132 39.4536C72.7941 38.1964 72.337 36.9011 71.8417 35.5677C71.3846 34.2344 70.9464 32.9582 70.5274 31.7391C70.1083 30.52 69.7274 29.3962 69.3845 28.3676C69.0416 27.339 68.7559 26.5199 68.5273 25.9104C68.4892 25.7961 68.413 25.7389 68.2988 25.7389C68.1845 25.777 68.1273 25.8532 68.1273 25.9675V45.568C68.1273 46.0252 68.3178 46.4823 68.6988 46.9395L69.8417 48.0823C69.9179 48.1585 69.9559 48.2728 69.9559 48.4252C69.9179 48.5395 69.8226 48.5966 69.6702 48.5966H60.8129C60.6986 48.5966 60.6033 48.5395 60.5271 48.4252C60.5271 48.2728 60.5652 48.1585 60.6414 48.0823C60.7557 47.9681 60.889 47.8347 61.0414 47.6823C61.1557 47.568 61.27 47.4347 61.3843 47.2823C61.5367 47.1299 61.67 46.9966 61.7843 46.8823C62.1653 46.5395 62.3558 46.0823 62.3558 45.5109V32.1962C62.3558 31.6248 62.1653 31.1486 61.7843 30.7676L60.6414 29.6247C60.5652 29.5485 60.5271 29.4724 60.5271 29.3962C60.5271 29.32 60.5652 29.2438 60.6414 29.1676L61.7843 28.0247C62.1653 27.6437 62.3558 27.1675 62.3558 26.5961V13.2815C62.3558 12.71 62.1653 12.2529 61.7843 11.91C61.67 11.7576 61.5367 11.6243 61.3843 11.51C61.27 11.3576 61.1557 11.2243 61.0414 11.11C60.889 10.9576 60.7557 10.8243 60.6414 10.71C60.5652 10.6338 60.5271 10.5195 60.5271 10.3671C60.6033 10.2528 60.6986 10.1957 60.8129 10.1957H69.6702C69.8226 10.1957 69.9179 10.2528 69.9559 10.3671C69.9559 10.5195 69.9179 10.6338 69.8417 10.71L69.7274 10.8243C69.1559 11.3957 69.0035 12.0624 69.2702 12.8243C69.4607 13.4339 69.7274 14.2529 70.0702 15.2815C70.4131 16.3101 70.775 17.434 71.156 18.653C71.5369 19.8721 71.9369 21.1483 72.356 22.4817C72.8132 23.8151 73.2322 25.0913 73.6132 26.3104C73.9941 27.5294 74.3561 28.6723 74.6989 29.739C75.0418 30.7676 75.3085 31.5867 75.4989 32.1962C75.5751 32.3105 75.6513 32.3677 75.7275 32.3677C75.8418 32.2534 75.8989 32.1772 75.8989 32.1391V13.2815C75.8989 12.7481 75.7085 12.291 75.3275 11.91L74.1275 10.71C74.0132 10.5957 73.9941 10.4814 74.0703 10.3671C74.1465 10.2528 74.2227 10.1957 74.2989 10.1957H83.1563C83.3087 10.1957 83.4039 10.2528 83.442 10.3671C83.4801 10.4433 83.4611 10.5576 83.3849 10.71C83.2706 10.8243 83.1372 10.9576 82.9848 11.11C82.8706 11.1862 82.7372 11.3005 82.5848 11.4529C82.4706 11.5671 82.3372 11.7005 82.1848 11.8529C81.8039 12.31 81.6134 12.7672 81.6134 13.2243V26.6532C81.6134 27.1866 81.8039 27.6437 82.1848 28.0247C82.3372 28.139 82.4706 28.2723 82.5848 28.4247C82.7372 28.539 82.8706 28.6533 82.9848 28.7676C83.1372 28.92 83.2706 29.0533 83.3849 29.1676C83.423 29.2057 83.442 29.2819 83.442 29.3962C83.442 29.5105 83.423 29.5866 83.3849 29.6247C83.2706 29.739 83.1372 29.8724 82.9848 30.0247C82.8706 30.1009 82.7372 30.2152 82.5848 30.3676C82.4706 30.4819 82.3372 30.6152 82.1848 30.7676C81.8039 31.1486 81.6134 31.6057 81.6134 32.1391V45.568C81.6134 46.0252 81.8039 46.4823 82.1848 46.9395L83.3849 48.0823Z" stroke="#1F1F1F" stroke-width="2.61911" mask="url(#path-3-outside-1_585_6985)"/>
<path d="M102.493 10.3671C102.569 10.4433 102.607 10.5576 102.607 10.71V17.3959C102.607 17.5101 102.55 17.6054 102.436 17.6816C102.36 17.7197 102.245 17.7006 102.093 17.6244C101.941 17.4721 101.807 17.3197 101.693 17.1673C101.579 17.053 101.445 16.9197 101.293 16.7673C101.141 16.6149 100.988 16.4816 100.836 16.3673C100.493 15.9863 100.036 15.7958 99.4643 15.7958H96.7785C96.4356 15.7958 96.2642 15.9482 96.2642 16.253V26.6532C96.2642 27.1866 96.4547 27.6437 96.8356 28.0247L98.0357 29.2247C98.1119 29.3009 98.15 29.3581 98.15 29.3962C98.15 29.4724 98.1119 29.5485 98.0357 29.6247C97.9214 29.739 97.788 29.8724 97.6357 30.0247C97.5214 30.139 97.388 30.2724 97.2356 30.4248C97.1214 30.539 96.988 30.6533 96.8356 30.7676C96.4547 31.2248 96.2642 31.701 96.2642 32.1962V45.568C96.2642 46.0252 96.4547 46.4823 96.8356 46.9395C96.988 47.0537 97.1214 47.1871 97.2356 47.3395C97.388 47.4538 97.5214 47.568 97.6357 47.6823C97.788 47.8347 97.9214 47.9681 98.0357 48.0823C98.15 48.1966 98.169 48.3109 98.0928 48.4252C98.0547 48.5395 97.9595 48.5966 97.8071 48.5966H89.0069C88.8926 48.5966 88.7973 48.5395 88.7211 48.4252C88.6831 48.349 88.7021 48.2347 88.7783 48.0823C88.8926 47.9681 89.0259 47.8347 89.1783 47.6823C89.2926 47.568 89.4259 47.4538 89.5783 47.3395C89.7307 47.1871 89.864 47.0537 89.9783 46.9395C90.3593 46.4823 90.5498 46.0252 90.5498 45.568V32.1962C90.5498 31.701 90.3593 31.2248 89.9783 30.7676C89.864 30.6533 89.7307 30.539 89.5783 30.4248C89.4259 30.2724 89.2926 30.139 89.1783 30.0247C89.0259 29.8724 88.8926 29.739 88.7783 29.6247C88.7402 29.5866 88.7211 29.5105 88.7211 29.3962C88.7211 29.32 88.7402 29.2628 88.7783 29.2247L89.9783 28.0247C90.3593 27.6437 90.5498 27.1866 90.5498 26.6532V16.253C90.5498 15.9482 90.3783 15.7958 90.0355 15.7958H87.3497C86.7782 15.7958 86.3211 15.9863 85.9782 16.3673C85.8258 16.4816 85.6734 16.6149 85.5211 16.7673C85.4068 16.9197 85.2734 17.053 85.1211 17.1673C85.0068 17.3197 84.8734 17.4721 84.721 17.6244C84.5687 17.7006 84.4544 17.7197 84.3782 17.6816C84.2639 17.6054 84.2067 17.5101 84.2067 17.3959V10.71C84.2067 10.3671 84.3782 10.1957 84.721 10.1957H102.15C102.264 10.1957 102.379 10.2528 102.493 10.3671Z" stroke="#1F1F1F" stroke-width="2.61911" mask="url(#path-3-outside-1_585_6985)"/>
<path d="M111.47 15.7958C111.128 15.7958 110.956 15.9482 110.956 16.253V26.1389C110.956 26.4437 111.128 26.5961 111.47 26.5961H116.385C116.918 26.5961 117.375 26.4056 117.756 26.0246C117.909 25.8723 118.061 25.7389 118.213 25.6246C118.366 25.4723 118.499 25.3389 118.613 25.2246C118.728 25.0722 118.861 24.9199 119.013 24.7675C119.166 24.6913 119.28 24.6722 119.356 24.7103C119.471 24.7484 119.528 24.8437 119.528 24.996V33.8534C119.528 33.9296 119.471 34.0058 119.356 34.082C119.242 34.1582 119.128 34.1391 119.013 34.0248L117.699 32.7105C117.318 32.3296 116.861 32.1391 116.328 32.1391H111.47C111.318 32.1391 111.204 32.1962 111.128 32.3105C111.013 32.3486 110.956 32.4629 110.956 32.6534V42.5393C110.956 42.6917 111.013 42.806 111.128 42.8822C111.204 42.9965 111.318 43.0536 111.47 43.0536H118.442C118.937 43.0536 119.413 42.8632 119.871 42.4822C120.023 42.3298 120.156 42.1774 120.271 42.0251C120.423 41.8727 120.575 41.7393 120.728 41.625C120.88 41.4727 121.033 41.3203 121.185 41.1679C121.223 41.0536 121.318 41.0345 121.471 41.1107C121.585 41.1488 121.642 41.2441 121.642 41.3965V48.1395C121.642 48.4443 121.49 48.5966 121.185 48.5966H103.642C103.527 48.5966 103.432 48.5395 103.356 48.4252C103.356 48.2728 103.394 48.1585 103.47 48.0823L104.67 46.8823C105.051 46.5014 105.242 46.0442 105.242 45.5109V32.1962C105.242 31.6629 105.051 31.2057 104.67 30.8248L103.47 29.6247C103.394 29.5485 103.356 29.4724 103.356 29.3962C103.356 29.3581 103.394 29.3009 103.47 29.2247L104.67 28.0247C105.051 27.5675 105.242 27.0913 105.242 26.5961V13.2815C105.242 12.7481 105.051 12.291 104.67 11.91L103.47 10.71C103.394 10.6719 103.356 10.5576 103.356 10.3671C103.432 10.2528 103.527 10.1957 103.642 10.1957H121.185C121.49 10.1957 121.642 10.3671 121.642 10.71V17.3959C121.642 17.5101 121.585 17.6054 121.471 17.6816C121.356 17.7197 121.261 17.7006 121.185 17.6244C121.033 17.4721 120.88 17.3197 120.728 17.1673C120.613 17.053 120.48 16.9197 120.328 16.7673C120.175 16.6149 120.023 16.4816 119.871 16.3673C119.528 15.9863 119.071 15.7958 118.499 15.7958H111.47Z" stroke="#1F1F1F" stroke-width="2.61911" mask="url(#path-3-outside-1_585_6985)"/>
<path d="M145.543 29.2247C145.619 29.3009 145.657 29.3581 145.657 29.3962C145.657 29.4724 145.619 29.5485 145.543 29.6247L144.4 30.7676C144.019 31.1486 143.829 31.6248 143.829 32.1962V40.4822C143.829 42.006 143.543 43.3584 142.972 44.5394C142.743 45.0346 142.438 45.5299 142.057 46.0252C141.714 46.5204 141.257 46.9585 140.686 47.3395C140.153 47.7204 139.505 48.0252 138.743 48.2538C138.019 48.4824 137.143 48.5966 136.114 48.5966H123.828C123.714 48.5966 123.619 48.5395 123.543 48.4252C123.543 48.2728 123.581 48.1585 123.657 48.0823L124.8 46.9395C125.181 46.5585 125.371 46.1013 125.371 45.568V32.1962C125.371 31.6248 125.181 31.1486 124.8 30.7676L124.057 30.0247C123.904 29.8724 123.771 29.739 123.657 29.6247C123.581 29.5485 123.543 29.4724 123.543 29.3962C123.543 29.3581 123.581 29.3009 123.657 29.2247C123.771 29.1104 123.904 28.9771 124.057 28.8247C124.171 28.7104 124.285 28.5771 124.4 28.4247C124.552 28.2723 124.685 28.139 124.8 28.0247C125.181 27.6818 125.371 27.2247 125.371 26.6532V13.2815C125.371 12.71 125.181 12.2529 124.8 11.91C124.685 11.7576 124.552 11.6243 124.4 11.51C124.285 11.3576 124.171 11.2243 124.057 11.11C123.904 10.9576 123.771 10.8243 123.657 10.71C123.581 10.6719 123.543 10.5576 123.543 10.3671C123.657 10.2528 123.752 10.1957 123.828 10.1957H136.114C138.133 10.1957 139.657 10.6147 140.686 11.4529C141.753 12.291 142.514 13.2243 142.972 14.2529C143.543 15.4339 143.829 16.7863 143.829 18.3102V26.6532C143.829 27.2247 144.019 27.6818 144.4 28.0247C144.515 28.139 144.629 28.2723 144.743 28.4247C144.895 28.5771 145.029 28.7104 145.143 28.8247C145.295 28.9771 145.429 29.1104 145.543 29.2247ZM138.057 17.853C138.057 17.3959 137.981 17.0339 137.829 16.7673C137.676 16.4625 137.486 16.253 137.257 16.1387C137.067 15.9863 136.857 15.8911 136.629 15.853C136.4 15.8149 136.19 15.7958 136 15.7958H131.6C131.448 15.7958 131.333 15.8339 131.257 15.9101C131.181 16.0625 131.143 16.1768 131.143 16.253V42.5393C131.143 42.6917 131.181 42.806 131.257 42.8822C131.371 42.9965 131.486 43.0536 131.6 43.0536H136C136.381 43.0536 136.819 42.9394 137.314 42.7108C137.81 42.4822 138.057 41.8917 138.057 40.9393V17.853Z" stroke="#1F1F1F" stroke-width="2.61911" mask="url(#path-3-outside-1_585_6985)"/>
</svg>
